<svg width="34" height="226" viewBox="0 0 34 226.021" fill="none" xmlns="http://www.w3.org/2000/svg">
<rect opacity="0.6" width="16.8626" height="140.507" rx="2.59574" transform="matrix(-1 0 0 1 33.986 85.335)" fill="#00F701"/>
<rect opacity="0.6" width="16.8626" height="68.480" rx="2.59574" transform="matrix(-1 0 0 1 33.727 0)" fill="#FA4EDF"/>
<rect opacity="0.6" width="16.8626" height="33.986" rx="2.59574" transform="matrix(0 1 1 0 0 51.616)" fill="#FA4EDF"/>
<rect opacity="0.4" x="17.119" y="136.962" width="34.240" height="16.8626" rx="2.59574" transform="rotate(-90 17.119 136.962)" fill="#FFCC02"/>
<rect opacity="0.6" width="34.240" height="33.725" rx="2.59574" transform="matrix(0 1 1 0 0 0)" fill="#FA4EDF"/>
<rect opacity="0.5" width="34.240" height="33.725" rx="2.59574" transform="matrix(0 1 1 0 0.257 153.825)" fill="#00F701"/>
<rect width="16.8626" height="16.8626" rx="2.59574" transform="matrix(-1 0 0 1 33.727 17.378)" fill="#FA4EDF"/>
<rect x="17.119" y="136.962" width="16.8626" height="16.8626" rx="2.59574" transform="rotate(-90 17.119 136.962)" fill="#FFCC02"/>
<rect width="16.8626" height="16.8626" rx="2.59574" transform="matrix(0 1 1 0 0.257 153.825)" fill="#00F701"/>
</svg>
