<svg width="295" height="34" viewBox="0 0 295 34" fill="none" xmlns="http://www.w3.org/2000/svg">
<rect x="0" y="0" width="16.8626" height="33.7252" rx="2.59574" fill="#2ABBF8"/>
<rect x="34.2403" y="0" width="34.2403" height="33.7252" rx="2.59574" opacity="0.6" fill="#2ABBF8"/>
<rect x="106.268" y="0" width="34.2403" height="33.7252" rx="2.59574" opacity="0.6" fill="#00F701"/>
<rect x="209.137" y="0" width="16.8626" height="33.7252" rx="2.59574" opacity="0.6" fill="#FA4EDF"/>
<rect x="243.233" y="0" width="34.2403" height="33.7252" rx="2.59574" opacity="0.6" fill="#FA4EDF"/>
<rect x="0" y="0" width="85.3433" height="16.8626" rx="2.59574" opacity="0.6" fill="#2ABBF8"/>
<rect x="68.4812" y="0" width="54.6502" height="16.8626" rx="2.59574" fill="#00F701"/>
<rect x="106.268" y="0" width="51.103" height="16.8626" rx="2.59574" opacity="0.6" fill="#00F701"/>
<rect x="157.371" y="0" width="34.2403" height="16.8626" rx="2.59574" opacity="0.6" fill="#FFCC02"/>
<rect x="208.993" y="0" width="68.4805" height="16.8626" rx="2.59574" opacity="0.6" fill="#FA4EDF"/>
<rect x="260.096" y="0" width="34.04" height="16.8626" rx="2.59574" opacity="0.6" fill="#FA4EDF"/>
<rect x="0" y="0" width="16.8626" height="16.8626" rx="2.59574" fill="#2ABBF8"/>
<rect x="34.2403" y="0" width="16.8626" height="16.8626" rx="2.59574" fill="#2ABBF8"/>
<rect x="157.371" y="0" width="16.8626" height="16.8626" rx="2.59574" fill="#FFCC02"/>
<rect x="243.233" y="0" width="16.8626" height="16.8626" rx="2.59574" fill="#FA4EDF"/>
<rect x="51.6188" y="16.8626" width="16.8626" height="16.8626" rx="2.59574" fill="#2ABBF8"/>
<rect x="123.6484" y="16.8626" width="16.8626" height="16.8626" rx="2.59574" fill="#00F701"/>
<rect x="260.611" y="16.8626" width="16.8626" height="16.8626" rx="2.59574" fill="#FA4EDF"/>
</svg>
