<svg fill="none" height="205" viewBox="0 0 34 204.769" width="34" xmlns="http://www.w3.org/2000/svg"><rect fill="#2abbf8" height="102.384" opacity=".6" rx="2.59574" transform="matrix(-1 0 0 1 33.787 102.384)" width="16.8626"/><g fill="#fa4edf"><rect height="68.482" opacity=".6" rx="2.59574" transform="matrix(-1 0 0 1 33.739 16.888)" width="16.8626"/><rect height="33.726" opacity=".6" rx="2.59574" transform="matrix(0 1 1 0 .012 68.51)" width="16.8626"/><rect height="33.726" opacity=".6" rx="2.59574" transform="matrix(0 1 1 0 0 33.776)" width="16.8626"/><rect height="33.726" opacity=".6" rx="2.59574" transform="matrix(0 1 1 0 0 0)" width="16.8626"/></g><rect fill="#00f701" height="16.8626" opacity=".4" rx="2.59574" transform="matrix(0 -1 1 0 -136.728 170.99)" width="34.241" x="17.131" y="153.859"/><rect fill="#fa4edf" height="16.8626" opacity=".6" rx="2.59574" transform="matrix(0 1 1 0 16.891 0)" width="34.241"/><rect fill="#fa4edf" height="16.8626" rx="2.59574" transform="matrix(-1 0 0 1 33.739 34.272)" width="16.8626"/><rect fill="#00f701" height="16.8626" rx="2.59574" transform="matrix(0 -1 1 0 -136.728 170.99)" width="16.8626" x="17.131" y="153.859"/></svg>