<svg fill="none" height="34" viewBox="0 0 295 34" width="295" xmlns="http://www.w3.org/2000/svg"><rect fill="#2abbf8" height="33.7252" rx="2.59574" width="16.8626"/><rect fill="#2abbf8" height="33.7252" opacity=".6" rx="2.59574" width="34.2403" x="34.2403"/><rect fill="#00f701" height="33.7252" opacity=".6" rx="2.59574" width="34.2403" x="106.268"/><rect fill="#fa4edf" height="33.7252" opacity=".6" rx="2.59574" width="16.8626" x="209.137"/><rect fill="#fa4edf" height="33.7252" opacity=".6" rx="2.59574" width="34.2403" x="243.233"/><rect fill="#2abbf8" height="16.8626" opacity=".6" rx="2.59574" width="85.3433"/><rect fill="#00f701" height="16.8626" rx="2.59574" width="54.6502" x="68.4812"/><rect fill="#00f701" height="16.8626" opacity=".6" rx="2.59574" width="51.103" x="106.268"/><rect fill="#ffcc02" height="16.8626" opacity=".6" rx="2.59574" width="34.2403" x="157.371"/><rect fill="#fa4edf" height="16.8626" opacity=".6" rx="2.59574" width="68.4805" x="208.993"/><rect fill="#fa4edf" height="16.8626" opacity=".6" rx="2.59574" width="34.04" x="260.096"/><rect fill="#2abbf8" height="16.8626" rx="2.59574" width="16.8626"/><rect fill="#2abbf8" height="16.8626" rx="2.59574" width="16.8626" x="34.2403"/><rect fill="#ffcc02" height="16.8626" rx="2.59574" width="16.8626" x="157.371"/><rect fill="#fa4edf" height="16.8626" rx="2.59574" width="16.8626" x="243.233"/><rect fill="#2abbf8" height="16.8626" rx="2.59574" width="16.8626" x="51.6188" y="16.8626"/><rect fill="#00f701" height="16.8626" rx="2.59574" width="16.8626" x="123.6484" y="16.8626"/><rect fill="#fa4edf" height="16.8626" rx="2.59574" width="16.8626" x="260.611" y="16.8626"/></svg>