<svg fill="none" height="226" viewBox="0 0 34 226.021" width="34" xmlns="http://www.w3.org/2000/svg"><rect fill="#00f701" height="140.507" opacity=".6" rx="2.59574" transform="matrix(-1 0 0 1 33.986 85.335)" width="16.8626"/><rect fill="#fa4edf" height="68.48" opacity=".6" rx="2.59574" transform="matrix(-1 0 0 1 33.727 0)" width="16.8626"/><rect fill="#fa4edf" height="33.986" opacity=".6" rx="2.59574" transform="matrix(0 1 1 0 0 51.616)" width="16.8626"/><rect fill="#ffcc02" height="16.8626" opacity=".4" rx="2.59574" transform="matrix(0 -1 1 0 -119.843 154.081)" width="34.24" x="17.119" y="136.962"/><rect fill="#fa4edf" height="33.725" opacity=".6" rx="2.59574" transform="matrix(0 1 1 0 0 0)" width="34.24"/><rect fill="#00f701" height="33.725" opacity=".5" rx="2.59574" transform="matrix(0 1 1 0 .257 153.825)" width="34.24"/><rect fill="#fa4edf" height="16.8626" rx="2.59574" transform="matrix(-1 0 0 1 33.727 17.378)" width="16.8626"/><rect fill="#ffcc02" height="16.8626" rx="2.59574" transform="matrix(0 -1 1 0 -119.843 154.081)" width="16.8626" x="17.119" y="136.962"/><rect fill="#00f701" height="16.8626" rx="2.59574" transform="matrix(0 1 1 0 .257 153.825)" width="16.8626"/></svg>