<svg width="34" height="205" viewBox="0 0 34 204.769" fill="none" xmlns="http://www.w3.org/2000/svg">
<rect opacity="0.6" width="16.8626" height="102.384" rx="2.59574" transform="matrix(-1 0 0 1 33.787 102.384)" fill="#2ABBF8"/>
<rect opacity="0.6" width="16.8626" height="68.482" rx="2.59574" transform="matrix(-1 0 0 1 33.739 16.888)" fill="#FA4EDF"/>
<rect opacity="0.6" width="16.8626" height="33.726" rx="2.59574" transform="matrix(0 1 1 0 0.012 68.510)" fill="#FA4EDF"/>
<rect opacity="0.6" width="16.8626" height="33.726" rx="2.59574" transform="matrix(0 1 1 0 0 33.776)" fill="#FA4EDF"/>
<rect opacity="0.6" width="16.8626" height="33.726" rx="2.59574" transform="matrix(0 1 1 0 0 0)" fill="#FA4EDF"/>
<rect opacity="0.4" x="17.131" y="153.859" width="34.241" height="16.8626" rx="2.59574" transform="rotate(-90 17.131 153.859)" fill="#00F701"/>
<rect opacity="0.6" width="34.241" height="16.8626" rx="2.59574" transform="matrix(0 1 1 0 16.891 0)" fill="#FA4EDF"/>
<rect width="16.8626" height="16.8626" rx="2.59574" transform="matrix(-1 0 0 1 33.739 34.272)" fill="#FA4EDF"/>
<rect x="17.131" y="153.859" width="16.8626" height="16.8626" rx="2.59574" transform="rotate(-90 17.131 153.859)" fill="#00F701"/>
</svg>
