<svg width="876" height="480" viewBox="-50 0 876 480" fill="none" xmlns="http://www.w3.org/2000/svg" xmlns:xlink="http://www.w3.org/1999/xlink">
<path d="M1385.16 -59.9863C1408.09 -59.4055 1426.5 -40.634 1426.5 -17.5625V265H1703.21L1704.31 265.014C1727.24 265.595 1745.65 284.366 1745.65 307.438V817H620.088C597.016 817 578.245 798.589 577.664 775.657L577.65 774.562V518H300.938L299.843 517.986C277.275 517.415 259.085 499.225 258.514 476.657L258.5 475.562V444H20.5C9.45431 444 0.5 435.046 0.5 424V72C0.5 60.9543 9.45431 52 20.5 52H258.5V-17.5625C258.5 -41 277.5 -59.9998 300.938 -60H1384.06L1385.16 -59.9863ZM1426.5 518H609.479V774.562C609.479 780.422 614.229 785.172 620.088 785.172H1713.82V307.438C1713.82 301.578 1709.07 296.828 1703.21 296.828H1426.5V518ZM290.328 475.562C290.328 481.422 295.078 486.172 300.938 486.172H577.65V444H290.328V475.562ZM652.5 424C652.5 435.046 643.546 444 632.5 444H609.479V486.172H1394.67V296.828H652.5V424ZM300.938 -28.1719C295.078 -28.1717 290.328 -23.4216 290.328 -17.5625V52H632.5C643.546 52 652.5 60.9543 652.5 72V265H1394.67V-17.5625C1394.67 -23.4217 1389.92 -28.1717 1384.06 -28.1719H300.938Z" fill="#1B1B1B"/>
<path d="M1385.16 -59.9863L1385.17 -60.4862L1385.16 -60.4863L1385.16 -59.9863ZM1426.5 -17.5625H1427V-17.5625L1426.5 -17.5625ZM1426.5 265H1426V265.5H1426.5V265ZM1703.21 265L1703.22 264.5H1703.21V265ZM1704.31 265.014L1704.32 264.514L1704.31 264.514L1704.31 265.014ZM1745.65 307.438H1746.15V307.438H1745.65ZM1745.65 817V817.5H1746.15V817H1745.65ZM620.088 817V817.5V817.5V817ZM577.664 775.657L577.164 775.663L577.164 775.67L577.664 775.657ZM577.65 774.562H577.15L577.15 774.569L577.65 774.562ZM577.65 518H578.15V517.5H577.65V518ZM300.938 518L300.931 518.5H300.938V518ZM299.843 517.986L299.83 518.486L299.837 518.486L299.843 517.986ZM258.514 476.657L258.014 476.663L258.014 476.67L258.514 476.657ZM258.5 475.562H258L258 475.569L258.5 475.562ZM258.5 444H259V443.5H258.5V444ZM20.5 444V444.5V444.5V444ZM20.5 52V51.5V51.5V52ZM258.5 52V52.5H259V52H258.5ZM258.5 -17.5625L258 -17.5625V-17.5625H258.5ZM300.938 -60V-60.5V-60.5V-60ZM1384.06 -60L1384.07 -60.5H1384.06V-60ZM1426.5 518V518.5H1427V518H1426.5ZM609.479 518V517.5H608.979V518H609.479ZM609.479 774.562H608.979V774.562H609.479ZM620.088 785.172V785.672V785.672V785.172ZM1713.82 785.172V785.672H1714.32V785.172H1713.82ZM1713.82 307.438H1714.32V307.437L1713.82 307.438ZM1703.21 296.828V296.328V296.328V296.828ZM1426.5 296.828V296.328H1426V296.828H1426.5ZM290.328 475.562H289.828V475.562H290.328ZM300.938 486.172L300.937 486.672H300.938V486.172ZM577.65 486.172V486.672H578.15V486.172H577.65ZM577.65 444H578.15V443.5H577.65V444ZM290.328 444V443.5H289.828V444H290.328ZM609.479 444V443.5H608.979V444H609.479ZM609.479 486.172H608.979V486.672H609.479V486.172ZM1394.67 486.172V486.672H1395.17V486.172H1394.67ZM1394.67 296.828H1395.17V296.328H1394.67V296.828ZM652.5 296.828V296.328H652V296.828H652.5ZM300.938 -28.1719V-28.6719H300.937L300.938 -28.1719ZM290.328 -17.5625L289.828 -17.5625V-17.5625H290.328ZM290.328 52H289.828V52.5H290.328V52ZM632.5 52V51.5V51.5V52ZM652.5 265H652V265.5H652.5V265ZM1394.67 265V265.5H1395.17V265H1394.67ZM1394.67 -17.5625H1395.17V-17.5625L1394.67 -17.5625ZM1384.06 -28.1719V-28.6719V-28.6719V-28.1719ZM1385.16 -59.9863L1385.14 -59.4865C1407.81 -58.9125 1426 -40.3621 1426 -17.5625L1426.5 -17.5625L1427 -17.5625C1427 -40.9059 1408.37 -59.8985 1385.17 -60.4862L1385.16 -59.9863ZM1426.5 -17.5625H1426V265H1426.5H1427V-17.5625H1426.5ZM1426.5 265V265.5H1703.21V265V264.5H1426.5V265ZM1703.21 265L1703.21 265.5L1704.3 265.514L1704.31 265.014L1704.31 264.514L1703.22 264.5L1703.21 265ZM1704.31 265.014L1704.29 265.514C1726.96 266.088 1745.15 284.638 1745.15 307.438H1745.65H1746.15C1746.15 284.094 1727.52 265.102 1704.32 264.514L1704.31 265.014ZM1745.65 307.438H1745.15V817H1745.65H1746.15V307.438H1745.65ZM1745.65 817V816.5H620.088V817V817.5H1745.65V817ZM620.088 817V816.5C597.288 816.5 578.738 798.306 578.164 775.645L577.664 775.657L577.164 775.67C577.752 798.872 596.745 817.5 620.088 817.5V817ZM577.664 775.657L578.164 775.651L578.15 774.556L577.65 774.562L577.15 774.569L577.164 775.663L577.664 775.657ZM577.65 774.562H578.15V518H577.65H577.15V774.562H577.65ZM577.65 518V517.5H300.938V518V518.5H577.65V518ZM300.938 518L300.944 517.5L299.849 517.486L299.843 517.986L299.837 518.486L300.931 518.5L300.938 518ZM299.843 517.986L299.855 517.487C277.554 516.922 259.578 498.946 259.014 476.645L258.514 476.657L258.014 476.67C258.592 499.504 276.996 517.908 299.83 518.486L299.843 517.986ZM258.514 476.657L259.014 476.651L259 475.556L258.5 475.562L258 475.569L258.014 476.663L258.514 476.657ZM258.5 475.562H259V444H258.5H258V475.562H258.5ZM258.5 444V443.5H20.5V444V444.5H258.5V444ZM20.5 444V443.5C9.73046 443.5 1 434.77 1 424H0.5H0C0 435.322 9.17817 444.5 20.5 444.5V444ZM0.5 424H1V72H0.5H0V424H0.5ZM0.5 72H1C1 61.2304 9.73045 52.5 20.5 52.5V52V51.5C9.17816 51.5 0 60.6782 0 72H0.5ZM20.5 52V52.5H258.5V52V51.5H20.5V52ZM258.5 52H259V-17.5625H258.5H258V52H258.5ZM258.5 -17.5625L259 -17.5625C259 -40.7239 277.776 -59.4998 300.938 -59.5V-60V-60.5C277.224 -60.4998 258 -41.2761 258 -17.5625L258.5 -17.5625ZM300.938 -60V-59.5H1384.06V-60V-60.5H300.938V-60ZM1384.06 -60L1384.06 -59.5L1385.15 -59.4864L1385.16 -59.9863L1385.16 -60.4863L1384.07 -60.5L1384.06 -60ZM1426.5 518V517.5H609.479V518V518.5H1426.5V518ZM609.479 518H608.979V774.562H609.479H609.979V518H609.479ZM609.479 774.562H608.979C608.979 780.698 613.953 785.672 620.088 785.672V785.172V784.672C614.505 784.672 609.979 780.146 609.979 774.562H609.479ZM620.088 785.172V785.672H1713.82V785.172V784.672H620.088V785.172ZM1713.82 785.172H1714.32V307.438H1713.82H1713.32V785.172H1713.82ZM1713.82 307.438L1714.32 307.437C1714.32 301.302 1709.35 296.328 1703.21 296.328V296.828V297.328C1708.8 297.328 1713.32 301.854 1713.32 307.438L1713.82 307.438ZM1703.21 296.828V296.328H1426.5V296.828V297.328H1703.21V296.828ZM1426.5 296.828H1426V518H1426.5H1427V296.828H1426.5ZM290.328 475.562H289.828C289.828 481.698 294.802 486.672 300.937 486.672L300.938 486.172L300.938 485.672C295.354 485.672 290.828 481.146 290.828 475.562H290.328ZM300.938 486.172V486.672H577.65V486.172V485.672H300.938V486.172ZM577.65 486.172H578.15V444H577.65H577.15V486.172H577.65ZM577.65 444V443.5H290.328V444V444.5H577.65V444ZM290.328 444H289.828V475.562H290.328H290.828V444H290.328ZM652.5 424H652C652 434.77 643.27 443.5 632.5 443.5V444V444.5C643.822 444.5 653 435.322 653 424H652.5ZM632.5 444V443.5H609.479V444V444.5H632.5V444ZM609.479 444H608.979V486.172H609.479H609.979V444H609.479ZM609.479 486.172V486.672H1394.67V486.172V485.672H609.479V486.172ZM1394.67 486.172H1395.17V296.828H1394.67H1394.17V486.172H1394.67ZM1394.67 296.828V296.328H652.5V296.828V297.328H1394.67V296.828ZM652.5 296.828H652V424H652.5H653V296.828H652.5ZM300.938 -28.1719L300.937 -28.6719C294.802 -28.6717 289.828 -23.6978 289.828 -17.5625L290.328 -17.5625L290.828 -17.5625C290.828 -23.1455 295.354 -27.6717 300.938 -27.6719L300.938 -28.1719ZM290.328 -17.5625H289.828V52H290.328H290.828V-17.5625H290.328ZM290.328 52V52.5H632.5V52V51.5H290.328V52ZM632.5 52V52.5C643.27 52.5 652 61.2305 652 72H652.5H653C653 60.6782 643.822 51.5 632.5 51.5V52ZM652.5 72H652V265H652.5H653V72H652.5ZM652.5 265V265.5H1394.67V265V264.5H652.5V265ZM1394.67 265H1395.17V-17.5625H1394.67H1394.17V265H1394.67ZM1394.67 -17.5625L1395.17 -17.5625C1395.17 -23.6978 1390.2 -28.6717 1384.06 -28.6719V-28.1719V-27.6719C1389.65 -27.6717 1394.17 -23.1455 1394.17 -17.5625L1394.67 -17.5625ZM1384.06 -28.1719V-28.6719H300.938V-28.1719V-27.6719H1384.06V-28.1719Z" fill="#323232" fill-opacity="0.8"/>
<path d="M273.044 100.328H583.41C585.326 100.328 586.88 101.882 586.88 103.798V290.843C586.88 292.759 585.326 294.312 583.41 294.312H273.044C271.128 294.312 269.574 292.759 269.574 290.843V103.798C269.574 101.882 271.128 100.328 273.044 100.328Z" fill="#232323" stroke="#3d3d3d"/>
<path d="M309.653 124.906V124.858L309.941 124.138L312.989 116.254H314.441L317.501 124.138L317.801 124.858V124.906H316.217L316.193 124.858L315.929 124.138L315.461 122.902H311.969L311.501 124.138L311.225 124.858L311.201 124.906H309.653ZM312.461 121.594H314.981L313.721 118.246L312.461 121.594ZM322.017 125.026C321.449 125.026 320.905 124.934 320.385 124.75C319.873 124.566 319.413 124.29 319.005 123.922C318.605 123.554 318.289 123.09 318.057 122.53C317.825 121.97 317.709 121.318 317.709 120.574C317.709 119.83 317.825 119.182 318.057 118.63C318.297 118.07 318.617 117.606 319.017 117.238C319.425 116.87 319.885 116.594 320.397 116.41C320.917 116.226 321.457 116.134 322.017 116.134C322.689 116.134 323.285 116.242 323.805 116.458C324.333 116.666 324.765 116.962 325.101 117.346C325.445 117.73 325.673 118.182 325.785 118.702L324.321 119.11H324.285C324.181 118.646 323.929 118.254 323.529 117.934C323.129 117.606 322.617 117.442 321.993 117.442C321.457 117.442 320.981 117.566 320.565 117.814C320.149 118.054 319.821 118.41 319.581 118.882C319.349 119.346 319.233 119.91 319.233 120.574C319.233 121.198 319.349 121.746 319.581 122.218C319.813 122.69 320.137 123.058 320.553 123.322C320.969 123.586 321.457 123.718 322.017 123.718C322.585 123.718 323.053 123.63 323.421 123.454C323.797 123.278 324.089 123.062 324.297 122.806V121.618H322.137V120.31H325.785V123.322C325.417 123.794 325.005 124.154 324.549 124.402C324.093 124.65 323.641 124.818 323.193 124.906C322.753 124.986 322.361 125.026 322.017 125.026ZM326.843 124.906V116.254H332.651V117.562H328.331V119.698H331.799V121.006H328.331V123.598H332.651V124.906H326.843ZM338.966 124.906L335.042 118.558L335.078 124.138V124.906H333.59V116.254H335.27L339.194 122.602L339.158 117.022V116.254H340.646V124.906H338.966ZM344.007 124.906V117.562H341.331V116.254H348.147V117.562H345.495V124.906H344.007ZM352.094 124.906V118.834H350.222V117.706C350.718 117.698 351.114 117.654 351.41 117.574C351.706 117.486 351.934 117.338 352.094 117.13C352.254 116.922 352.37 116.63 352.442 116.254H353.582V124.906H352.094Z" fill="#e6e6e6"/>
<path d="M270.46 140.922H586.382" stroke="#3d3d3d"/>
<path d="M286.046 166.069C284.343 166.069 282.953 164.98 282.825 163.509L283.949 163.254H283.995C284.088 164.285 284.98 165.015 286.046 165.015C287.134 165.015 287.829 164.482 287.829 163.706C287.829 163.011 287.354 162.606 286.671 162.409L285.177 161.969C284.076 161.656 283.15 161.088 283.15 159.745C283.15 158.389 284.343 157.486 285.988 157.486C287.563 157.486 288.802 158.366 288.941 159.617L287.841 159.884H287.795C287.644 159.084 286.972 158.54 285.988 158.54C284.98 158.54 284.389 158.98 284.389 159.687C284.389 160.312 284.841 160.636 285.49 160.822L287.019 161.262C288.142 161.586 289.069 162.189 289.069 163.648C289.069 165.108 287.852 166.069 286.046 166.069ZM290.322 168.235C289.905 168.235 289.535 168.142 289.326 168.015L289.674 167.077C289.824 167.181 290.056 167.227 290.287 167.227C290.739 167.227 291.203 166.926 291.434 166.243L291.538 165.942L289.616 160.729L289.349 159.988V159.941H290.473L290.484 159.988L290.728 160.729L292.094 164.667L293.438 160.729L293.67 159.988L293.693 159.941H294.828V159.988L294.562 160.729L292.43 166.613C292.037 167.679 291.365 168.235 290.322 168.235ZM297.523 166.069C295.982 166.069 295.102 165.223 294.975 164.25L296.006 163.891H296.052C296.179 164.656 296.724 165.108 297.523 165.108C298.183 165.108 298.623 164.772 298.623 164.239C298.623 163.799 298.322 163.555 297.824 163.428L296.677 163.162C295.971 162.988 295.172 162.652 295.172 161.575C295.172 160.59 296.063 159.826 297.349 159.826C298.612 159.826 299.446 160.474 299.654 161.401L298.612 161.714H298.565C298.461 161.077 297.975 160.729 297.349 160.729C296.724 160.729 296.33 161.1 296.33 161.494C296.33 161.887 296.631 162.084 297.083 162.2L298.114 162.455C299.017 162.675 299.793 163.011 299.793 164.227C299.793 165.27 298.867 166.069 297.523 166.069ZM302.967 166.069C301.948 166.069 301.206 165.467 301.206 164.216V160.891H300.129V159.941C301.183 159.941 301.253 159.837 301.253 158.54H302.318V159.941H303.893V160.891H302.318V164.146C302.318 164.818 302.712 165.084 303.152 165.084C303.372 165.084 303.581 165.061 303.812 164.911V165.872C303.662 165.988 303.291 166.069 302.967 166.069ZM305.342 163.115C305.411 164.355 306.13 165.096 307.195 165.096C308.029 165.096 308.539 164.748 308.759 163.972L309.871 164.297C309.547 165.374 308.608 166.069 307.172 166.069C305.446 166.069 304.218 164.772 304.218 162.942C304.218 161.123 305.423 159.826 307.126 159.826C309.512 159.826 310.022 161.83 309.871 163.115H305.342ZM307.126 160.718C306.176 160.718 305.574 161.308 305.4 162.27H308.701C308.643 161.343 308.052 160.718 307.126 160.718ZM310.923 165.953V159.941H312.035V160.833C312.417 160.301 313.065 159.826 313.911 159.826C314.861 159.826 315.486 160.277 315.753 160.984C316.204 160.231 316.946 159.826 317.745 159.826C319.031 159.826 319.818 160.671 319.818 161.876V165.953H318.695V162.189C318.695 161.111 318.127 160.81 317.513 160.81C316.737 160.81 316.1 161.459 315.926 162.304V165.953H314.803V162.189C314.803 161.111 314.235 160.81 313.645 160.81C312.834 160.81 312.22 161.494 312.035 162.316V165.953H310.923ZM323.468 165.953V157.602H326.897C328.542 157.602 329.55 158.563 329.55 160.057C329.55 161.528 328.542 162.536 326.897 162.536H324.673V165.953H323.468ZM324.673 161.482H326.758C327.743 161.482 328.31 160.926 328.31 160.057C328.31 159.2 327.743 158.656 326.758 158.656H324.673V161.482ZM330.401 165.953V159.941H331.513V160.914C331.861 160.277 332.509 159.826 333.239 159.826C333.39 159.826 333.494 159.826 333.598 159.849V160.938C332.312 160.706 331.698 161.679 331.513 162.432V165.953H330.401ZM336.696 166.069C334.959 166.069 333.708 164.737 333.708 162.942C333.708 161.158 334.959 159.826 336.696 159.826C338.422 159.826 339.696 161.158 339.696 162.942C339.696 164.737 338.422 166.069 336.696 166.069ZM336.696 165.084C337.774 165.084 338.538 164.181 338.538 162.942C338.538 161.702 337.762 160.81 336.696 160.81C335.619 160.81 334.866 161.702 334.866 162.942C334.866 164.181 335.619 165.084 336.696 165.084ZM340.717 165.953V159.941H341.829V160.833C342.212 160.301 342.86 159.826 343.706 159.826C344.656 159.826 345.281 160.277 345.548 160.984C345.999 160.231 346.741 159.826 347.54 159.826C348.826 159.826 349.613 160.671 349.613 161.876V165.953H348.49V162.189C348.49 161.111 347.922 160.81 347.308 160.81C346.532 160.81 345.895 161.459 345.721 162.304V165.953H344.598V162.189C344.598 161.111 344.03 160.81 343.439 160.81C342.629 160.81 342.015 161.494 341.829 162.316V165.953H340.717ZM350.898 168.119V159.941H352.01V160.81C352.357 160.243 353.133 159.826 353.967 159.826C355.566 159.826 356.759 161.146 356.759 162.953C356.759 164.76 355.566 166.069 353.933 166.069C353.133 166.069 352.357 165.652 352.01 165.084V168.119H350.898ZM353.77 165.084C354.848 165.084 355.601 164.227 355.601 162.965C355.601 161.679 354.848 160.81 353.805 160.81C352.809 160.81 352.091 161.552 352.01 162.571V163.347C352.091 164.366 352.809 165.084 353.77 165.084ZM359.887 166.069C358.868 166.069 358.126 165.467 358.126 164.216V160.891H357.049V159.941C358.103 159.941 358.173 159.837 358.173 158.54H359.238V159.941H360.814V160.891H359.238V164.146C359.238 164.818 359.632 165.084 360.072 165.084C360.292 165.084 360.501 165.061 360.733 164.911V165.872C360.582 165.988 360.211 166.069 359.887 166.069Z" fill="#b3b3b3"/>
<rect x="560.005" y="158.945" width="13.7871" height="4.50586" rx="2.25293" stroke="#3d3d3d"/>
<path d="M286.463 190.835C284.551 190.835 283.254 189.723 283.254 187.811V182.367H284.459V187.869C284.459 189.074 285.269 189.781 286.463 189.781C287.656 189.781 288.478 189.074 288.478 187.869V182.367H289.683V187.811C289.683 189.723 288.374 190.835 286.463 190.835ZM293.089 190.835C291.548 190.835 290.668 189.989 290.54 189.016L291.571 188.657H291.618C291.745 189.421 292.29 189.873 293.089 189.873C293.749 189.873 294.189 189.537 294.189 189.004C294.189 188.564 293.888 188.321 293.39 188.194L292.243 187.927C291.537 187.753 290.737 187.418 290.737 186.34C290.737 185.356 291.629 184.591 292.915 184.591C294.178 184.591 295.012 185.24 295.22 186.167L294.178 186.479H294.131C294.027 185.842 293.541 185.495 292.915 185.495C292.29 185.495 291.896 185.865 291.896 186.259C291.896 186.653 292.197 186.85 292.649 186.966L293.68 187.221C294.583 187.441 295.359 187.777 295.359 188.993C295.359 190.035 294.432 190.835 293.089 190.835ZM297.141 187.881C297.211 189.12 297.929 189.862 298.994 189.862C299.828 189.862 300.338 189.514 300.558 188.738L301.67 189.062C301.346 190.14 300.408 190.835 298.971 190.835C297.245 190.835 296.017 189.537 296.017 187.707C296.017 185.889 297.222 184.591 298.925 184.591C301.311 184.591 301.821 186.595 301.67 187.881H297.141ZM298.925 185.483C297.975 185.483 297.373 186.074 297.199 187.035H300.5C300.442 186.109 299.852 185.483 298.925 185.483ZM302.722 190.719V184.707H303.834V185.68C304.181 185.043 304.83 184.591 305.559 184.591C305.71 184.591 305.814 184.591 305.919 184.614V185.703C304.633 185.472 304.019 186.445 303.834 187.197V190.719H302.722ZM308.82 190.719V182.367H312.249C313.893 182.367 314.901 183.329 314.901 184.823C314.901 186.294 313.893 187.302 312.249 187.302H310.025V190.719H308.82ZM310.025 186.248H312.11C313.094 186.248 313.662 185.692 313.662 184.823C313.662 183.966 313.094 183.421 312.11 183.421H310.025V186.248ZM315.753 190.719V184.707H316.865V185.68C317.212 185.043 317.861 184.591 318.59 184.591C318.741 184.591 318.845 184.591 318.95 184.614V185.703C317.664 185.472 317.05 186.445 316.865 187.197V190.719H315.753ZM322.048 190.835C320.31 190.835 319.059 189.503 319.059 187.707C319.059 185.923 320.31 184.591 322.048 184.591C323.774 184.591 325.048 185.923 325.048 187.707C325.048 189.503 323.774 190.835 322.048 190.835ZM322.048 189.85C323.125 189.85 323.889 188.947 323.889 187.707C323.889 186.468 323.113 185.576 322.048 185.576C320.971 185.576 320.218 186.468 320.218 187.707C320.218 188.947 320.971 189.85 322.048 189.85ZM326.069 190.719V184.707H327.181V185.599C327.563 185.066 328.212 184.591 329.057 184.591C330.007 184.591 330.633 185.043 330.899 185.75C331.351 184.997 332.092 184.591 332.891 184.591C334.177 184.591 334.965 185.437 334.965 186.641V190.719H333.841V186.954C333.841 185.877 333.274 185.576 332.66 185.576C331.884 185.576 331.246 186.224 331.073 187.07V190.719H329.949V186.954C329.949 185.877 329.382 185.576 328.791 185.576C327.98 185.576 327.366 186.259 327.181 187.082V190.719H326.069ZM336.249 192.885V184.707H337.361V185.576C337.709 185.008 338.485 184.591 339.319 184.591C340.917 184.591 342.11 185.912 342.11 187.719C342.11 189.526 340.917 190.835 339.284 190.835C338.485 190.835 337.709 190.418 337.361 189.85V192.885H336.249ZM339.122 189.85C340.199 189.85 340.952 188.993 340.952 187.73C340.952 186.445 340.199 185.576 339.157 185.576C338.161 185.576 337.442 186.317 337.361 187.336V188.113C337.442 189.132 338.161 189.85 339.122 189.85ZM345.238 190.835C344.219 190.835 343.478 190.232 343.478 188.981V185.657H342.401V184.707C343.455 184.707 343.524 184.603 343.524 183.306H344.59V184.707H346.165V185.657H344.59V188.912C344.59 189.584 344.984 189.85 345.424 189.85C345.644 189.85 345.852 189.827 346.084 189.676V190.638C345.933 190.753 345.563 190.835 345.238 190.835Z" fill="#b3b3b3"/>
<rect x="560.005" y="183.719" width="13.7871" height="4.50586" rx="2.25293" stroke="#3d3d3d"/>
<path d="M283.323 265.578V257.227H288.802V258.281H284.528V260.632H287.957V261.698H284.528V264.524H288.802V265.578H283.323ZM289.725 265.578V259.566H290.836V260.539C291.184 259.902 291.833 259.451 292.562 259.451C292.713 259.451 292.817 259.451 292.921 259.474V260.563C291.636 260.331 291.022 261.304 290.836 262.057V265.578H289.725ZM293.718 265.578V259.566H294.83V260.539C295.177 259.902 295.826 259.451 296.555 259.451C296.706 259.451 296.81 259.451 296.914 259.474V260.563C295.629 260.331 295.015 261.304 294.83 262.057V265.578H293.718ZM300.013 265.694C298.275 265.694 297.024 264.362 297.024 262.567C297.024 260.783 298.275 259.451 300.013 259.451C301.739 259.451 303.013 260.783 303.013 262.567C303.013 264.362 301.739 265.694 300.013 265.694ZM300.013 264.709C301.09 264.709 301.854 263.806 301.854 262.567C301.854 261.327 301.078 260.435 300.013 260.435C298.935 260.435 298.183 261.327 298.183 262.567C298.183 263.806 298.935 264.709 300.013 264.709ZM304.034 265.578V259.566H305.146V260.539C305.493 259.902 306.142 259.451 306.872 259.451C307.022 259.451 307.126 259.451 307.231 259.474V260.563C305.945 260.331 305.331 261.304 305.146 262.057V265.578H304.034Z" fill="#b3b3b3"/>
<rect x="560.005" y="258.57" width="13.7871" height="4.50586" rx="2.25293" stroke="#3d3d3d"/>
<path d="M283.323 216.344V207.992H284.795L287.1 213.39C287.47 214.236 287.667 214.977 287.667 214.977C287.667 214.977 287.852 214.236 288.223 213.39L290.505 207.992H291.964V216.344H290.76V211.606C290.76 210.68 290.829 209.892 290.829 209.892C290.829 209.892 290.575 210.645 290.204 211.479L288.13 216.344H287.181L285.096 211.479C284.725 210.645 284.459 209.904 284.459 209.904C284.459 209.904 284.528 210.68 284.528 211.606V216.344H283.323ZM295.974 216.46C294.237 216.46 292.986 215.128 292.986 213.332C292.986 211.548 294.237 210.216 295.974 210.216C297.7 210.216 298.974 211.548 298.974 213.332C298.974 215.128 297.7 216.46 295.974 216.46ZM295.974 215.475C297.052 215.475 297.816 214.572 297.816 213.332C297.816 212.093 297.04 211.201 295.974 211.201C294.897 211.201 294.144 212.093 294.144 213.332C294.144 214.572 294.897 215.475 295.974 215.475ZM302.497 216.46C300.864 216.46 299.671 215.139 299.671 213.332C299.671 211.525 300.864 210.216 302.497 210.216C303.308 210.216 304.084 210.633 304.42 211.201V207.876H305.544V216.344H304.42V215.463C304.084 216.031 303.308 216.46 302.497 216.46ZM302.66 215.475C303.633 215.475 304.339 214.734 304.42 213.714V212.938C304.351 211.919 303.633 211.201 302.66 211.201C301.594 211.201 300.829 212.058 300.829 213.321C300.829 214.606 301.594 215.475 302.66 215.475ZM307.684 213.506C307.753 214.745 308.471 215.487 309.537 215.487C310.371 215.487 310.88 215.139 311.101 214.363L312.213 214.687C311.888 215.765 310.95 216.46 309.514 216.46C307.788 216.46 306.56 215.162 306.56 213.332C306.56 211.514 307.765 210.216 309.467 210.216C311.853 210.216 312.363 212.22 312.213 213.506H307.684ZM309.467 211.108C308.517 211.108 307.915 211.699 307.741 212.66H311.043C310.985 211.734 310.394 211.108 309.467 211.108ZM314.376 215.602V216.297V216.344H313.264V207.876H314.376V215.602Z" fill="#b3b3b3"/>
<path d="M542.567 218.626C540.852 218.626 539.752 218.081 539.752 216.853C539.752 216.378 540.018 215.915 540.378 215.626C540.1 215.429 539.937 215.151 539.937 214.78C539.937 214.247 540.343 213.842 540.771 213.599C540.412 213.251 540.204 212.776 540.204 212.209C540.204 211.016 541.107 210.216 542.462 210.216C542.891 210.216 543.285 210.297 543.609 210.448L545.381 210.321V211.282H544.524C544.663 211.548 544.744 211.861 544.744 212.209C544.744 213.39 543.829 214.201 542.462 214.201C542.103 214.201 541.767 214.143 541.478 214.039C541.223 214.178 541.049 214.386 541.049 214.629C541.049 214.931 541.293 215.046 541.779 215.046H543.517C544.71 215.046 545.532 215.602 545.532 216.645C545.532 217.954 544.339 218.626 542.567 218.626ZM541.316 215.95C540.98 216.17 540.876 216.494 540.876 216.761C540.876 217.409 541.536 217.699 542.567 217.699C543.818 217.699 544.397 217.305 544.397 216.68C544.397 216.17 544.049 215.973 543.412 215.973H541.814C541.64 215.973 541.466 215.962 541.316 215.95ZM542.462 213.286C543.192 213.286 543.656 212.846 543.656 212.209C543.656 211.56 543.192 211.131 542.462 211.131C541.744 211.131 541.293 211.56 541.293 212.209C541.293 212.846 541.744 213.286 542.462 213.286ZM546.289 218.51V210.332H547.401V211.201C547.748 210.633 548.524 210.216 549.358 210.216C550.957 210.216 552.15 211.537 552.15 213.344C552.15 215.151 550.957 216.46 549.324 216.46C548.524 216.46 547.748 216.043 547.401 215.475V218.51H546.289ZM549.162 215.475C550.239 215.475 550.992 214.618 550.992 213.355C550.992 212.07 550.239 211.201 549.196 211.201C548.2 211.201 547.482 211.942 547.401 212.961V213.738C547.482 214.757 548.2 215.475 549.162 215.475ZM555.278 216.46C554.259 216.46 553.517 215.857 553.517 214.606V211.282H552.44V210.332C553.494 210.332 553.564 210.228 553.564 208.931H554.629V210.332H556.205V211.282H554.629V214.537C554.629 215.209 555.023 215.475 555.463 215.475C555.683 215.475 555.892 215.452 556.124 215.301V216.263C555.973 216.378 555.602 216.46 555.278 216.46ZM556.295 213.819V212.834H559.851V213.819H556.295ZM564.944 216.344V214.363H560.589V213.297L564.782 207.992H566.149V213.309H567.307V214.363H566.149V216.344H564.944ZM561.875 213.309H564.944V209.405L561.875 213.309ZM570.943 216.46C569.205 216.46 567.954 215.128 567.954 213.332C567.954 211.548 569.205 210.216 570.943 210.216C572.669 210.216 573.943 211.548 573.943 213.332C573.943 215.128 572.669 216.46 570.943 216.46ZM570.943 215.475C572.02 215.475 572.785 214.572 572.785 213.332C572.785 212.093 572.008 211.201 570.943 211.201C569.866 211.201 569.113 212.093 569.113 213.332C569.113 214.572 569.866 215.475 570.943 215.475Z" fill="#e6e6e6"/>
<path d="M285.327 239.953V232.656H282.698V231.602H289.15V232.656H286.532V239.953H285.327ZM289.313 237.115C289.383 238.355 290.101 239.096 291.167 239.096C292.001 239.096 292.51 238.748 292.73 237.972L293.842 238.297C293.518 239.374 292.58 240.069 291.144 240.069C289.418 240.069 288.19 238.772 288.19 236.942C288.19 235.123 289.394 233.826 291.097 233.826C293.483 233.826 293.993 235.83 293.842 237.115H289.313ZM291.097 234.718C290.147 234.718 289.545 235.308 289.371 236.27H292.673C292.615 235.343 292.024 234.718 291.097 234.718ZM294.894 239.953V233.941H296.006V234.833C296.388 234.301 297.037 233.826 297.882 233.826C298.832 233.826 299.458 234.277 299.724 234.984C300.176 234.231 300.917 233.826 301.716 233.826C303.002 233.826 303.79 234.671 303.79 235.876V239.953H302.666V236.189C302.666 235.111 302.099 234.81 301.485 234.81C300.709 234.81 300.072 235.459 299.898 236.304V239.953H298.774V236.189C298.774 235.111 298.207 234.81 297.616 234.81C296.805 234.81 296.191 235.494 296.006 236.316V239.953H294.894ZM305.074 242.119V233.941H306.186V234.81C306.534 234.243 307.31 233.826 308.144 233.826C309.742 233.826 310.935 235.146 310.935 236.953C310.935 238.76 309.742 240.069 308.109 240.069C307.31 240.069 306.534 239.652 306.186 239.084V242.119H305.074ZM307.947 239.084C309.024 239.084 309.777 238.227 309.777 236.965C309.777 235.679 309.024 234.81 307.982 234.81C306.986 234.81 306.267 235.552 306.186 236.571V237.347C306.267 238.366 306.986 239.084 307.947 239.084ZM312.762 237.115C312.832 238.355 313.55 239.096 314.616 239.096C315.45 239.096 315.959 238.748 316.179 237.972L317.291 238.297C316.967 239.374 316.029 240.069 314.593 240.069C312.867 240.069 311.639 238.772 311.639 236.942C311.639 235.123 312.844 233.826 314.546 233.826C316.932 233.826 317.442 235.83 317.291 237.115H312.762ZM314.546 234.718C313.596 234.718 312.994 235.308 312.82 236.27H316.122C316.064 235.343 315.473 234.718 314.546 234.718ZM318.343 239.953V233.941H319.455V234.914C319.802 234.277 320.451 233.826 321.181 233.826C321.331 233.826 321.436 233.826 321.54 233.849V234.938C320.254 234.706 319.64 235.679 319.455 236.432V239.953H318.343ZM323.847 240.069C322.643 240.069 321.774 239.362 321.774 238.331C321.774 237.289 322.55 236.664 323.836 236.478L325.735 236.2V235.98C325.735 235.146 325.168 234.729 324.426 234.729C323.558 234.729 323.083 235.192 322.921 235.864L321.866 235.563C322.144 234.648 322.967 233.826 324.426 233.826C325.84 233.826 326.847 234.625 326.847 236.015V239.953H325.724V239.05C325.295 239.756 324.565 240.069 323.847 240.069ZM325.724 237.857V237.034L324.009 237.312C323.326 237.428 322.932 237.729 322.932 238.297C322.932 238.818 323.372 239.189 324.009 239.189C324.936 239.189 325.515 238.54 325.724 237.857ZM330.284 240.069C329.265 240.069 328.524 239.467 328.524 238.216V234.891H327.447V233.941C328.501 233.941 328.57 233.837 328.57 232.54H329.636V233.941H331.211V234.891H329.636V238.146C329.636 238.818 330.03 239.084 330.47 239.084C330.69 239.084 330.898 239.061 331.13 238.911V239.872C330.979 239.988 330.609 240.069 330.284 240.069ZM334.265 240.069C332.956 240.069 332.017 239.258 332.017 237.949V233.941H333.141V237.683C333.141 238.656 333.72 239.084 334.496 239.084C335.295 239.084 335.932 238.413 336.129 237.579V233.941H337.253V239.953H336.129V239.073C335.747 239.617 335.087 240.069 334.265 240.069ZM338.579 239.953V233.941H339.691V234.914C340.039 234.277 340.688 233.826 341.417 233.826C341.568 233.826 341.672 233.826 341.776 233.849V234.938C340.491 234.706 339.877 235.679 339.691 236.432V239.953H338.579ZM343.01 237.115C343.079 238.355 343.797 239.096 344.863 239.096C345.697 239.096 346.207 238.748 346.427 237.972L347.539 238.297C347.214 239.374 346.276 240.069 344.84 240.069C343.114 240.069 341.886 238.772 341.886 236.942C341.886 235.123 343.091 233.826 344.794 233.826C347.18 233.826 347.689 235.83 347.539 237.115H343.01ZM344.794 234.718C343.844 234.718 343.241 235.308 343.068 236.27H346.369C346.311 235.343 345.72 234.718 344.794 234.718Z" fill="#b3b3b3"/>
<path d="M572.261 238.953V232.93H570.466V232.015C571.995 231.992 572.354 231.783 572.528 230.602H573.466V238.953H572.261Z" fill="#e6e6e6"/>
<rect x="282.594" y="111.047" width="19.8568" height="19.8568" rx="4.96419" fill="#701FFC"/>
<g clip-path="url(#clip0_3327_13968)">
<path d="M292.526 115.188C293.241 115.188 293.821 115.768 293.822 116.483C293.822 117.076 293.424 117.574 292.881 117.729V118.965H295.358C296.594 118.965 297.597 119.967 297.597 121.203V124.031C297.597 125.267 296.594 126.269 295.358 126.27H289.7C288.464 126.27 287.461 125.267 287.461 124.031V121.203C287.461 119.967 288.464 118.965 289.7 118.965H292.174V117.729C291.629 117.576 291.229 117.077 291.229 116.483C291.229 115.768 291.81 115.188 292.526 115.188ZM289.7 119.672C288.854 119.672 288.168 120.357 288.168 121.203V124.031C288.168 124.877 288.854 125.562 289.7 125.562H295.358C296.204 125.562 296.89 124.877 296.89 124.031V121.203C296.89 120.357 296.204 119.672 295.358 119.672H289.7ZM291.114 121.791C291.309 121.791 291.467 121.949 291.467 122.145V123.087C291.467 123.282 291.309 123.44 291.114 123.44C290.918 123.44 290.76 123.282 290.76 123.087V122.145C290.76 121.949 290.918 121.791 291.114 121.791ZM293.942 121.791C294.137 121.791 294.296 121.949 294.296 122.145V123.087C294.296 123.282 294.137 123.44 293.942 123.44C293.747 123.44 293.588 123.282 293.588 123.087V122.145C293.588 121.949 293.747 121.791 293.942 121.791ZM292.526 115.895C292.2 115.895 291.936 116.158 291.936 116.483C291.936 116.809 292.2 117.072 292.526 117.072C292.851 117.072 293.115 116.809 293.115 116.483C293.114 116.158 292.851 115.895 292.526 115.895Z" fill="white"/>
<path d="M292.526 115.188L292.526 115.062H292.526V115.188ZM293.822 116.483H293.947V116.483L293.822 116.483ZM292.881 117.729L292.847 117.608C292.793 117.624 292.756 117.673 292.756 117.729H292.881ZM292.881 118.965H292.756C292.756 119.034 292.812 119.09 292.881 119.09V118.965ZM295.358 118.965L295.358 118.84H295.358V118.965ZM297.597 121.203H297.722V121.203L297.597 121.203ZM297.597 124.031L297.722 124.031V124.031H297.597ZM295.358 126.27V126.395H295.358L295.358 126.27ZM289.7 126.27L289.7 126.395H289.7V126.27ZM287.461 124.031H287.336V124.031L287.461 124.031ZM287.461 121.203L287.336 121.203V121.203H287.461ZM289.7 118.965V118.84H289.7L289.7 118.965ZM292.174 118.965V119.09C292.243 119.09 292.299 119.034 292.299 118.965H292.174ZM292.174 117.729H292.299C292.299 117.673 292.262 117.624 292.208 117.609L292.174 117.729ZM291.229 116.483L291.104 116.483V116.483H291.229ZM289.7 119.672V119.547H289.7L289.7 119.672ZM288.168 121.203L288.043 121.203V121.203H288.168ZM288.168 124.031H288.043V124.031L288.168 124.031ZM289.7 125.562L289.7 125.688H289.7V125.562ZM295.358 125.562V125.688H295.358L295.358 125.562ZM296.89 124.031L297.015 124.031V124.031H296.89ZM296.89 121.203H297.015V121.203L296.89 121.203ZM295.358 119.672L295.358 119.547H295.358V119.672ZM291.114 121.791V121.666H291.114L291.114 121.791ZM291.467 123.087L291.592 123.087V123.087H291.467ZM291.114 123.44L291.114 123.565H291.114V123.44ZM290.76 123.087H290.635V123.087L290.76 123.087ZM293.942 121.791V121.666H293.941L293.942 121.791ZM294.296 123.087L294.421 123.087V123.087H294.296ZM293.942 123.44L293.941 123.565H293.942V123.44ZM293.588 123.087H293.463V123.087L293.588 123.087ZM292.526 115.895L292.526 115.77H292.526V115.895ZM291.936 116.483L291.811 116.483V116.483H291.936ZM292.526 117.072V117.197H292.526L292.526 117.072ZM293.115 116.483H293.24V116.483L293.115 116.483ZM292.526 115.188L292.526 115.312C293.172 115.313 293.696 115.837 293.697 116.483L293.822 116.483L293.947 116.483C293.946 115.699 293.31 115.063 292.526 115.063L292.526 115.188ZM293.822 116.483H293.697C293.697 117.018 293.338 117.468 292.847 117.608L292.881 117.729L292.915 117.849C293.51 117.679 293.947 117.133 293.947 116.483H293.822ZM292.881 117.729H292.756V118.965H292.881H293.006V117.729H292.881ZM292.881 118.965V119.09H295.358V118.965V118.84H292.881V118.965ZM295.358 118.965L295.358 119.09C296.525 119.09 297.472 120.036 297.472 121.203L297.597 121.203L297.722 121.203C297.722 119.898 296.663 118.84 295.358 118.84L295.358 118.965ZM297.597 121.203H297.472V124.031H297.597H297.722V121.203H297.597ZM297.597 124.031L297.472 124.031C297.472 125.198 296.525 126.144 295.358 126.145L295.358 126.27L295.358 126.395C296.663 126.394 297.722 125.337 297.722 124.031L297.597 124.031ZM295.358 126.27V126.145H289.7V126.27V126.395H295.358V126.27ZM289.7 126.27L289.7 126.145C288.533 126.145 287.586 125.198 287.586 124.031L287.461 124.031L287.336 124.031C287.336 125.337 288.395 126.395 289.7 126.395L289.7 126.27ZM287.461 124.031H287.586V121.203H287.461H287.336V124.031H287.461ZM287.461 121.203L287.586 121.203C287.586 120.036 288.533 119.09 289.7 119.09L289.7 118.965L289.7 118.84C288.395 118.84 287.336 119.898 287.336 121.203L287.461 121.203ZM289.7 118.965V119.09H292.174V118.965V118.84H289.7V118.965ZM292.174 118.965H292.299V117.729H292.174H292.049V118.965H292.174ZM292.174 117.729L292.208 117.609C291.715 117.471 291.354 117.02 291.354 116.483H291.229H291.104C291.104 117.135 291.543 117.682 292.14 117.85L292.174 117.729ZM291.229 116.483L291.354 116.483C291.354 115.837 291.879 115.312 292.526 115.312V115.188V115.062C291.741 115.062 291.104 115.699 291.104 116.483L291.229 116.483ZM289.7 119.672L289.7 119.547C288.785 119.547 288.043 120.288 288.043 121.203L288.168 121.203L288.293 121.203C288.293 120.426 288.923 119.797 289.7 119.797L289.7 119.672ZM288.168 121.203H288.043V124.031H288.168H288.293V121.203H288.168ZM288.168 124.031L288.043 124.031C288.043 124.946 288.785 125.687 289.7 125.688L289.7 125.562L289.7 125.438C288.923 125.437 288.293 124.808 288.293 124.031L288.168 124.031ZM289.7 125.562V125.688H295.358V125.562V125.438H289.7V125.562ZM295.358 125.562L295.358 125.688C296.273 125.687 297.015 124.946 297.015 124.031L296.89 124.031L296.765 124.031C296.765 124.808 296.135 125.437 295.358 125.438L295.358 125.562ZM296.89 124.031H297.015V121.203H296.89H296.765V124.031H296.89ZM296.89 121.203L297.015 121.203C297.015 120.288 296.273 119.547 295.358 119.547L295.358 119.672L295.358 119.797C296.135 119.797 296.765 120.426 296.765 121.203L296.89 121.203ZM295.358 119.672V119.547H289.7V119.672V119.797H295.358V119.672ZM291.114 121.791V121.916C291.24 121.916 291.342 122.018 291.342 122.145H291.467H291.592C291.592 121.88 291.378 121.666 291.114 121.666V121.791ZM291.467 122.145H291.342V123.087H291.467H291.592V122.145H291.467ZM291.467 123.087L291.342 123.087C291.342 123.213 291.24 123.315 291.114 123.315V123.44V123.565C291.378 123.565 291.592 123.351 291.592 123.087L291.467 123.087ZM291.114 123.44L291.114 123.315C290.987 123.315 290.885 123.213 290.885 123.087L290.76 123.087L290.635 123.087C290.635 123.351 290.849 123.565 291.114 123.565L291.114 123.44ZM290.76 123.087H290.885V122.145H290.76H290.635V123.087H290.76ZM290.76 122.145H290.885C290.885 122.018 290.987 121.916 291.114 121.916L291.114 121.791L291.114 121.666C290.849 121.666 290.635 121.88 290.635 122.145H290.76ZM293.942 121.791V121.916C294.068 121.916 294.171 122.019 294.171 122.145H294.296H294.421C294.421 121.88 294.206 121.666 293.942 121.666V121.791ZM294.296 122.145H294.171V123.087H294.296H294.421V122.145H294.296ZM294.296 123.087L294.171 123.087C294.171 123.213 294.068 123.315 293.942 123.315V123.44V123.565C294.206 123.565 294.421 123.352 294.421 123.087L294.296 123.087ZM293.942 123.44L293.942 123.315C293.816 123.315 293.713 123.213 293.713 123.087L293.588 123.087L293.463 123.087C293.463 123.351 293.678 123.565 293.941 123.565L293.942 123.44ZM293.588 123.087H293.713V122.145H293.588H293.463V123.087H293.588ZM293.588 122.145H293.713C293.713 122.019 293.816 121.916 293.942 121.916L293.942 121.791L293.941 121.666C293.678 121.666 293.463 121.88 293.463 122.145H293.588ZM292.526 115.895V115.77C292.131 115.77 291.811 116.089 291.811 116.483L291.936 116.483L292.061 116.483C292.061 116.227 292.269 116.02 292.526 116.02V115.895ZM291.936 116.483H291.811C291.811 116.878 292.131 117.197 292.526 117.197V117.072V116.947C292.269 116.947 292.061 116.739 292.061 116.483H291.936ZM292.526 117.072L292.526 117.197C292.92 117.197 293.24 116.878 293.24 116.483H293.115H292.99C292.99 116.739 292.782 116.947 292.526 116.947L292.526 117.072ZM293.115 116.483L293.24 116.483C293.239 116.089 292.92 115.77 292.526 115.77L292.526 115.895L292.526 116.02C292.782 116.02 292.989 116.227 292.99 116.483L293.115 116.483Z" fill="white"/>
</g>
<path opacity="0.6" d="M270.08 288.188H586.37V291.617C586.37 293.274 585.027 294.617 583.37 294.617H273.08C271.423 294.617 270.08 293.274 270.08 291.617V288.188Z" fill="#FA4EDF"/>
<path opacity="0.6" d="M308.629 288.188H586.37V291.617C586.37 293.274 585.027 294.617 583.37 294.617H311.629C309.972 294.617 308.629 293.274 308.629 291.617V288.188Z" fill="#FA4EDF"/>
<g clip-path="url(#clip1_3327_13968)">
<path d="M42.5117 257.688C42.5117 255.496 44.2888 253.719 46.481 253.719H355.542C357.735 253.719 359.512 255.496 359.512 257.688V385.749C359.512 387.942 357.735 389.719 355.542 389.719H46.481C44.2888 389.719 42.5117 387.942 42.5117 385.749V257.688Z" fill="#232323"/>
<path d="M67.3138 380.227V380.203L67.4578 379.843L69.0118 375.901H69.6178L71.1718 379.843L71.3218 380.203V380.227H70.6498L70.6378 380.203L70.5058 379.843L70.2418 379.153H68.3758L68.1118 379.843L67.9738 380.203L67.9618 380.227H67.3138ZM68.5858 378.607H70.0318L69.3118 376.729L68.5858 378.607ZM73.3705 380.287C72.2725 380.287 71.2645 379.561 71.2645 378.061C71.2645 376.567 72.2845 375.841 73.3705 375.841C74.3365 375.841 75.1045 376.381 75.2365 377.191L74.6185 377.335H74.5945C74.5105 376.771 74.0065 376.387 73.3705 376.387C72.5245 376.387 71.9065 376.981 71.9065 378.061C71.9065 379.147 72.5245 379.741 73.3705 379.741C74.0125 379.741 74.4925 379.375 74.5945 378.751L75.2365 378.847C75.0805 379.771 74.3125 380.287 73.3705 380.287ZM76.4758 380.227V376.447H75.1138V375.901H78.4558V376.447H77.0998V380.227H76.4758ZM79.4351 379.843V380.203V380.227H78.8111V375.901H79.4351V379.843ZM81.3917 380.227L79.9037 376.285L79.7657 375.925V375.901H80.4317L80.4437 375.925L80.5757 376.285L81.7037 379.399L82.8257 376.285L82.9577 375.925L82.9697 375.901H83.6237V375.925L83.4857 376.285L81.9977 380.227H81.3917ZM83.9079 380.227V375.901H86.7459V376.447H84.5319V377.665H86.3079V378.217H84.5319V379.681H86.7459V380.227H83.9079Z" fill="#e6e6e6"/>
<rect x="57.3826" y="375.406" width="4.82031" height="4.82031" rx="1" fill="#00F701"/>
<path d="M85.0442 278.472C84.4362 278.472 83.8802 278.352 83.3762 278.112C82.8802 277.872 82.4762 277.544 82.1642 277.128C81.8602 276.712 81.6842 276.248 81.6362 275.736L83.0402 275.484H83.0882C83.1202 275.804 83.2242 276.092 83.4002 276.348C83.5842 276.604 83.8202 276.804 84.1082 276.948C84.3962 277.092 84.7082 277.164 85.0442 277.164C85.5402 277.164 85.9362 277.056 86.2322 276.84C86.5362 276.624 86.6882 276.34 86.6882 275.988C86.6882 275.668 86.5842 275.412 86.3762 275.22C86.1762 275.028 85.9162 274.884 85.5962 274.788L84.1442 274.38C83.7522 274.268 83.3922 274.116 83.0642 273.924C82.7362 273.732 82.4722 273.48 82.2722 273.168C82.0802 272.856 81.9842 272.464 81.9842 271.992C81.9842 271.504 82.1122 271.08 82.3682 270.72C82.6322 270.36 82.9882 270.08 83.4362 269.88C83.8922 269.68 84.4002 269.58 84.9602 269.58C85.5122 269.58 86.0162 269.676 86.4722 269.868C86.9362 270.06 87.3162 270.328 87.6122 270.672C87.9082 271.016 88.0762 271.416 88.1162 271.872L86.7242 272.136H86.6762C86.6122 271.784 86.4282 271.488 86.1242 271.248C85.8202 271.008 85.4322 270.888 84.9602 270.888C84.5042 270.888 84.1482 270.98 83.8922 271.164C83.6362 271.34 83.5082 271.592 83.5082 271.92C83.5082 272.2 83.6002 272.42 83.7842 272.58C83.9762 272.74 84.2242 272.864 84.5282 272.952L86.0042 273.372C86.4042 273.484 86.7722 273.636 87.1082 273.828C87.4442 274.02 87.7122 274.28 87.9122 274.608C88.1122 274.936 88.2122 275.36 88.2122 275.88C88.2122 276.4 88.0762 276.856 87.8042 277.248C87.5402 277.632 87.1682 277.932 86.6882 278.148C86.2162 278.364 85.6682 278.472 85.0442 278.472ZM90.9157 278.352V271.008H88.2397V269.7H95.0557V271.008H92.4037V278.352H90.9157ZM93.825 278.352V278.304L94.113 277.584L97.161 269.7H98.613L101.673 277.584L101.973 278.304V278.352H100.389L100.365 278.304L100.101 277.584L99.633 276.348H96.141L95.673 277.584L95.397 278.304L95.373 278.352H93.825ZM96.633 275.04H99.153L97.893 271.692L96.633 275.04ZM102.557 278.352V269.7H106.229C107.085 269.7 107.761 269.932 108.257 270.396C108.753 270.852 109.001 271.48 109.001 272.28C109.001 272.768 108.877 273.2 108.629 273.576C108.389 273.952 108.057 274.244 107.633 274.452C107.945 274.604 108.177 274.8 108.329 275.04C108.481 275.28 108.609 275.588 108.713 275.964L109.157 277.572L109.337 278.304V278.352H107.729L107.237 276.252C107.133 275.756 106.921 275.396 106.601 275.172C106.281 274.948 105.801 274.836 105.161 274.836H104.045V278.352H102.557ZM104.045 273.528H106.013C106.477 273.528 106.837 273.42 107.093 273.204C107.349 272.98 107.477 272.672 107.477 272.28C107.477 271.88 107.349 271.568 107.093 271.344C106.837 271.12 106.477 271.008 106.013 271.008H104.045V273.528ZM111.942 278.352V271.008H109.266V269.7H116.082V271.008H113.43V278.352H111.942Z" fill="#e6e6e6"/>
<rect x="55.373" y="264.5" width="19.8568" height="19.8568" rx="4.96419" fill="#35B6FF"/>
<path d="M64.5671 276.195C65.0567 275.706 65.3015 275.117 65.3015 274.43C65.3015 273.742 65.0567 273.154 64.5671 272.664C64.0776 272.174 63.489 271.93 62.8015 271.93C62.114 271.93 61.5255 272.174 61.0359 272.664C60.5463 273.154 60.3015 273.742 60.3015 274.43C60.3015 275.117 60.5463 275.706 61.0359 276.195C61.5255 276.685 62.114 276.93 62.8015 276.93C63.489 276.93 64.0776 276.685 64.5671 276.195ZM62.8015 278.18C61.7598 278.18 60.8744 277.815 60.1453 277.086C59.4161 276.357 59.0515 275.471 59.0515 274.43C59.0515 273.388 59.4161 272.503 60.1453 271.773C60.8744 271.044 61.7598 270.68 62.8015 270.68C63.739 270.68 64.5542 270.977 65.2471 271.57C65.9401 272.164 66.3592 272.909 66.5046 273.805H70.9265C71.1036 273.805 71.2521 273.865 71.3721 273.985C71.4921 274.105 71.5519 274.253 71.5515 274.43C71.5511 274.606 71.4911 274.755 71.3715 274.875C71.2519 274.996 71.1036 275.056 70.9265 275.055H66.5046C66.3588 275.951 65.9394 276.695 65.2465 277.289C64.5536 277.883 63.7386 278.18 62.8015 278.18Z" fill="white"/>
<mask id="path-28-inside-1_3327_13968" fill="white">
<path d="M142.718 355.719C148.183 355.719 152.861 359.086 154.792 363.859C155.551 365.736 157.19 367.297 159.214 367.297H300.611C304.488 367.297 307.632 370.44 307.632 374.316V401.679C307.632 403.871 309.409 405.648 311.601 405.648H428.661C435.852 405.648 441.682 411.478 441.682 418.669V486.998C441.682 489.191 439.905 490.968 437.712 490.968H296.723L296.386 490.964C289.462 490.788 283.881 485.208 283.706 478.284L283.702 477.948V441.164C283.702 438.971 281.925 437.194 279.733 437.194H158.384C154.995 437.194 152.248 434.447 152.248 431.059C152.248 429.111 150.669 427.532 148.722 427.532H28.5576L28.2207 427.528C21.2971 427.353 15.7165 421.772 15.541 414.849L15.5371 414.513V368.739C15.5371 361.661 21.1854 355.901 28.2207 355.723L28.5576 355.719H142.718ZM307.632 424.175C307.632 431.366 301.802 437.194 294.611 437.194C293.979 437.194 293.467 437.707 293.467 438.339V477.948C293.467 479.746 294.925 481.203 296.723 481.203H427.947C430.139 481.203 431.916 479.426 431.916 477.234V418.669C431.916 416.871 430.459 415.413 428.661 415.413H311.601C309.409 415.413 307.632 417.19 307.632 419.382V424.175ZM28.5576 365.483C26.7599 365.483 25.3018 366.942 25.3018 368.739V414.513C25.3019 416.31 26.76 417.768 28.5576 417.768H142.004C144.197 417.768 145.974 415.99 145.974 413.798V368.739C145.974 366.942 144.515 365.483 142.718 365.483H28.5576Z"/>
</mask>
<path d="M307.632 374.316H308.132V374.316L307.632 374.316ZM296.723 490.968L296.717 491.468H296.723V490.968ZM296.386 490.964L296.373 491.464L296.38 491.464L296.386 490.964ZM283.706 478.284L283.206 478.29L283.206 478.297L283.706 478.284ZM283.702 477.948H283.202L283.202 477.954L283.702 477.948ZM158.384 437.194L158.384 437.694H158.384V437.194ZM28.5576 427.532L28.5518 428.032H28.5576V427.532ZM28.2207 427.528L28.208 428.028L28.2149 428.028L28.2207 427.528ZM15.541 414.849L15.041 414.854L15.0412 414.861L15.541 414.849ZM15.5371 414.513H15.0371L15.0371 414.519L15.5371 414.513ZM28.2207 355.723L28.2149 355.223L28.208 355.223L28.2207 355.723ZM28.5576 355.719V355.219L28.5518 355.219L28.5576 355.719ZM307.632 424.175L308.132 424.175V424.175H307.632ZM293.467 477.948H292.967V477.948L293.467 477.948ZM28.5576 365.483V364.983V365.483ZM25.3018 414.513H24.8018V414.513L25.3018 414.513ZM28.5576 417.768V418.268V417.768ZM154.792 363.859L155.255 363.672L154.792 363.859ZM142.718 355.719V356.219C147.972 356.219 152.471 359.456 154.328 364.047L154.792 363.859L155.255 363.672C153.251 358.716 148.394 355.219 142.718 355.219V355.719ZM159.214 367.297V367.797H300.611V367.297V366.797H159.214V367.297ZM300.611 367.297V367.797C304.212 367.797 307.132 370.716 307.132 374.316L307.632 374.316L308.132 374.316C308.132 370.163 304.764 366.797 300.611 366.797V367.297ZM307.632 374.316H307.132V401.679H307.632H308.132V374.316H307.632ZM311.601 405.648V406.148H428.661V405.648V405.148H311.601V405.648ZM428.661 405.648V406.148C435.576 406.148 441.182 411.754 441.182 418.669H441.682H442.182C442.182 411.202 436.128 405.148 428.661 405.148V405.648ZM441.682 418.669H441.182V486.998H441.682H442.182V418.669H441.682ZM437.712 490.968V490.468H296.723V490.968V491.468H437.712V490.968ZM296.723 490.968L296.728 490.468L296.392 490.464L296.386 490.964L296.38 491.464L296.717 491.468L296.723 490.968ZM296.386 490.964L296.398 490.464C289.741 490.295 284.375 484.929 284.206 478.272L283.706 478.284L283.206 478.297C283.388 485.487 289.183 491.281 296.373 491.464L296.386 490.964ZM283.706 478.284L284.206 478.278L284.202 477.942L283.702 477.948L283.202 477.954L283.206 478.29L283.706 478.284ZM283.702 477.948H284.202V441.164H283.702H283.202V477.948H283.702ZM279.733 437.194V436.694H158.384V437.194V437.694H279.733V437.194ZM158.384 437.194L158.384 436.694C155.271 436.694 152.748 434.171 152.748 431.059H152.248H151.748C151.748 434.724 154.719 437.694 158.384 437.694L158.384 437.194ZM148.722 427.532V427.032H28.5576V427.532V428.032H148.722V427.532ZM28.5576 427.532L28.5634 427.032L28.2265 427.028L28.2207 427.528L28.2149 428.028L28.5518 428.032L28.5576 427.532ZM28.2207 427.528L28.2334 427.028C21.576 426.86 16.2096 421.493 16.0409 414.836L15.541 414.849L15.0412 414.861C15.2234 422.051 21.0183 427.846 28.208 428.028L28.2207 427.528ZM15.541 414.849L16.041 414.843L16.0371 414.507L15.5371 414.513L15.0371 414.519L15.041 414.854L15.541 414.849ZM15.5371 414.513H16.0371V368.739H15.5371H15.0371V414.513H15.5371ZM15.5371 368.739H16.0371C16.0371 361.933 21.4686 356.394 28.2334 356.222L28.2207 355.723L28.208 355.223C20.9023 355.408 15.0371 361.389 15.0371 368.739H15.5371ZM28.2207 355.723L28.2265 356.223L28.5634 356.219L28.5576 355.719L28.5518 355.219L28.2149 355.223L28.2207 355.723ZM28.5576 355.719V356.219H142.718V355.719V355.219H28.5576V355.719ZM307.632 424.175L307.132 424.175C307.132 431.089 301.526 436.694 294.611 436.694V437.194V437.694C302.078 437.694 308.132 431.642 308.132 424.175L307.632 424.175ZM293.467 438.339H292.967V477.948H293.467H293.967V438.339H293.467ZM293.467 477.948L292.967 477.948C292.967 480.022 294.649 481.703 296.723 481.703V481.203V480.703C295.201 480.703 293.967 479.47 293.967 477.948L293.467 477.948ZM296.723 481.203V481.703H427.947V481.203V480.703H296.723V481.203ZM431.916 477.234H432.416V418.669H431.916H431.416V477.234H431.916ZM431.916 418.669H432.416C432.416 416.595 430.735 414.913 428.661 414.913V415.413V415.913C430.182 415.913 431.416 417.147 431.416 418.669H431.916ZM428.661 415.413V414.913H311.601V415.413V415.913H428.661V415.413ZM307.632 419.382H307.132V424.175H307.632H308.132V419.382H307.632ZM28.5576 365.483V364.983C26.4838 364.983 24.8018 366.665 24.8018 368.739H25.3018H25.8018C25.8018 367.218 27.0361 365.983 28.5576 365.983V365.483ZM25.3018 368.739H24.8018V414.513H25.3018H25.8018V368.739H25.3018ZM25.3018 414.513L24.8018 414.513C24.8019 416.587 26.484 418.268 28.5576 418.268V417.768V417.268C27.036 417.268 25.8019 416.034 25.8018 414.513L25.3018 414.513ZM28.5576 417.768V418.268H142.004V417.768V417.268H28.5576V417.768ZM145.974 413.798H146.474V368.739H145.974H145.474V413.798H145.974ZM145.974 368.739H146.474C146.474 366.665 144.792 364.983 142.718 364.983V365.483V365.983C144.239 365.983 145.474 367.218 145.474 368.739H145.974ZM142.718 365.483V364.983H28.5576V365.483V365.983H142.718V365.483ZM311.601 415.413V414.913C309.133 414.913 307.132 416.914 307.132 419.382H307.632H308.132C308.132 417.466 309.685 415.913 311.601 415.913V415.413ZM427.947 481.203V481.703C430.415 481.703 432.416 479.702 432.416 477.234H431.916H431.416C431.416 479.15 429.863 480.703 427.947 480.703V481.203ZM142.004 417.768V418.268C144.473 418.268 146.474 416.267 146.474 413.798H145.974H145.474C145.474 415.714 143.92 417.268 142.004 417.268V417.768ZM294.611 437.194V436.694C293.703 436.694 292.967 437.431 292.967 438.339H293.467H293.967C293.967 437.983 294.255 437.694 294.611 437.694V437.194ZM307.632 401.679H307.132C307.132 404.147 309.133 406.148 311.601 406.148V405.648V405.148C309.685 405.148 308.132 403.595 308.132 401.679H307.632ZM152.248 431.059H152.748C152.748 428.835 150.945 427.032 148.722 427.032V427.532V428.032C150.393 428.032 151.748 429.387 151.748 431.059H152.248ZM154.792 363.859L154.328 364.047C155.133 366.035 156.915 367.797 159.214 367.797V367.297V366.797C157.466 366.797 155.969 365.436 155.255 363.672L154.792 363.859ZM283.702 441.164H284.202C284.202 438.695 282.201 436.694 279.733 436.694V437.194V437.694C281.649 437.694 283.202 439.248 283.202 441.164H283.702ZM441.682 486.998H441.182C441.182 488.915 439.628 490.468 437.712 490.468V490.968V491.468C440.181 491.468 442.182 489.467 442.182 486.998H441.682Z" fill="#3d3d3d" mask="url(#path-28-inside-1_3327_13968)"/>
<path d="M26.6318 294.812H380.577" stroke="#3d3d3d" stroke-width="0.5"/>
<path d="M336.071 294.664L336.071 471.782" stroke="#3d3d3d" stroke-width="0.5"/>
<rect opacity="0.4" x="338.243" y="294.812" width="18.7979" height="94.9102" fill="url(#pattern0_3327_13968)" fill-opacity="0.49"/>
<path d="M57.1892 317.977V318.672V318.719H55.9845V310.367H57.1892V317.977ZM58.6845 318.719V312.707H59.7964V313.587C60.1787 313.043 60.8389 312.591 61.6613 312.591C62.9702 312.591 63.9084 313.402 63.9084 314.711V318.719H62.7849V314.966C62.7849 314.097 62.2752 313.576 61.4297 313.576C60.6304 313.576 59.9934 314.248 59.7964 315.082V318.719H58.6845ZM65.1887 320.885V312.707H66.3006V313.576C66.6481 313.008 67.4242 312.591 68.2582 312.591C69.8567 312.591 71.0497 313.912 71.0497 315.719C71.0497 317.526 69.8567 318.835 68.2234 318.835C67.4242 318.835 66.6481 318.418 66.3006 317.85V320.885H65.1887ZM68.0613 317.85C69.1385 317.85 69.8914 316.993 69.8914 315.73C69.8914 314.445 69.1385 313.576 68.096 313.576C67.0999 313.576 66.3817 314.317 66.3006 315.336V316.113C66.3817 317.132 67.0999 317.85 68.0613 317.85ZM74.2667 318.835C72.9578 318.835 72.0195 318.024 72.0195 316.715V312.707H73.1431V316.448C73.1431 317.421 73.7222 317.85 74.4983 317.85C75.2976 317.85 75.9346 317.178 76.1315 316.344V312.707H77.2551V318.719H76.1315V317.838C75.7493 318.383 75.0891 318.835 74.2667 318.835ZM80.8403 318.835C79.821 318.835 79.0797 318.232 79.0797 316.981V313.657H78.0025V312.707C79.0565 312.707 79.126 312.603 79.126 311.306H80.1917V312.707H81.767V313.657H80.1917V316.912C80.1917 317.584 80.5855 317.85 81.0257 317.85C81.2458 317.85 81.4542 317.827 81.6859 317.676V318.638C81.5353 318.753 81.1647 318.835 80.8403 318.835ZM84.7625 318.835C83.2219 318.835 82.3416 317.989 82.2142 317.016L83.2451 316.657H83.2914C83.4189 317.421 83.9633 317.873 84.7625 317.873C85.4227 317.873 85.8629 317.537 85.8629 317.004C85.8629 316.564 85.5617 316.321 85.0637 316.194L83.9169 315.927C83.2104 315.753 82.4111 315.418 82.4111 314.34C82.4111 313.356 83.303 312.591 84.5887 312.591C85.8513 312.591 86.6853 313.24 86.8938 314.167L85.8513 314.479H85.805C85.7007 313.842 85.2142 313.495 84.5887 313.495C83.9633 313.495 83.5694 313.865 83.5694 314.259C83.5694 314.653 83.8706 314.85 84.3223 314.966L85.3532 315.221C86.2567 315.441 87.0328 315.777 87.0328 316.993C87.0328 318.035 86.1061 318.835 84.7625 318.835Z" fill="#b3b3b3"/>
<rect x="311.639" y="311.711" width="13.7871" height="4.50586" rx="2.25293" stroke="#3d3d3d"/>
</g>
<path d="M46.4814 254.219H355.542C357.458 254.219 359.012 255.772 359.012 257.688V385.749C359.012 387.665 357.458 389.219 355.542 389.219H46.4814C44.5654 389.219 43.0117 387.665 43.0117 385.749V257.688C43.0117 255.772 44.5654 254.219 46.4814 254.219Z" stroke="#3d3d3d"/>
<g display="none">
<rect x="168.5" y="149" width="62" height="20" rx="4" fill="#2ABBF8"/>
<path d="M177.35 164L173.878 154.802L173.556 153.962V153.906H175.11L175.138 153.962L175.446 154.802L178.078 162.068L180.696 154.802L181.004 153.962L181.032 153.906H182.558V153.962L182.236 154.802L178.764 164H177.35ZM184.495 156.734V164H183.151V156.734H184.495ZM183.823 155.586C183.319 155.586 182.941 155.194 182.941 154.704C182.941 154.214 183.319 153.822 183.823 153.822C184.327 153.822 184.719 154.214 184.719 154.704C184.719 155.194 184.327 155.586 183.823 155.586ZM190.304 156.734H192.152V156.79L191.172 157.7L189.198 159.548L191.774 163.104L192.404 163.944V164H190.738L190.696 163.944L190.108 163.104L188.218 160.444L187.182 161.41V164H185.838V153.766H187.182V159.646L189.282 157.7L190.234 156.79L190.304 156.734ZM192.763 164V153.766H194.107V157.798C194.569 157.14 195.367 156.594 196.361 156.594C197.943 156.594 199.077 157.574 199.077 159.156V164H197.719V159.464C197.719 158.414 197.103 157.784 196.081 157.784C195.129 157.784 194.345 158.596 194.107 159.604V164H192.763ZM200.616 166.758C200.112 166.758 199.664 166.646 199.412 166.492L199.832 165.358C200.014 165.484 200.294 165.54 200.574 165.54C201.12 165.54 201.68 165.176 201.96 164.35L202.086 163.986L199.762 157.686L199.44 156.79V156.734H200.798L200.812 156.79L201.106 157.686L202.758 162.446L204.382 157.686L204.662 156.79L204.69 156.734H206.062V156.79L205.74 157.686L203.164 164.798C202.688 166.086 201.876 166.758 200.616 166.758ZM208.549 164.14C207.093 164.14 206.043 163.286 206.043 162.04C206.043 160.78 206.981 160.024 208.535 159.8L210.831 159.464V159.198C210.831 158.19 210.145 157.686 209.249 157.686C208.199 157.686 207.625 158.246 207.429 159.058L206.155 158.694C206.491 157.588 207.485 156.594 209.249 156.594C210.957 156.594 212.175 157.56 212.175 159.24V164H210.817V162.908C210.299 163.762 209.417 164.14 208.549 164.14ZM210.817 161.466V160.472L208.745 160.808C207.919 160.948 207.443 161.312 207.443 161.998C207.443 162.628 207.975 163.076 208.745 163.076C209.865 163.076 210.565 162.292 210.817 161.466ZM216.049 164.14C214.817 164.14 213.921 163.412 213.921 161.9V157.882H212.619V156.734C213.893 156.734 213.977 156.608 213.977 155.04H215.265V156.734H217.169V157.882H215.265V161.816C215.265 162.628 215.741 162.95 216.274 162.95C216.539 162.95 216.792 162.922 217.071 162.74V163.902C216.89 164.042 216.441 164.14 216.049 164.14ZM217.934 164V153.766H219.278V157.798C219.74 157.14 220.538 156.594 221.532 156.594C223.114 156.594 224.248 157.574 224.248 159.156V164H222.89V159.464C222.89 158.414 222.274 157.784 221.252 157.784C220.3 157.784 219.516 158.596 219.278 159.604V164H217.934Z" fill="#202020"/>
<path d="M246.863 134.341L242.706 146.964C242.206 148.482 240.003 148.303 239.756 146.724L238.834 140.846C238.738 140.235 238.282 139.742 237.68 139.6L231.319 138.096C229.728 137.72 229.767 135.442 231.37 135.121L245.118 132.372C246.262 132.143 247.227 133.233 246.863 134.341Z" fill="#2ABBF8"/>
<rect x="399.731" y="335.719" width="43" height="20" rx="4" fill="#FFCC02"/>
<path d="M404.759 350.719V350.663L405.095 349.823L408.721 340.625H410.135L413.761 349.823L414.111 350.663V350.719H412.543L412.515 350.663L412.207 349.823L411.591 348.213H407.237L406.621 349.823L406.299 350.663L406.271 350.719H404.759ZM407.727 346.939H411.101L409.421 342.557L407.727 346.939ZM416 349.823V350.663V350.719H414.656V340.485H416V349.823ZM418.309 347.289C418.393 348.787 419.261 349.683 420.549 349.683C421.557 349.683 422.173 349.263 422.439 348.325L423.783 348.717C423.391 350.019 422.257 350.859 420.521 350.859C418.435 350.859 416.951 349.291 416.951 347.079C416.951 344.881 418.407 343.313 420.465 343.313C423.349 343.313 423.965 345.735 423.783 347.289H418.309ZM420.465 344.391C419.317 344.391 418.589 345.105 418.379 346.267H422.369C422.299 345.147 421.585 344.391 420.465 344.391ZM428.617 350.719L428.575 350.663L428.015 349.823L426.867 348.115L425.719 349.823L425.159 350.663L425.117 350.719H423.633V350.663L424.207 349.823L426.111 346.981L424.389 344.419L423.787 343.509V343.453H425.243L425.285 343.509L425.887 344.419L426.853 345.861L427.833 344.419L428.435 343.509L428.477 343.453H429.947V343.509L429.345 344.419L427.623 346.995L429.527 349.823L430.101 350.663V350.719H428.617ZM432.527 350.859C431.071 350.859 430.021 350.005 430.021 348.759C430.021 347.499 430.959 346.743 432.513 346.519L434.809 346.183V345.917C434.809 344.909 434.123 344.405 433.227 344.405C432.177 344.405 431.603 344.965 431.407 345.777L430.133 345.413C430.469 344.307 431.463 343.313 433.227 343.313C434.935 343.313 436.153 344.279 436.153 345.959V350.719H434.795V349.627C434.277 350.481 433.395 350.859 432.527 350.859ZM434.795 348.185V347.191L432.723 347.527C431.897 347.667 431.421 348.031 431.421 348.717C431.421 349.347 431.953 349.795 432.723 349.795C433.843 349.795 434.543 349.011 434.795 348.185Z" fill="#202020"/>
<path d="M381.393 323.107L385.55 335.73C386.05 337.248 388.253 337.069 388.5 335.489L389.422 329.611C389.518 329 389.974 328.508 390.576 328.365L396.937 326.862C398.528 326.486 398.489 324.208 396.885 323.887L383.138 321.137C381.994 320.909 381.028 321.999 381.393 323.107Z" fill="#FFCC02"/>
</g>
<defs>
<clipPath id="clip0_3327_13968">
<rect width="11.5831" height="11.5831" fill="white" transform="translate(286.731 115.188)"/>
</clipPath>
<clipPath id="clip1_3327_13968">
<path d="M42.5117 257.688C42.5117 255.496 44.2888 253.719 46.481 253.719H355.542C357.735 253.719 359.512 255.496 359.512 257.688V385.749C359.512 387.942 357.735 389.719 355.542 389.719H46.481C44.2888 389.719 42.5117 387.942 42.5117 385.749V257.688Z" fill="white"/>
</clipPath>
<pattern id="pattern0_3327_13968" patternUnits="userSpaceOnUse" patternTransform="matrix(14.2252 0 0 9.87864 341.812 338.219)" preserveAspectRatio="none" viewBox="0 0 87.84 61" width="1" height="1">
<g id="pattern0_3327_13968_inner">
<circle cx="3" cy="3" r="3" fill="white"/>
<circle cx="3" cy="25" r="3" fill="white"/>
<circle cx="3" cy="47" r="3" fill="white"/>
<circle cx="25" cy="25" r="3" fill="white"/>
<circle cx="25" cy="3" r="3" fill="white"/>
<circle cx="25" cy="47" r="3" fill="white"/>
<circle cx="47" cy="25" r="3" fill="white"/>
<circle cx="69" cy="25" r="3" fill="white"/>
<circle cx="47" cy="3" r="3" fill="white"/>
<circle cx="69" cy="3" r="3" fill="white"/>
<circle cx="47" cy="47" r="3" fill="white"/>
<circle cx="69" cy="47" r="3" fill="white"/>
</g>
</pattern></defs>
</svg>
