<svg fill="none" height="480" viewBox="-50 0 876 480" width="876" xmlns="http://www.w3.org/2000/svg" xmlns:xlink="http://www.w3.org/1999/xlink"><clipPath id="a"><path d="m286.731 115.188h11.5831v11.5831h-11.5831z"/></clipPath><clipPath id="b"><path d="m42.5117 257.688c0-2.192 1.7771-3.969 3.9693-3.969h309.061c2.193 0 3.97 1.777 3.97 3.969v128.061c0 2.193-1.777 3.97-3.97 3.97h-309.061c-2.1922 0-3.9693-1.777-3.9693-3.97z"/></clipPath><pattern id="c" height="1" patternTransform="matrix(14.2252 0 0 9.87864 341.812 338.219)" patternUnits="userSpaceOnUse" preserveAspectRatio="none" viewBox="0 0 87.84 61" width="1"><circle cx="3" cy="3" fill="#fff" r="3"/><circle cx="3" cy="25" fill="#fff" r="3"/><circle cx="3" cy="47" fill="#fff" r="3"/><circle cx="25" cy="25" fill="#fff" r="3"/><circle cx="25" cy="3" fill="#fff" r="3"/><circle cx="25" cy="47" fill="#fff" r="3"/><circle cx="47" cy="25" fill="#fff" r="3"/><circle cx="69" cy="25" fill="#fff" r="3"/><circle cx="47" cy="3" fill="#fff" r="3"/><circle cx="69" cy="3" fill="#fff" r="3"/><circle cx="47" cy="47" fill="#fff" r="3"/><circle cx="69" cy="47" fill="#fff" r="3"/></pattern><mask id="d" fill="#fff"><path d="m142.718 355.719c5.465 0 10.143 3.367 12.074 8.14.759 1.877 2.398 3.438 4.422 3.438h141.397c3.877 0 7.021 3.143 7.021 7.019v27.363c0 2.192 1.777 3.969 3.969 3.969h117.06c7.191 0 13.021 5.83 13.021 13.021v68.329c0 2.193-1.777 3.97-3.97 3.97h-140.989l-.337-.004c-6.924-.176-12.505-5.756-12.68-12.68l-.004-.336v-36.784c0-2.193-1.777-3.97-3.969-3.97h-121.349c-3.389 0-6.136-2.747-6.136-6.135 0-1.948-1.579-3.527-3.526-3.527h-120.1644l-.3369-.004c-6.9236-.175-12.5042-5.756-12.6797-12.679l-.0039-.336v-45.774c0-7.078 5.6483-12.838 12.6836-13.016l.3369-.004zm164.914 68.456c0 7.191-5.83 13.019-13.021 13.019-.632 0-1.144.513-1.144 1.145v39.609c0 1.798 1.458 3.255 3.256 3.255h131.224c2.192 0 3.969-1.777 3.969-3.969v-58.565c0-1.798-1.457-3.256-3.255-3.256h-117.06c-2.192 0-3.969 1.777-3.969 3.969zm-279.0744-58.692c-1.7977 0-3.2558 1.459-3.2558 3.256v45.774c.0001 1.797 1.4582 3.255 3.2558 3.255h113.4464c2.193 0 3.97-1.778 3.97-3.97v-45.059c0-1.797-1.459-3.256-3.256-3.256z" fill="#fff"/></mask><path d="m1385.16-59.9863c22.93.5808 41.34 19.3523 41.34 42.4238v282.5625h276.71l1.1.014c22.93.581 41.34 19.352 41.34 42.424v509.562h-1125.562c-23.072 0-41.843-18.411-42.424-41.343l-.014-1.095v-256.562h-276.712l-1.095-.014c-22.568-.571-40.758-18.761-41.329-41.329l-.014-1.095v-31.562h-238c-11.04569 0-20-8.954-20-20v-352c0-11.0457 8.95431-20 20-20h238v-69.5625c0-23.4375 19-42.4373 42.438-42.4375h1083.122zm41.34 577.9863h-817.021v256.562c0 5.86 4.75 10.61 10.609 10.61h1093.732v-477.734c0-5.86-4.75-10.61-10.61-10.61h-276.71zm-1136.172-42.438c0 5.86 4.75 10.61 10.61 10.61h276.712v-42.172h-287.322zm362.172-51.562c0 11.046-8.954 20-20 20h-23.021v42.172h785.191v-189.344h-742.17zm-351.562-452.1719c-5.86.0002-10.61 4.7503-10.61 10.6094v69.5625h342.172c11.046 0 20 8.9543 20 20v193h742.17v-282.5625c0-5.8592-4.75-10.6092-10.61-10.6094z" fill="#1b1b1b"/><path d="m1385.16-59.9863.01-.4999-.01-.0001zm41.34 42.4238h.5zm0 282.5625h-.5v.5h.5zm276.71 0 .01-.5h-.01zm1.1.014.01-.5h-.01zm41.34 42.424h.5zm0 509.562v.5h.5v-.5zm-1125.562 0v.5zm-42.424-41.343-.5.006v.007zm-.014-1.095h-.5v.007zm0-256.562h.5v-.5h-.5zm-276.712 0-.007.5h.007zm-1.095-.014-.013.5h.007zm-41.329-41.329-.5.006v.007zm-.014-1.095h-.5v.007zm0-31.562h.5v-.5h-.5zm-238 0v.5zm0-392v-.5zm238 0v.5h.5v-.5zm0-69.5625h-.5zm42.438-42.4375v-.5zm1083.122 0 .01-.5h-.01zm42.44 578v.5h.5v-.5zm-817.021 0v-.5h-.5v.5zm0 256.562h-.5zm10.609 10.61v.5zm1093.732 0v.5h.5v-.5zm0-477.734h.5v-.001zm-10.61-10.61v-.5zm-276.71 0v-.5h-.5v.5zm-1136.172 178.734h-.5zm10.61 10.61-.001.5h.001zm276.712 0v.5h.5v-.5zm0-42.172h.5v-.5h-.5zm-287.322 0v-.5h-.5v.5zm319.151 0v-.5h-.5v.5zm0 42.172h-.5v.5h.5zm785.191 0v.5h.5v-.5zm0-189.344h.5v-.5h-.5zm-742.17 0v-.5h-.5v.5zm-351.562-324.9999v-.5h-.001zm-10.61 10.6094h-.5zm0 69.5625h-.5v.5h.5zm342.172 0v-.5zm20 213h-.5v.5h.5zm742.17 0v.5h.5v-.5zm0-282.5625h.5zm-10.61-10.6094v-.5zm1.1-31.8144-.02.4998c22.67.574 40.86 19.1244 40.86 41.924h.5.5c0-23.3434-18.63-42.336-41.83-42.9237zm41.34 42.4238h-.5v282.5625h.5.5v-282.5625zm0 282.5625v.5h276.71v-.5-.5h-276.71zm276.71 0v.5l1.09.014.01-.5v-.5l-1.09-.014zm1.1.014-.02.5c22.67.574 40.86 19.124 40.86 41.924h.5.5c0-23.344-18.63-42.336-41.83-42.924zm41.34 42.424h-.5v509.562h.5.5v-509.562zm0 509.562v-.5h-1125.562v.5.5h1125.562zm-1125.562 0v-.5c-22.8 0-41.35-18.194-41.924-40.855l-.5.012-.5.013c.588 23.202 19.581 41.83 42.924 41.83zm-42.424-41.343.5-.006-.014-1.095-.5.006-.5.007.014 1.094zm-.014-1.095h.5v-256.562h-.5-.5v256.562zm0-256.562v-.5h-276.712v.5.5h276.712zm-276.712 0 .006-.5-1.095-.014-.006.5-.006.5 1.094.014zm-1.095-.014.012-.499c-22.301-.565-40.277-18.541-40.841-40.842l-.5.012-.5.013c.578 22.834 18.982 41.238 41.816 41.816zm-41.329-41.329.5-.006-.014-1.095-.5.006-.5.007.014 1.094zm-.014-1.095h.5v-31.562h-.5-.5v31.562zm0-31.562v-.5h-238v.5.5h238zm-238 0v-.5c-10.76954 0-19.5-8.73-19.5-19.5h-.5-.5c0 11.322 9.17817 20.5 20.5 20.5zm-20-20h.5v-352h-.5-.5v352zm0-352h.5c0-10.7696 8.73045-19.5 19.5-19.5v-.5-.5c-11.32184 0-20.5 9.1782-20.5 20.5zm20-20v.5h238v-.5-.5h-238zm238 0h.5v-69.5625h-.5-.5v69.5625zm0-69.5625h.5c0-23.1614 18.776-41.9373 41.938-41.9375v-.5-.5c-23.714.0002-42.938 19.2239-42.938 42.9375zm42.438-42.4375v.5h1083.122v-.5-.5h-1083.122zm1083.122 0v.5l1.09.0136.01-.4999v-.5l-1.09-.0137zm42.44 578v-.5h-817.021v.5.5h817.021zm-817.021 0h-.5v256.562h.5.5v-256.562zm0 256.562h-.5c0 6.136 4.974 11.11 11.109 11.11v-.5-.5c-5.583 0-10.109-4.526-10.109-10.11zm10.609 10.61v.5h1093.732v-.5-.5h-1093.732zm1093.732 0h.5v-477.734h-.5-.5v477.734zm0-477.734.5-.001c0-6.135-4.97-11.109-11.11-11.109v.5.5c5.59 0 10.11 4.526 10.11 10.11zm-10.61-10.61v-.5h-276.71v.5.5h276.71zm-276.71 0h-.5v221.172h.5.5v-221.172zm-1136.172 178.734h-.5c0 6.136 4.974 11.11 11.109 11.11l.001-.5v-.5c-5.584 0-10.11-4.526-10.11-10.11zm10.61 10.61v.5h276.712v-.5-.5h-276.712zm276.712 0h.5v-42.172h-.5-.5v42.172zm0-42.172v-.5h-287.322v.5.5h287.322zm-287.322 0h-.5v31.562h.5.5v-31.562zm362.172-20h-.5c0 10.77-8.73 19.5-19.5 19.5v.5.5c11.322 0 20.5-9.178 20.5-20.5zm-20 20v-.5h-23.021v.5.5h23.021zm-23.021 0h-.5v42.172h.5.5v-42.172zm0 42.172v.5h785.191v-.5-.5h-785.191zm785.191 0h.5v-189.344h-.5-.5v189.344zm0-189.344v-.5h-742.17v.5.5h742.17zm-742.17 0h-.5v127.172h.5.5v-127.172zm-351.562-324.9999-.001-.5c-6.135.0002-11.109 4.9741-11.109 11.1094h.5.5c0-5.583 4.526-10.1092 10.11-10.1094zm-10.61 10.6094h-.5v69.5625h.5.5v-69.5625zm0 69.5625v.5h342.172v-.5-.5h-342.172zm342.172 0v.5c10.77 0 19.5 8.7305 19.5 19.5h.5.5c0-11.3218-9.178-20.5-20.5-20.5zm20 20h-.5v193h.5.5v-193zm0 193v.5h742.17v-.5-.5h-742.17zm742.17 0h.5v-282.5625h-.5-.5v282.5625zm0-282.5625h.5c0-6.1353-4.97-11.1092-11.11-11.1094v.5.5c5.59.0002 10.11 4.5264 10.11 10.1094zm-10.61-10.6094v-.5h-1083.122v.5.5h1083.122z" fill="#323232" fill-opacity=".8"/><path d="m273.044 100.328h310.366c1.916 0 3.47 1.554 3.47 3.47v187.045c0 1.916-1.554 3.469-3.47 3.469h-310.366c-1.916 0-3.47-1.553-3.47-3.469v-187.045c0-1.916 1.554-3.47 3.47-3.47z" fill="#232323" stroke="#3d3d3d"/><path d="m309.653 124.906v-.048l.288-.72 3.048-7.884h1.452l3.06 7.884.3.72v.048h-1.584l-.024-.048-.264-.72-.468-1.236h-3.492l-.468 1.236-.276.72-.024.048zm2.808-3.312h2.52l-1.26-3.348zm9.556 3.432c-.568 0-1.112-.092-1.632-.276-.512-.184-.972-.46-1.38-.828-.4-.368-.716-.832-.948-1.392s-.348-1.212-.348-1.956.116-1.392.348-1.944c.24-.56.56-1.024.96-1.392.408-.368.868-.644 1.38-.828.52-.184 1.06-.276 1.62-.276.672 0 1.268.108 1.788.324.528.208.96.504 1.296.888.344.384.572.836.684 1.356l-1.464.408h-.036c-.104-.464-.356-.856-.756-1.176-.4-.328-.912-.492-1.536-.492-.536 0-1.012.124-1.428.372-.416.24-.744.596-.984 1.068-.232.464-.348 1.028-.348 1.692 0 .624.116 1.172.348 1.644s.556.84.972 1.104.904.396 1.464.396c.568 0 1.036-.088 1.404-.264.376-.176.668-.392.876-.648v-1.188h-2.16v-1.308h3.648v3.012c-.368.472-.78.832-1.236 1.08s-.908.416-1.356.504c-.44.08-.832.12-1.176.12zm4.826-.12v-8.652h5.808v1.308h-4.32v2.136h3.468v1.308h-3.468v2.592h4.32v1.308zm12.123 0-3.924-6.348.036 5.58v.768h-1.488v-8.652h1.68l3.924 6.348-.036-5.58v-.768h1.488v8.652zm5.041 0v-7.344h-2.676v-1.308h6.816v1.308h-2.652v7.344zm8.087 0v-6.072h-1.872v-1.128c.496-.008.892-.052 1.188-.132.296-.088.524-.236.684-.444s.276-.5.348-.876h1.14v8.652z" fill="#e6e6e6"/><path d="m270.46 140.922h315.922" stroke="#3d3d3d"/><path d="m286.046 166.069c-1.703 0-3.093-1.089-3.221-2.56l1.124-.255h.046c.093 1.031.985 1.761 2.051 1.761 1.088 0 1.783-.533 1.783-1.309 0-.695-.475-1.1-1.158-1.297l-1.494-.44c-1.101-.313-2.027-.881-2.027-2.224 0-1.356 1.193-2.259 2.838-2.259 1.575 0 2.814.88 2.953 2.131l-1.1.267h-.046c-.151-.8-.823-1.344-1.807-1.344-1.008 0-1.599.44-1.599 1.147 0 .625.452.949 1.101 1.135l1.529.44c1.123.324 2.05.927 2.05 2.386 0 1.46-1.217 2.421-3.023 2.421zm4.276 2.166c-.417 0-.787-.093-.996-.22l.348-.938c.15.104.382.15.613.15.452 0 .916-.301 1.147-.984l.104-.301-1.922-5.213-.267-.741v-.047h1.124l.011.047.244.741 1.366 3.938 1.344-3.938.232-.741.023-.047h1.135v.047l-.266.741-2.132 5.884c-.393 1.066-1.065 1.622-2.108 1.622zm7.201-2.166c-1.541 0-2.421-.846-2.548-1.819l1.031-.359h.046c.127.765.672 1.217 1.471 1.217.66 0 1.1-.336 1.1-.869 0-.44-.301-.684-.799-.811l-1.147-.266c-.706-.174-1.505-.51-1.505-1.587 0-.985.891-1.749 2.177-1.749 1.263 0 2.097.648 2.305 1.575l-1.042.313h-.047c-.104-.637-.59-.985-1.216-.985-.625 0-1.019.371-1.019.765 0 .393.301.59.753.706l1.031.255c.903.22 1.679.556 1.679 1.772 0 1.043-.926 1.842-2.27 1.842zm5.444 0c-1.019 0-1.761-.602-1.761-1.853v-3.325h-1.077v-.95c1.054 0 1.124-.104 1.124-1.401h1.065v1.401h1.575v.95h-1.575v3.255c0 .672.394.938.834.938.22 0 .429-.023.66-.173v.961c-.15.116-.521.197-.845.197zm2.375-2.954c.069 1.24.788 1.981 1.853 1.981.834 0 1.344-.348 1.564-1.124l1.112.325c-.324 1.077-1.263 1.772-2.699 1.772-1.726 0-2.954-1.297-2.954-3.127 0-1.819 1.205-3.116 2.908-3.116 2.386 0 2.896 2.004 2.745 3.289zm1.784-2.397c-.95 0-1.552.59-1.726 1.552h3.301c-.058-.927-.649-1.552-1.575-1.552zm3.797 5.235v-6.012h1.112v.892c.382-.532 1.03-1.007 1.876-1.007.95 0 1.575.451 1.842 1.158.451-.753 1.193-1.158 1.992-1.158 1.286 0 2.073.845 2.073 2.05v4.077h-1.123v-3.764c0-1.078-.568-1.379-1.182-1.379-.776 0-1.413.649-1.587 1.494v3.649h-1.123v-3.764c0-1.078-.568-1.379-1.158-1.379-.811 0-1.425.684-1.61 1.506v3.637zm12.545 0v-8.351h3.429c1.645 0 2.653.961 2.653 2.455 0 1.471-1.008 2.479-2.653 2.479h-2.224v3.417zm1.205-4.471h2.085c.985 0 1.552-.556 1.552-1.425 0-.857-.567-1.401-1.552-1.401h-2.085zm5.728 4.471v-6.012h1.112v.973c.348-.637.996-1.088 1.726-1.088.151 0 .255 0 .359.023v1.089c-1.286-.232-1.9.741-2.085 1.494v3.521zm6.295.116c-1.737 0-2.988-1.332-2.988-3.127 0-1.784 1.251-3.116 2.988-3.116 1.726 0 3 1.332 3 3.116 0 1.795-1.274 3.127-3 3.127zm0-.985c1.078 0 1.842-.903 1.842-2.142 0-1.24-.776-2.132-1.842-2.132-1.077 0-1.83.892-1.83 2.132 0 1.239.753 2.142 1.83 2.142zm4.021.869v-6.012h1.112v.892c.383-.532 1.031-1.007 1.877-1.007.95 0 1.575.451 1.842 1.158.451-.753 1.193-1.158 1.992-1.158 1.286 0 2.073.845 2.073 2.05v4.077h-1.123v-3.764c0-1.078-.568-1.379-1.182-1.379-.776 0-1.413.649-1.587 1.494v3.649h-1.123v-3.764c0-1.078-.568-1.379-1.159-1.379-.81 0-1.424.684-1.61 1.506v3.637zm10.181 2.166v-8.178h1.112v.869c.347-.567 1.123-.984 1.957-.984 1.599 0 2.792 1.32 2.792 3.127s-1.193 3.116-2.826 3.116c-.8 0-1.576-.417-1.923-.985v3.035zm2.872-3.035c1.078 0 1.831-.857 1.831-2.119 0-1.286-.753-2.155-1.796-2.155-.996 0-1.714.742-1.795 1.761v.776c.081 1.019.799 1.737 1.76 1.737zm6.117.985c-1.019 0-1.761-.602-1.761-1.853v-3.325h-1.077v-.95c1.054 0 1.124-.104 1.124-1.401h1.065v1.401h1.576v.95h-1.576v3.255c0 .672.394.938.834.938.22 0 .429-.023.661-.173v.961c-.151.116-.522.197-.846.197z" fill="#b3b3b3"/><rect height="4.50586" rx="2.25293" stroke="#3d3d3d" width="13.7871" x="560.005" y="158.945"/><path d="m286.463 190.835c-1.912 0-3.209-1.112-3.209-3.024v-5.444h1.205v5.502c0 1.205.81 1.912 2.004 1.912 1.193 0 2.015-.707 2.015-1.912v-5.502h1.205v5.444c0 1.912-1.309 3.024-3.22 3.024zm6.626 0c-1.541 0-2.421-.846-2.549-1.819l1.031-.359h.047c.127.764.672 1.216 1.471 1.216.66 0 1.1-.336 1.1-.869 0-.44-.301-.683-.799-.81l-1.147-.267c-.706-.174-1.506-.509-1.506-1.587 0-.984.892-1.749 2.178-1.749 1.263 0 2.097.649 2.305 1.576l-1.042.312h-.047c-.104-.637-.59-.984-1.216-.984-.625 0-1.019.37-1.019.764s.301.591.753.707l1.031.255c.903.22 1.679.556 1.679 1.772 0 1.042-.927 1.842-2.27 1.842zm4.052-2.954c.07 1.239.788 1.981 1.853 1.981.834 0 1.344-.348 1.564-1.124l1.112.324c-.324 1.078-1.262 1.773-2.699 1.773-1.726 0-2.954-1.298-2.954-3.128 0-1.818 1.205-3.116 2.908-3.116 2.386 0 2.896 2.004 2.745 3.29zm1.784-2.398c-.95 0-1.552.591-1.726 1.552h3.301c-.058-.926-.648-1.552-1.575-1.552zm3.797 5.236v-6.012h1.112v.973c.347-.637.996-1.089 1.725-1.089.151 0 .255 0 .36.023v1.089c-1.286-.231-1.9.742-2.085 1.494v3.522zm6.098 0v-8.352h3.429c1.644 0 2.652.962 2.652 2.456 0 1.471-1.008 2.479-2.652 2.479h-2.224v3.417zm1.205-4.471h2.085c.984 0 1.552-.556 1.552-1.425 0-.857-.568-1.402-1.552-1.402h-2.085zm5.728 4.471v-6.012h1.112v.973c.347-.637.996-1.089 1.725-1.089.151 0 .255 0 .36.023v1.089c-1.286-.231-1.9.742-2.085 1.494v3.522zm6.295.116c-1.738 0-2.989-1.332-2.989-3.128 0-1.784 1.251-3.116 2.989-3.116 1.726 0 3 1.332 3 3.116 0 1.796-1.274 3.128-3 3.128zm0-.985c1.077 0 1.841-.903 1.841-2.143 0-1.239-.776-2.131-1.841-2.131-1.077 0-1.83.892-1.83 2.131 0 1.24.753 2.143 1.83 2.143zm4.021.869v-6.012h1.112v.892c.382-.533 1.031-1.008 1.876-1.008.95 0 1.576.452 1.842 1.159.452-.753 1.193-1.159 1.992-1.159 1.286 0 2.074.846 2.074 2.05v4.078h-1.124v-3.765c0-1.077-.567-1.378-1.181-1.378-.776 0-1.414.648-1.587 1.494v3.649h-1.124v-3.765c0-1.077-.567-1.378-1.158-1.378-.811 0-1.425.683-1.61 1.506v3.637zm10.18 2.166v-8.178h1.112v.869c.348-.568 1.124-.985 1.958-.985 1.598 0 2.791 1.321 2.791 3.128s-1.193 3.116-2.826 3.116c-.799 0-1.575-.417-1.923-.985v3.035zm2.873-3.035c1.077 0 1.83-.857 1.83-2.12 0-1.285-.753-2.154-1.795-2.154-.996 0-1.715.741-1.796 1.76v.777c.081 1.019.8 1.737 1.761 1.737zm6.116.985c-1.019 0-1.76-.603-1.76-1.854v-3.324h-1.077v-.95c1.054 0 1.123-.104 1.123-1.401h1.066v1.401h1.575v.95h-1.575v3.255c0 .672.394.938.834.938.22 0 .428-.023.66-.174v.962c-.151.115-.521.197-.846.197z" fill="#b3b3b3"/><rect height="4.50586" rx="2.25293" stroke="#3d3d3d" width="13.7871" x="560.005" y="183.719"/><path d="m283.323 265.578v-8.351h5.479v1.054h-4.274v2.351h3.429v1.066h-3.429v2.826h4.274v1.054zm6.402 0v-6.012h1.111v.973c.348-.637.997-1.088 1.726-1.088.151 0 .255 0 .359.023v1.089c-1.285-.232-1.899.741-2.085 1.494v3.521zm3.993 0v-6.012h1.112v.973c.347-.637.996-1.088 1.725-1.088.151 0 .255 0 .359.023v1.089c-1.285-.232-1.899.741-2.084 1.494v3.521zm6.295.116c-1.738 0-2.989-1.332-2.989-3.127 0-1.784 1.251-3.116 2.989-3.116 1.726 0 3 1.332 3 3.116 0 1.795-1.274 3.127-3 3.127zm0-.985c1.077 0 1.841-.903 1.841-2.142 0-1.24-.776-2.132-1.841-2.132-1.078 0-1.83.892-1.83 2.132 0 1.239.752 2.142 1.83 2.142zm4.021.869v-6.012h1.112v.973c.347-.637.996-1.088 1.726-1.088.15 0 .254 0 .359.023v1.089c-1.286-.232-1.9.741-2.085 1.494v3.521z" fill="#b3b3b3"/><rect height="4.50586" rx="2.25293" stroke="#3d3d3d" width="13.7871" x="560.005" y="258.57"/><path d="m283.323 216.344v-8.352h1.472l2.305 5.398c.37.846.567 1.587.567 1.587s.185-.741.556-1.587l2.282-5.398h1.459v8.352h-1.204v-4.738c0-.926.069-1.714.069-1.714s-.254.753-.625 1.587l-2.074 4.865h-.949l-2.085-4.865c-.371-.834-.637-1.575-.637-1.575s.069.776.069 1.702v4.738zm12.651.116c-1.737 0-2.988-1.332-2.988-3.128 0-1.784 1.251-3.116 2.988-3.116 1.726 0 3 1.332 3 3.116 0 1.796-1.274 3.128-3 3.128zm0-.985c1.078 0 1.842-.903 1.842-2.143 0-1.239-.776-2.131-1.842-2.131-1.077 0-1.83.892-1.83 2.131 0 1.24.753 2.143 1.83 2.143zm6.523.985c-1.633 0-2.826-1.321-2.826-3.128s1.193-3.116 2.826-3.116c.811 0 1.587.417 1.923.985v-3.325h1.124v8.468h-1.124v-.881c-.336.568-1.112.997-1.923.997zm.163-.985c.973 0 1.679-.741 1.76-1.761v-.776c-.069-1.019-.787-1.737-1.76-1.737-1.066 0-1.831.857-1.831 2.12 0 1.285.765 2.154 1.831 2.154zm5.024-1.969c.069 1.239.787 1.981 1.853 1.981.834 0 1.343-.348 1.564-1.124l1.112.324c-.325 1.078-1.263 1.773-2.699 1.773-1.726 0-2.954-1.298-2.954-3.128 0-1.818 1.205-3.116 2.907-3.116 2.386 0 2.896 2.004 2.746 3.29zm1.783-2.398c-.95 0-1.552.591-1.726 1.552h3.302c-.058-.926-.649-1.552-1.576-1.552zm4.909 4.494v.695.047h-1.112v-8.468h1.112z" fill="#b3b3b3"/><path d="m542.567 218.626c-1.715 0-2.815-.545-2.815-1.773 0-.475.266-.938.626-1.227-.278-.197-.441-.475-.441-.846 0-.533.406-.938.834-1.181-.359-.348-.567-.823-.567-1.39 0-1.193.903-1.993 2.258-1.993.429 0 .823.081 1.147.232l1.772-.127v.961h-.857c.139.266.22.579.22.927 0 1.181-.915 1.992-2.282 1.992-.359 0-.695-.058-.984-.162-.255.139-.429.347-.429.59 0 .302.244.417.73.417h1.738c1.193 0 2.015.556 2.015 1.599 0 1.309-1.193 1.981-2.965 1.981zm-1.251-2.676c-.336.22-.44.544-.44.811 0 .648.66.938 1.691.938 1.251 0 1.83-.394 1.83-1.019 0-.51-.348-.707-.985-.707h-1.598c-.174 0-.348-.011-.498-.023zm1.146-2.664c.73 0 1.194-.44 1.194-1.077 0-.649-.464-1.078-1.194-1.078-.718 0-1.169.429-1.169 1.078 0 .637.451 1.077 1.169 1.077zm3.827 5.224v-8.178h1.112v.869c.347-.568 1.123-.985 1.957-.985 1.599 0 2.792 1.321 2.792 3.128s-1.193 3.116-2.826 3.116c-.8 0-1.576-.417-1.923-.985v3.035zm2.873-3.035c1.077 0 1.83-.857 1.83-2.12 0-1.285-.753-2.154-1.796-2.154-.996 0-1.714.741-1.795 1.76v.777c.081 1.019.799 1.737 1.761 1.737zm6.116.985c-1.019 0-1.761-.603-1.761-1.854v-3.324h-1.077v-.95c1.054 0 1.124-.104 1.124-1.401h1.065v1.401h1.576v.95h-1.576v3.255c0 .672.394.938.834.938.22 0 .429-.023.661-.174v.962c-.151.115-.522.197-.846.197zm1.017-2.641v-.985h3.556v.985zm8.649 2.525v-1.981h-4.355v-1.066l4.193-5.305h1.367v5.317h1.158v1.054h-1.158v1.981zm-3.069-3.035h3.069v-3.904zm9.068 3.151c-1.738 0-2.989-1.332-2.989-3.128 0-1.784 1.251-3.116 2.989-3.116 1.726 0 3 1.332 3 3.116 0 1.796-1.274 3.128-3 3.128zm0-.985c1.077 0 1.842-.903 1.842-2.143 0-1.239-.777-2.131-1.842-2.131-1.077 0-1.83.892-1.83 2.131 0 1.24.753 2.143 1.83 2.143z" fill="#e6e6e6"/><path d="m285.327 239.953v-7.297h-2.629v-1.054h6.452v1.054h-2.618v7.297zm3.986-2.838c.07 1.24.788 1.981 1.854 1.981.834 0 1.343-.348 1.563-1.124l1.112.325c-.324 1.077-1.262 1.772-2.698 1.772-1.726 0-2.954-1.297-2.954-3.127 0-1.819 1.204-3.116 2.907-3.116 2.386 0 2.896 2.004 2.745 3.289zm1.784-2.397c-.95 0-1.552.59-1.726 1.552h3.302c-.058-.927-.649-1.552-1.576-1.552zm3.797 5.235v-6.012h1.112v.892c.382-.532 1.031-1.007 1.876-1.007.95 0 1.576.451 1.842 1.158.452-.753 1.193-1.158 1.992-1.158 1.286 0 2.074.845 2.074 2.05v4.077h-1.124v-3.764c0-1.078-.567-1.379-1.181-1.379-.776 0-1.413.649-1.587 1.494v3.649h-1.124v-3.764c0-1.078-.567-1.379-1.158-1.379-.811 0-1.425.684-1.61 1.506v3.637zm10.18 2.166v-8.178h1.112v.869c.348-.567 1.124-.984 1.958-.984 1.598 0 2.791 1.32 2.791 3.127s-1.193 3.116-2.826 3.116c-.799 0-1.575-.417-1.923-.985v3.035zm2.873-3.035c1.077 0 1.83-.857 1.83-2.119 0-1.286-.753-2.155-1.795-2.155-.996 0-1.715.742-1.796 1.761v.776c.081 1.019.8 1.737 1.761 1.737zm4.815-1.969c.07 1.24.788 1.981 1.854 1.981.834 0 1.343-.348 1.563-1.124l1.112.325c-.324 1.077-1.262 1.772-2.698 1.772-1.726 0-2.954-1.297-2.954-3.127 0-1.819 1.205-3.116 2.907-3.116 2.386 0 2.896 2.004 2.745 3.289zm1.784-2.397c-.95 0-1.552.59-1.726 1.552h3.302c-.058-.927-.649-1.552-1.576-1.552zm3.797 5.235v-6.012h1.112v.973c.347-.637.996-1.088 1.726-1.088.15 0 .255 0 .359.023v1.089c-1.286-.232-1.9.741-2.085 1.494v3.521zm5.504.116c-1.204 0-2.073-.707-2.073-1.738 0-1.042.776-1.667 2.062-1.853l1.899-.278v-.22c0-.834-.567-1.251-1.309-1.251-.868 0-1.343.463-1.505 1.135l-1.055-.301c.278-.915 1.101-1.737 2.56-1.737 1.414 0 2.421.799 2.421 2.189v3.938h-1.123v-.903c-.429.706-1.159 1.019-1.877 1.019zm1.877-2.212v-.823l-1.715.278c-.683.116-1.077.417-1.077.985 0 .521.44.892 1.077.892.927 0 1.506-.649 1.715-1.332zm4.56 2.212c-1.019 0-1.76-.602-1.76-1.853v-3.325h-1.077v-.95c1.054 0 1.123-.104 1.123-1.401h1.066v1.401h1.575v.95h-1.575v3.255c0 .672.394.938.834.938.22 0 .428-.023.66-.173v.961c-.151.116-.521.197-.846.197zm3.981 0c-1.309 0-2.248-.811-2.248-2.12v-4.008h1.124v3.742c0 .973.579 1.401 1.355 1.401.799 0 1.436-.671 1.633-1.505v-3.638h1.124v6.012h-1.124v-.88c-.382.544-1.042.996-1.864.996zm4.314-.116v-6.012h1.112v.973c.348-.637.997-1.088 1.726-1.088.151 0 .255 0 .359.023v1.089c-1.285-.232-1.899.741-2.085 1.494v3.521zm4.431-2.838c.069 1.24.787 1.981 1.853 1.981.834 0 1.344-.348 1.564-1.124l1.112.325c-.325 1.077-1.263 1.772-2.699 1.772-1.726 0-2.954-1.297-2.954-3.127 0-1.819 1.205-3.116 2.908-3.116 2.386 0 2.895 2.004 2.745 3.289zm1.784-2.397c-.95 0-1.553.59-1.726 1.552h3.301c-.058-.927-.649-1.552-1.575-1.552z" fill="#b3b3b3"/><path d="m572.261 238.953v-6.023h-1.795v-.915c1.529-.023 1.888-.232 2.062-1.413h.938v8.351z" fill="#e6e6e6"/><rect fill="#701ffc" height="19.8568" rx="4.96419" width="19.8568" x="282.594" y="111.047"/><g clip-path="url(#a)" fill="#fff"><path d="m292.526 115.188c.715 0 1.295.58 1.296 1.295 0 .593-.398 1.091-.941 1.246v1.236h2.477c1.236 0 2.239 1.002 2.239 2.238v2.828c0 1.236-1.003 2.238-2.239 2.239h-5.658c-1.236 0-2.239-1.003-2.239-2.239v-2.828c0-1.236 1.003-2.238 2.239-2.238h2.474v-1.236c-.545-.153-.945-.652-.945-1.246 0-.715.581-1.295 1.297-1.295zm-2.826 4.484c-.846 0-1.532.685-1.532 1.531v2.828c0 .846.686 1.531 1.532 1.531h5.658c.846 0 1.532-.685 1.532-1.531v-2.828c0-.846-.686-1.531-1.532-1.531zm1.414 2.119c.195 0 .353.158.353.354v.942c0 .195-.158.353-.353.353-.196 0-.354-.158-.354-.353v-.942c0-.196.158-.354.354-.354zm2.828 0c.195 0 .354.158.354.354v.942c0 .195-.159.353-.354.353s-.354-.158-.354-.353v-.942c0-.196.159-.354.354-.354zm-1.416-5.896c-.326 0-.59.263-.59.588 0 .326.264.589.59.589.325 0 .589-.263.589-.589-.001-.325-.264-.588-.589-.588z"/><path d="m292.526 115.188v-.126zm1.296 1.295h.125zm-.941 1.246-.034-.121c-.054.016-.091.065-.091.121zm0 1.236h-.125c0 .069.056.125.125.125zm2.477 0v-.125zm2.239 2.238h.125zm0 2.828h.125zm-2.239 2.239v.125zm-5.658 0v.125zm-2.239-2.239h-.125zm0-2.828h-.125zm2.239-2.238v-.125zm2.474 0v.125c.069 0 .125-.056.125-.125zm0-1.236h.125c0-.056-.037-.105-.091-.12zm-.945-1.246h-.125zm-1.529 3.189v-.125zm-1.532 1.531h-.125zm0 2.828h-.125zm1.532 1.531v.126zm5.658 0v.126zm1.532-1.531h.125zm0-2.828h.125zm-1.532-1.531v-.125zm-4.244 2.119v-.125zm.353 1.296h.125zm-.353.353v.125zm-.354-.353h-.125zm3.182-1.296v-.125h-.001zm.354 1.296h.125zm-.354.353-.001.125h.001zm-.354-.353h-.125zm-1.062-7.192v-.125zm-.59.588h-.125zm.59.589v.125zm.589-.589h.125zm-.589-1.295v.124c.646.001 1.17.525 1.171 1.171h.125.125c-.001-.784-.637-1.42-1.421-1.42zm1.296 1.295h-.125c0 .535-.359.985-.85 1.125l.034.121.034.12c.595-.17 1.032-.716 1.032-1.366zm-.941 1.246h-.125v1.236h.125.125v-1.236zm0 1.236v.125h2.477v-.125-.125h-2.477zm2.477 0v.125c1.167 0 2.114.946 2.114 2.113h.125.125c0-1.305-1.059-2.363-2.364-2.363zm2.239 2.238h-.125v2.828h.125.125v-2.828zm0 2.828h-.125c0 1.167-.947 2.113-2.114 2.114v.125.125c1.305-.001 2.364-1.058 2.364-2.364zm-2.239 2.239v-.125h-5.658v.125.125h5.658zm-5.658 0v-.125c-1.167 0-2.114-.947-2.114-2.114h-.125-.125c0 1.306 1.059 2.364 2.364 2.364zm-2.239-2.239h.125v-2.828h-.125-.125v2.828zm0-2.828h.125c0-1.167.947-2.113 2.114-2.113v-.125-.125c-1.305 0-2.364 1.058-2.364 2.363zm2.239-2.238v.125h2.474v-.125-.125h-2.474zm2.474 0h.125v-1.236h-.125-.125v1.236zm0-1.236.034-.12c-.493-.138-.854-.589-.854-1.126h-.125-.125c0 .652.439 1.199 1.036 1.367zm-.945-1.246h.125c0-.646.525-1.171 1.172-1.171v-.124-.126c-.785 0-1.422.637-1.422 1.421zm-1.529 3.189v-.125c-.915 0-1.657.741-1.657 1.656h.125.125c0-.777.63-1.406 1.407-1.406zm-1.532 1.531h-.125v2.828h.125.125v-2.828zm0 2.828h-.125c0 .915.742 1.656 1.657 1.657v-.126-.124c-.777-.001-1.407-.63-1.407-1.407zm1.532 1.531v.126h5.658v-.126-.124h-5.658zm5.658 0v.126c.915-.001 1.657-.742 1.657-1.657h-.125-.125c0 .777-.63 1.406-1.407 1.407zm1.532-1.531h.125v-2.828h-.125-.125v2.828zm0-2.828h.125c0-.915-.742-1.656-1.657-1.656v.125.125c.777 0 1.407.629 1.407 1.406zm-1.532-1.531v-.125h-5.658v.125.125h5.658zm-4.244 2.119v.125c.126 0 .228.102.228.229h.125.125c0-.265-.214-.479-.478-.479zm.353.354h-.125v.942h.125.125v-.942zm0 .942h-.125c0 .126-.102.228-.228.228v.125.125c.264 0 .478-.214.478-.478zm-.353.353v-.125c-.127 0-.229-.102-.229-.228h-.125-.125c0 .264.214.478.479.478zm-.354-.353h.125v-.942h-.125-.125v.942zm0-.942h.125c0-.127.102-.229.229-.229v-.125-.125c-.265 0-.479.214-.479.479zm3.182-.354v.125c.126 0 .229.103.229.229h.125.125c0-.265-.215-.479-.479-.479zm.354.354h-.125v.942h.125.125v-.942zm0 .942h-.125c0 .126-.103.228-.229.228v.125.125c.264 0 .479-.213.479-.478zm-.354.353v-.125c-.126 0-.229-.102-.229-.228h-.125-.125c0 .264.215.478.478.478zm-.354-.353h.125v-.942h-.125-.125v.942zm0-.942h.125c0-.126.103-.229.229-.229v-.125l-.001-.125c-.263 0-.478.214-.478.479zm-1.062-6.25v-.125c-.395 0-.715.319-.715.713h.125.125c0-.256.208-.463.465-.463zm-.59.588h-.125c0 .395.32.714.715.714v-.125-.125c-.257 0-.465-.208-.465-.464zm.59.589v.125c.394 0 .714-.319.714-.714h-.125-.125c0 .256-.208.464-.464.464zm.589-.589h.125c-.001-.394-.32-.713-.714-.713v.125.125c.256 0 .463.207.464.463z"/></g><path d="m270.08 288.188h316.29v3.429c0 1.657-1.343 3-3 3h-310.29c-1.657 0-3-1.343-3-3z" fill="#fa4edf" opacity=".6"/><path d="m308.629 288.188h277.741v3.429c0 1.657-1.343 3-3 3h-271.741c-1.657 0-3-1.343-3-3z" fill="#fa4edf" opacity=".6"/><g clip-path="url(#b)"><path d="m42.5117 257.688c0-2.192 1.7771-3.969 3.9693-3.969h309.061c2.193 0 3.97 1.777 3.97 3.969v128.061c0 2.193-1.777 3.97-3.97 3.97h-309.061c-2.1922 0-3.9693-1.777-3.9693-3.97z" fill="#232323"/><path d="m67.3138 380.227v-.024l.144-.36 1.554-3.942h.606l1.554 3.942.15.36v.024h-.672l-.012-.024-.132-.36-.264-.69h-1.866l-.264.69-.138.36-.012.024zm1.272-1.62h1.446l-.72-1.878zm4.7847 1.68c-1.098 0-2.106-.726-2.106-2.226 0-1.494 1.02-2.22 2.106-2.22.966 0 1.734.54 1.866 1.35l-.618.144h-.024c-.084-.564-.588-.948-1.224-.948-.846 0-1.464.594-1.464 1.674 0 1.086.618 1.68 1.464 1.68.642 0 1.122-.366 1.224-.99l.642.096c-.156.924-.924 1.44-1.866 1.44zm3.1053-.06v-3.78h-1.362v-.546h3.342v.546h-1.356v3.78zm2.9593-.384v.36.024h-.624v-4.326h.624zm1.9566.384-1.488-3.942-.138-.36v-.024h.666l.012.024.132.36 1.128 3.114 1.122-3.114.132-.36.012-.024h.654v.024l-.138.36-1.488 3.942zm2.5162 0v-4.326h2.838v.546h-2.214v1.218h1.776v.552h-1.776v1.464h2.214v.546z" fill="#e6e6e6"/><rect fill="#00f701" height="4.82031" rx="1" width="4.82031" x="57.3826" y="375.406"/><path d="m85.0442 278.472c-.608 0-1.164-.12-1.668-.36-.496-.24-.9-.568-1.212-.984-.304-.416-.48-.88-.528-1.392l1.404-.252h.048c.032.32.136.608.312.864.184.256.42.456.708.6s.6.216.936.216c.496 0 .892-.108 1.188-.324.304-.216.456-.5.456-.852 0-.32-.104-.576-.312-.768-.2-.192-.46-.336-.78-.432l-1.452-.408c-.392-.112-.752-.264-1.08-.456s-.592-.444-.792-.756c-.192-.312-.288-.704-.288-1.176 0-.488.128-.912.384-1.272.264-.36.62-.64 1.068-.84.456-.2.964-.3 1.524-.3.552 0 1.056.096 1.512.288.464.192.844.46 1.14.804s.464.744.504 1.2l-1.392.264h-.048c-.064-.352-.248-.648-.552-.888s-.692-.36-1.164-.36c-.456 0-.812.092-1.068.276-.256.176-.384.428-.384.756 0 .28.092.5.276.66.192.16.44.284.744.372l1.476.42c.4.112.768.264 1.104.456s.604.452.804.78.3.752.3 1.272-.136.976-.408 1.368c-.264.384-.636.684-1.116.9-.472.216-1.02.324-1.644.324zm5.8715-.12v-7.344h-2.676v-1.308h6.816v1.308h-2.652v7.344zm2.9093 0v-.048l.288-.72 3.048-7.884h1.452l3.06 7.884.3.72v.048h-1.584l-.024-.048-.264-.72-.468-1.236h-3.492l-.468 1.236-.276.72-.024.048zm2.808-3.312h2.52l-1.26-3.348zm5.924 3.312v-8.652h3.672c.856 0 1.532.232 2.028.696.496.456.744 1.084.744 1.884 0 .488-.124.92-.372 1.296-.24.376-.572.668-.996.876.312.152.544.348.696.588s.28.548.384.924l.444 1.608.18.732v.048h-1.608l-.492-2.1c-.104-.496-.316-.856-.636-1.08s-.8-.336-1.44-.336h-1.116v3.516zm1.488-4.824h1.968c.464 0 .824-.108 1.08-.324.256-.224.384-.532.384-.924 0-.4-.128-.712-.384-.936s-.616-.336-1.08-.336h-1.968zm7.897 4.824v-7.344h-2.676v-1.308h6.816v1.308h-2.652v7.344z" fill="#e6e6e6"/><rect fill="#35b6ff" height="19.8568" rx="4.96419" width="19.8568" x="55.373" y="264.5"/><path d="m64.5671 276.195c.4896-.489.7344-1.078.7344-1.765 0-.688-.2448-1.276-.7344-1.766-.4895-.49-1.0781-.734-1.7656-.734s-1.276.244-1.7656.734-.7344 1.078-.7344 1.766c0 .687.2448 1.276.7344 1.765.4896.49 1.0781.735 1.7656.735s1.2761-.245 1.7656-.735zm-1.7656 1.985c-1.0417 0-1.9271-.365-2.6562-1.094-.7292-.729-1.0938-1.615-1.0938-2.656 0-1.042.3646-1.927 1.0938-2.657.7291-.729 1.6145-1.093 2.6562-1.093.9375 0 1.7527.297 2.4456.89.693.594 1.1121 1.339 1.2575 2.235h4.4219c.1771 0 .3256.06.4456.18s.1798.268.1794.445c-.0004.176-.0604.325-.18.445-.1196.121-.2679.181-.445.18h-4.4219c-.1458.896-.5652 1.64-1.2581 2.234s-1.5079.891-2.445.891z" fill="#fff"/><path d="m307.632 374.316h.5zm-10.909 116.652-.006.5h.006zm-.337-.004-.013.5h.007zm-12.68-12.68-.5.006v.007zm-.004-.336h-.5v.006zm-125.318-40.754v.5zm-129.8264-9.662-.0058.5h.0058zm-.3369-.004-.0127.5h.0069zm-12.6797-12.679-.5.005.0002.007zm-.0039-.336h-.5v.006zm12.6836-58.79-.0058-.5h-.0069zm.3369-.004v-.5h-.0058zm279.0744 68.456h.5zm-14.165 53.773h-.5zm-264.9094-112.465v-.5zm-3.2558 49.03h-.5zm3.2558 3.255v.5zm126.2344-53.909.463-.187zm-12.074-8.14v.5c5.254 0 9.753 3.237 11.61 7.828l.464-.188.463-.187c-2.004-4.956-6.861-8.453-12.537-8.453zm16.496 11.578v.5h141.397v-.5-.5h-141.397zm141.397 0v.5c3.601 0 6.521 2.919 6.521 6.519h.5.5c0-4.153-3.368-7.519-7.521-7.519zm7.021 7.019h-.5v27.363h.5.5v-27.363zm3.969 31.332v.5h117.06v-.5-.5h-117.06zm117.06 0v.5c6.915 0 12.521 5.606 12.521 12.521h.5.5c0-7.467-6.054-13.521-13.521-13.521zm13.021 13.021h-.5v68.329h.5.5v-68.329zm-3.97 72.299v-.5h-140.989v.5.5h140.989zm-140.989 0 .005-.5-.336-.004-.006.5-.006.5.337.004zm-.337-.004.012-.5c-6.657-.169-12.023-5.535-12.192-12.192l-.5.012-.5.013c.182 7.19 5.977 12.984 13.167 13.167zm-12.68-12.68.5-.006-.004-.336-.5.006-.5.006.004.336zm-.004-.336h.5v-36.784h-.5-.5v36.784zm-3.969-40.754v-.5h-121.349v.5.5h121.349zm-121.349 0v-.5c-3.113 0-5.636-2.523-5.636-5.635h-.5-.5c0 3.665 2.971 6.635 6.636 6.635zm-9.662-9.662v-.5h-120.1644v.5.5h120.1644zm-120.1644 0 .0058-.5-.3369-.004-.0058.5-.0058.5.3369.004zm-.3369-.004.0127-.5c-6.6574-.168-12.0238-5.535-12.1925-12.192l-.4999.013-.4998.012c.1822 7.19 5.9771 12.985 13.1668 13.167zm-12.6797-12.679.5-.006-.0039-.336-.5.006-.5.006.0039.335zm-.0039-.336h.5v-45.774h-.5-.5v45.774zm0-45.774h.5c0-6.806 5.4315-12.345 12.1963-12.517l-.0127-.499-.0127-.5c-7.3057.185-13.1709 6.166-13.1709 13.516zm12.6836-13.016.0058.5.3369-.004-.0058-.5-.0058-.5-.3369.004zm.3369-.004v.5h114.1604v-.5-.5h-114.1604zm279.0744 68.456h-.5c0 6.914-5.606 12.519-12.521 12.519v.5.5c7.467 0 13.521-6.052 13.521-13.519zm-14.165 14.164h-.5v39.609h.5.5v-39.609zm0 39.609h-.5c0 2.074 1.682 3.755 3.756 3.755v-.5-.5c-1.522 0-2.756-1.233-2.756-2.755zm3.256 3.255v.5h131.224v-.5-.5h-131.224zm135.193-3.969h.5v-58.565h-.5-.5v58.565zm0-58.565h.5c0-2.074-1.681-3.756-3.755-3.756v.5.5c1.521 0 2.755 1.234 2.755 2.756zm-3.255-3.256v-.5h-117.06v.5.5h117.06zm-121.029 3.969h-.5v4.793h.5.5v-4.793zm-279.0744-53.899v-.5c-2.0738 0-3.7558 1.682-3.7558 3.756h.5.5c0-1.521 1.2343-2.756 2.7558-2.756zm-3.2558 3.256h-.5v45.774h.5.5v-45.774zm0 45.774h-.5c.0001 2.074 1.6822 3.755 3.7558 3.755v-.5-.5c-1.5216 0-2.7557-1.234-2.7558-2.755zm3.2558 3.255v.5h113.4464v-.5-.5h-113.4464zm117.4164-3.97h.5v-45.059h-.5-.5v45.059zm0-45.059h.5c0-2.074-1.682-3.756-3.756-3.756v.5.5c1.521 0 2.756 1.235 2.756 2.756zm-3.256-3.256v-.5h-114.1604v.5.5h114.1604zm168.883 49.93v-.5c-2.468 0-4.469 2.001-4.469 4.469h.5.5c0-1.916 1.553-3.469 3.469-3.469zm116.346 65.79v.5c2.468 0 4.469-2.001 4.469-4.469h-.5-.5c0 1.916-1.553 3.469-3.469 3.469zm-285.943-63.435v.5c2.469 0 4.47-2.001 4.47-4.47h-.5-.5c0 1.916-1.554 3.47-3.47 3.47zm152.607 19.426v-.5c-.908 0-1.644.737-1.644 1.645h.5.5c0-.356.288-.645.644-.645zm13.021-35.515h-.5c0 2.468 2.001 4.469 4.469 4.469v-.5-.5c-1.916 0-3.469-1.553-3.469-3.469zm-155.384 29.38h.5c0-2.224-1.803-4.027-4.026-4.027v.5.5c1.671 0 3.026 1.355 3.026 3.027zm2.544-67.2-.464.188c.805 1.988 2.587 3.75 4.886 3.75v-.5-.5c-1.748 0-3.245-1.361-3.959-3.125zm128.91 77.305h.5c0-2.469-2.001-4.47-4.469-4.47v.5.5c1.916 0 3.469 1.554 3.469 3.47zm157.98 45.834h-.5c0 1.917-1.554 3.47-3.47 3.47v.5.5c2.469 0 4.47-2.001 4.47-4.47z" fill="#3d3d3d" mask="url(#d)"/><path d="m26.6318 294.812h353.9452" stroke="#3d3d3d" stroke-width=".5"/><path d="m336.071 294.664v177.118" stroke="#3d3d3d" stroke-width=".5"/><path d="m338.243 294.812h18.7979v94.9102h-18.7979z" fill="url(#c)" fill-opacity=".49" opacity=".4"/><path d="m57.1892 317.977v.695.047h-1.2047v-8.352h1.2047zm1.4953.742v-6.012h1.1119v.88c.3823-.544 1.0425-.996 1.8649-.996 1.3089 0 2.2471.811 2.2471 2.12v4.008h-1.1235v-3.753c0-.869-.5097-1.39-1.3552-1.39-.7993 0-1.4363.672-1.6333 1.506v3.637zm6.5042 2.166v-8.178h1.1119v.869c.3475-.568 1.1236-.985 1.9576-.985 1.5985 0 2.7915 1.321 2.7915 3.128s-1.193 3.116-2.8263 3.116c-.7992 0-1.5753-.417-1.9228-.985v3.035zm2.8726-3.035c1.0772 0 1.8301-.857 1.8301-2.12 0-1.285-.7529-2.154-1.7954-2.154-.9961 0-1.7143.741-1.7954 1.76v.777c.0811 1.019.7993 1.737 1.7607 1.737zm6.2054.985c-1.3089 0-2.2472-.811-2.2472-2.12v-4.008h1.1236v3.741c0 .973.5791 1.402 1.3552 1.402.7993 0 1.4363-.672 1.6332-1.506v-3.637h1.1236v6.012h-1.1236v-.881c-.3822.545-1.0424.997-1.8648.997zm6.5736 0c-1.0193 0-1.7606-.603-1.7606-1.854v-3.324h-1.0772v-.95c1.054 0 1.1235-.104 1.1235-1.401h1.0657v1.401h1.5753v.95h-1.5753v3.255c0 .672.3938.938.834.938.2201 0 .4285-.023.6602-.174v.962c-.1506.115-.5212.197-.8456.197zm3.9222 0c-1.5406 0-2.4209-.846-2.5483-1.819l1.0309-.359h.0463c.1275.764.6719 1.216 1.4711 1.216.6602 0 1.1004-.336 1.1004-.869 0-.44-.3012-.683-.7992-.81l-1.1468-.267c-.7065-.174-1.5058-.509-1.5058-1.587 0-.984.8919-1.749 2.1776-1.749 1.2626 0 2.0966.649 2.3051 1.576l-1.0425.312h-.0463c-.1043-.637-.5908-.984-1.2163-.984-.6254 0-1.0193.37-1.0193.764s.3012.591.7529.707l1.0309.255c.9035.22 1.6796.556 1.6796 1.772 0 1.042-.9267 1.842-2.2703 1.842z" fill="#b3b3b3"/><rect height="4.50586" rx="2.25293" stroke="#3d3d3d" width="13.7871" x="311.639" y="311.711"/></g><path d="m46.4814 254.219h309.0606c1.916 0 3.47 1.553 3.47 3.469v128.061c0 1.916-1.554 3.47-3.47 3.47h-309.0606c-1.916 0-3.4697-1.554-3.4697-3.47v-128.061c0-1.916 1.5537-3.469 3.4697-3.469z" stroke="#3d3d3d"/></svg>