<svg fill="none" height="476" viewBox="0 0 591 476" width="591" xmlns="http://www.w3.org/2000/svg"><path d="m1.30078 1.29688h587.97v472.934h-587.97z" stroke="#313131" stroke-width="2.6011"/><path d="m308.405 122.733v-13.464h3.08v1.318h-1.652v10.828h1.652v1.318zm9.069-1.397-3.176-10.431-.286-.953v-.063h1.763l.031.063.254.953 1.874 6.589c.169.603.291 1.1.365 1.492s.111.588.111.588.037-.196.111-.588c.085-.392.207-.889.366-1.492l1.762-6.335.063-.254.254-.953.016-.063h1.921l.255 1.016 1.825 6.589c.149.614.26 1.116.334 1.508.084.392.127.587.127.587s.037-.195.111-.587c.085-.392.206-.894.365-1.508l1.858-6.589.254-.953.032-.063h1.746v.063l-.302.953-3.127 10.431h-1.89l-2.048-7.192c-.169-.604-.296-1.101-.381-1.493-.074-.391-.111-.587-.111-.587s-.042.196-.127.587c-.085.392-.217.889-.397 1.493l-2.08 7.192zm13.127 0v-11.447h7.51v1.444h-5.859v3.223h4.7v1.461h-4.7v5.319zm6.899-3.461v-1.35h4.874v1.35zm10.189 3.62c-.952 0-1.762-.244-2.429-.731-.656-.497-1.154-1.185-1.492-2.064-.339-.889-.509-1.921-.509-3.096s.17-2.201.509-3.08c.338-.889.836-1.577 1.492-2.064.667-.487 1.477-.73 2.429-.73.953 0 1.757.243 2.414.73.666.487 1.169 1.17 1.508 2.048.349.879.524 1.911.524 3.096 0 1.186-.175 2.223-.524 3.112-.339.879-.842 1.561-1.508 2.048-.657.487-1.461.731-2.414.731zm0-1.445c.91 0 1.593-.402 2.048-1.207.466-.815.699-1.894.699-3.239 0-1.344-.233-2.418-.699-3.223-.455-.804-1.138-1.206-2.048-1.206-.9 0-1.582.402-2.048 1.206-.455.794-.683 1.868-.683 3.223s.228 2.435.683 3.239c.466.805 1.148 1.207 2.048 1.207zm9.73 1.445c-.953 0-1.762-.244-2.429-.731-.657-.497-1.154-1.185-1.493-2.064-.338-.889-.508-1.921-.508-3.096s.17-2.201.508-3.08c.339-.889.836-1.577 1.493-2.064.667-.487 1.476-.73 2.429-.73s1.757.243 2.413.73c.667.487 1.17 1.17 1.509 2.048.349.879.523 1.911.523 3.096 0 1.186-.174 2.223-.523 3.112-.339.879-.842 1.561-1.509 2.048-.656.487-1.46.731-2.413.731zm0-1.445c.91 0 1.593-.402 2.048-1.207.466-.815.699-1.894.699-3.239 0-1.344-.233-2.418-.699-3.223-.455-.804-1.138-1.206-2.048-1.206-.9 0-1.583.402-2.048 1.206-.455.794-.683 1.868-.683 3.223s.228 2.435.683 3.239c.465.805 1.148 1.207 2.048 1.207zm7.365 1.286v-8.256h-2.461v-1.254c.699-.011 1.238-.064 1.62-.159.381-.096.656-.281.825-.556.18-.275.307-.683.381-1.222h1.286v11.447zm7.363.159c-.931 0-1.725-.238-2.381-.715-.646-.487-1.138-1.143-1.477-1.969-.328-.836-.492-1.783-.492-2.842 0-1.27.191-2.371.572-3.302.381-.942.921-1.667 1.619-2.175.699-.508 1.519-.762 2.461-.762.635 0 1.217.111 1.747.333.539.212.989.535 1.349.969.371.434.614.979.73 1.635l-1.587.27h-.064c-.063-.55-.296-.979-.698-1.286-.403-.318-.889-.476-1.461-.476-.614 0-1.148.18-1.604.539-.455.35-.809.831-1.063 1.445s-.387 1.318-.397 2.112c0 .042-.006.085-.016.127v.175c.254-.519.651-.948 1.191-1.287.539-.349 1.18-.523 1.921-.523.709 0 1.349.158 1.921.476.582.317 1.042.757 1.381 1.318.349.561.524 1.212.524 1.953 0 .772-.18 1.46-.54 2.064-.36.603-.852 1.074-1.476 1.413-.625.338-1.345.508-2.16.508zm.032-1.445c.476 0 .9-.111 1.27-.334.371-.222.657-.523.858-.905.211-.381.317-.815.317-1.301 0-.72-.227-1.308-.682-1.763-.456-.455-1.043-.683-1.763-.683-.677 0-1.238.212-1.683.636-.434.412-.741.947-.921 1.603.053.847.323 1.519.81 2.017.487.486 1.085.73 1.794.73zm10.678-10.781v13.464h-3.08v-1.318h1.667v-10.828h-1.667v-1.318z" fill="#fdfdf8"/><path d="m364.041 321.664v-1.35h4.874v1.35zm5.792 0v-1.35h4.874v1.35zm8.827 1.778v-1.556l5.779-2.382-5.779-2.349v-1.572l7.716 3.255v1.349zm14.696 1.683v-11.447h3.604c.815 0 1.567.142 2.255.428.699.275 1.302.672 1.81 1.191.508.508.9 1.111 1.175 1.81.286.699.429 1.461.429 2.286 0 .826-.143 1.588-.429 2.287-.275.698-.667 1.307-1.175 1.826-.508.508-1.111.905-1.81 1.19-.688.286-1.44.429-2.255.429zm1.652-1.445h1.952c.773 0 1.456-.185 2.049-.556.603-.37 1.074-.878 1.413-1.524.338-.645.508-1.381.508-2.207 0-.825-.17-1.561-.508-2.207-.339-.645-.81-1.148-1.413-1.508-.593-.37-1.276-.556-2.049-.556h-1.952zm8.807 1.445v-11.447h7.51v1.444h-5.859v3.223h4.7v1.461h-4.7v3.874h5.859v1.445zm8.644 0v-11.447h4.7c1.132 0 2.021.307 2.667.92.646.604.969 1.419.969 2.446 0 .666-.149 1.259-.445 1.778-.286.508-.704.905-1.254 1.191-.54.285-1.186.428-1.937.428h-3.049v4.684zm1.651-6.129h2.858c.678 0 1.202-.174 1.572-.524.371-.359.556-.836.556-1.428 0-.593-.185-1.059-.556-1.398-.37-.349-.894-.524-1.572-.524h-2.858zm7.645 6.129v-11.447h1.651v10.002h5.557v1.445zm12.223.159c-.826 0-1.582-.143-2.27-.429-.688-.296-1.286-.709-1.795-1.238-.508-.53-.905-1.149-1.19-1.858-.276-.72-.413-1.508-.413-2.366 0-.846.137-1.624.413-2.334.285-.719.682-1.344 1.19-1.873.509-.529 1.107-.937 1.795-1.223.688-.296 1.444-.444 2.27-.444.815 0 1.567.148 2.255.444.698.286 1.301.694 1.81 1.223.508.519.899 1.138 1.174 1.858.286.709.429 1.492.429 2.349 0 .858-.143 1.646-.429 2.366-.275.72-.666 1.344-1.174 1.874-.509.518-1.112.926-1.81 1.222-.688.286-1.44.429-2.255.429zm0-1.445c.773 0 1.455-.191 2.048-.572.603-.391 1.075-.92 1.413-1.587.339-.667.508-1.429.508-2.287 0-.857-.169-1.619-.508-2.286-.338-.667-.81-1.191-1.413-1.572-.593-.381-1.275-.571-2.048-.571s-1.461.19-2.064.571c-.593.381-1.059.905-1.397 1.572-.339.667-.508 1.429-.508 2.286 0 .858.169 1.62.508 2.287.338.667.804 1.196 1.397 1.587.603.381 1.291.572 2.064.572zm8.829 1.286v-4.779l-3.398-5.652-.572-.953v-.063h1.794l.032.063.556.953 2.413 4.08 2.445-4.08.556-.953.048-.063h1.746v.063l-.572.953-3.397 5.652v4.779zm11.657 1.397v-13.464h3.08v1.318h-1.651v10.828h1.651v1.318zm5.513-1.397v-.064l.381-.952 4.113-10.431h1.603l4.112 10.431.397.952v.064h-1.778l-.032-.064-.349-.952-.699-1.826h-4.937l-.699 1.826-.365.952-.032.064zm3.366-4.287h3.827l-1.906-4.969zm12.662 4.446c-.731 0-1.429-.122-2.096-.365-.667-.244-1.265-.609-1.794-1.096-.519-.487-.932-1.095-1.239-1.826-.296-.741-.444-1.609-.444-2.604 0-.984.153-1.841.46-2.572.307-.741.72-1.355 1.239-1.841.529-.487 1.127-.853 1.794-1.096s1.36-.365 2.08-.365c.857 0 1.635.148 2.334.444.698.297 1.275.715 1.73 1.255.466.529.757 1.153.873 1.873l-1.635.381h-.063c-.075-.497-.265-.931-.572-1.302-.296-.381-.677-.677-1.143-.889-.455-.212-.963-.317-1.524-.317-.741 0-1.408.174-2.001.524-.582.338-1.042.836-1.381 1.492-.328.656-.492 1.461-.492 2.413 0 .953.164 1.763.492 2.43.339.656.799 1.159 1.381 1.508.593.339 1.26.508 2.001.508.846 0 1.561-.228 2.143-.683.593-.465.958-1.111 1.096-1.937l1.698.254c-.137.815-.439 1.509-.905 2.08-.465.561-1.047.99-1.746 1.286-.688.297-1.45.445-2.286.445zm8.217-.159v-10.003h-3.604v-1.444h8.843v1.444h-3.588v10.003zm7.831-1.016v.952.064h-1.652v-.064-.952-9.415-.953-.063h1.652v.063.953zm5.177 1.016-3.937-10.431-.366-.953v-.063h1.763l.032.063.349.953 2.985 8.24 2.969-8.24.349-.953.032-.063h1.73v.063l-.365.953-3.937 10.431zm6.659 0v-11.447h7.509v1.444h-5.858v3.223h4.699v1.461h-4.699v3.874h5.858v1.445zm13.903-12.067v13.464h-3.081v-1.318h1.668v-10.828h-1.668v-1.318z" fill="#fdfdf8"/><rect fill="#f9d0de" height="15.0011" rx="7.50055" width="259.957" x="137.172" y="159.391"/><rect fill="#ff22fc" height="15.0011" rx="7.50055" width="140.758" x="137.172" y="188.359"/><rect fill="#64fefb" height="15.0011" rx="7.50055" width="175.307" x="137.172" y="217.32"/><path d="m382.049 117.258h34.504c2.193 0 3.97 1.777 3.97 3.969v126.459c0 2.192-1.777 3.969-3.97 3.969h-294.377c-2.192 0-3.969-1.777-3.969-3.969v-126.459c0-2.192 1.777-3.969 3.969-3.969h177.085" stroke="#4d4d4d" stroke-width="1.98464"/><path d="m199.48 339.633h229.117 104.1c2.192 0 3.969-1.777 3.969-3.969v-33.189c0-2.192-1.777-3.969-3.969-3.969h-333.217c-2.193 0-3.97 1.777-3.97 3.969v33.188c0 2.193 1.777 3.97 3.97 3.97z" stroke="#4d4d4d" stroke-width="1.98464"/><path d="m430.33 213.617h18.23v18.23h-18.23z" fill="#b4fdf9" transform="matrix(0 1 -1 0 643.947 -216.713)"/><path d="m416.953 223.126.742-.756 2.626 2.639v-6.983h1.169v6.97l2.639-2.612.728.756-3.959 3.931z" fill="#1b1b1b"/><rect fill="#fa4edf" height="15.3731" rx="3.08019" transform="matrix(1 0 0 -1 236.812 326.75)" width="15.3731"/><rect fill="#fa4edf" height="15.3731" rx="3.08019" transform="matrix(1 0 0 -1 311.371 326.75)" width="15.3731"/><rect height="14.141" rx="2.46415" stroke="#ffcc02" stroke-width="1.23208" width="14.141" x="212.579" y="311.999"/><path d="m289.602 311.999h9.212c1.361 0 2.464 1.103 2.464 2.464v9.213c0 1.361-1.103 2.464-2.464 2.464h-9.212c-1.361 0-2.464-1.103-2.464-2.464v-9.213c0-1.361 1.103-2.464 2.464-2.464z" stroke="#ffcc02" stroke-width="1.23208"/><rect fill="#fa4edf" fill-opacity=".48" height="15.3731" rx="3.08019" transform="matrix(1 0 0 -1 261.672 326.766)" width="15.3731"/><rect fill="#fa4edf" fill-opacity=".48" height="15.3731" rx="3.08019" transform="matrix(1 0 0 -1 336.221 326.766)" width="15.3731"/><g stroke="#4d4d4d" stroke-width="1.98464"><path d="m217.22 117.364v-22.2262c0-2.1921-1.777-3.9692-3.969-3.9692h-40.42c-2.193 0-3.97-1.7771-3.97-3.9693v-85.19149"/><path d="m221.242 252.867v43.825"/><path d="m496.906 339.617v133.32"/></g></svg>