<svg width="591" height="476" viewBox="0 0 591 476" fill="none" xmlns="http://www.w3.org/2000/svg">
<rect x="1.30078" y="1.29688" width="587.97" height="472.934" stroke="#313131" stroke-width="2.6011"/>
<rect x="116.34" y="90.0234" width="357.91" height="295.456" rx="3.96928" stroke="#4D4D4D" stroke-width="1.98464"/>
<path d="M118.119 138.312H473.765" stroke="#4D4D4D" stroke-width="1.98464"/>
<path d="M444.871 118.25V118.194L445.399 117.361L448.191 112.971L445.788 109.123L445.26 108.289V108.234H446.857L446.885 108.289L447.413 109.123L449.011 111.665L450.581 109.123L451.095 108.289L451.136 108.234H452.692V108.289L452.164 109.123L449.761 112.887L452.567 117.361L453.095 118.194V118.25H451.498L451.456 118.194L450.942 117.361L448.955 114.179L446.982 117.361L446.455 118.194L446.413 118.25H444.871Z" fill="#FDFDF8"/>
<path d="M428.855 114.304L417.394 114.304L417.394 112.999L428.855 112.999L428.855 114.304Z" fill="#FDFDF8"/>
<path d="M139.119 170.89V169.541H143.993V170.89H139.119ZM144.911 170.89V169.541H149.785V170.89H144.911ZM153.738 172.669V171.113L159.517 168.731L153.738 166.381V164.809L161.454 168.064V169.414L153.738 172.669ZM168.434 174.352V162.904H172.039C172.854 162.904 173.605 163.047 174.293 163.333C174.992 163.608 175.595 164.005 176.103 164.524C176.611 165.032 177.003 165.635 177.278 166.334C177.564 167.032 177.707 167.794 177.707 168.62C177.707 169.446 177.564 170.208 177.278 170.906C177.003 171.605 176.611 172.213 176.103 172.732C175.595 173.24 174.992 173.637 174.293 173.923C173.605 174.209 172.854 174.352 172.039 174.352H168.434ZM170.086 172.907H172.039C172.811 172.907 173.494 172.722 174.087 172.351C174.69 171.981 175.161 171.473 175.5 170.827C175.839 170.181 176.008 169.446 176.008 168.62C176.008 167.794 175.839 167.059 175.5 166.413C175.161 165.767 174.69 165.265 174.087 164.905C173.494 164.534 172.811 164.349 172.039 164.349H170.086V172.907ZM178.893 174.352V162.904H186.403V164.349H180.544V167.572H185.244V169.033H180.544V172.907H186.403V174.352H178.893ZM187.537 174.352V162.904H192.237C193.369 162.904 194.259 163.211 194.904 163.825C195.55 164.428 195.873 165.243 195.873 166.27C195.873 166.937 195.725 167.53 195.428 168.048C195.142 168.556 194.724 168.953 194.174 169.239C193.634 169.525 192.988 169.668 192.237 169.668H189.188V174.352H187.537ZM189.188 168.223H192.046C192.724 168.223 193.248 168.048 193.618 167.699C193.989 167.339 194.174 166.863 194.174 166.27C194.174 165.677 193.989 165.212 193.618 164.873C193.248 164.524 192.724 164.349 192.046 164.349H189.188V168.223ZM196.833 174.352V162.904H198.484V172.907H204.041V174.352H196.833ZM209.056 174.51C208.231 174.51 207.474 174.367 206.786 174.082C206.098 173.785 205.5 173.372 204.992 172.843C204.484 172.314 204.087 171.695 203.801 170.986C203.526 170.266 203.388 169.477 203.388 168.62C203.388 167.773 203.526 166.995 203.801 166.286C204.087 165.566 204.484 164.942 204.992 164.412C205.5 163.883 206.098 163.476 206.786 163.19C207.474 162.894 208.231 162.745 209.056 162.745C209.871 162.745 210.623 162.894 211.311 163.19C212.009 163.476 212.613 163.883 213.121 164.412C213.629 164.931 214.02 165.55 214.296 166.27C214.581 166.979 214.724 167.763 214.724 168.62C214.724 169.477 214.581 170.266 214.296 170.986C214.02 171.705 213.629 172.33 213.121 172.859C212.613 173.378 212.009 173.785 211.311 174.082C210.623 174.367 209.871 174.51 209.056 174.51ZM209.056 173.066C209.829 173.066 210.512 172.875 211.104 172.494C211.708 172.102 212.179 171.573 212.517 170.906C212.856 170.239 213.025 169.477 213.025 168.62C213.025 167.763 212.856 167 212.517 166.334C212.179 165.667 211.708 165.143 211.104 164.762C210.512 164.381 209.829 164.19 209.056 164.19C208.283 164.19 207.595 164.381 206.992 164.762C206.399 165.143 205.934 165.667 205.595 166.334C205.256 167 205.087 167.763 205.087 168.62C205.087 169.477 205.256 170.239 205.595 170.906C205.934 171.573 206.399 172.102 206.992 172.494C207.595 172.875 208.283 173.066 209.056 173.066ZM217.885 174.352V169.573L214.487 163.92L213.915 162.968V162.904H215.71L215.741 162.968L216.297 163.92L218.71 168.001L221.155 163.92L221.711 162.968L221.759 162.904H223.505V162.968L222.934 163.92L219.536 169.573V174.352H217.885ZM229.542 175.749V162.285H232.622V163.603H230.971V174.431H232.622V175.749H229.542ZM240.22 174.51C239.448 174.51 238.733 174.357 238.077 174.05C237.431 173.743 236.907 173.325 236.505 172.796C236.103 172.266 235.87 171.668 235.806 171.001L237.346 170.652H237.41C237.452 171.118 237.606 171.536 237.87 171.906C238.135 172.266 238.468 172.552 238.871 172.764C239.283 172.965 239.733 173.066 240.22 173.066C240.972 173.066 241.564 172.901 241.998 172.573C242.443 172.235 242.665 171.801 242.665 171.271C242.665 170.795 242.517 170.414 242.221 170.128C241.924 169.842 241.543 169.631 241.078 169.493L239.029 168.89C238.532 168.742 238.072 168.551 237.648 168.318C237.225 168.075 236.886 167.757 236.632 167.366C236.378 166.963 236.251 166.455 236.251 165.841C236.251 165.217 236.415 164.677 236.743 164.222C237.082 163.756 237.542 163.396 238.124 163.142C238.717 162.878 239.389 162.745 240.141 162.745C240.861 162.745 241.512 162.872 242.094 163.126C242.686 163.37 243.168 163.714 243.539 164.158C243.909 164.592 244.126 165.095 244.19 165.667L242.681 166.032H242.618C242.512 165.482 242.242 165.037 241.808 164.698C241.374 164.36 240.818 164.19 240.141 164.19C239.453 164.19 238.913 164.333 238.521 164.619C238.14 164.894 237.95 165.275 237.95 165.762C237.95 166.185 238.087 166.519 238.363 166.762C238.648 167.006 239.014 167.191 239.458 167.318L241.554 167.921C242.073 168.07 242.544 168.271 242.967 168.525C243.39 168.779 243.729 169.123 243.983 169.557C244.237 169.98 244.364 170.525 244.364 171.192C244.364 171.859 244.19 172.441 243.84 172.938C243.501 173.436 243.02 173.822 242.395 174.098C241.771 174.373 241.046 174.51 240.22 174.51ZM247.834 174.352V164.349H244.23V162.904H253.073V164.349H249.485V174.352H247.834ZM251.274 174.352V174.288L251.655 173.335L255.768 162.904H257.371L261.483 173.335L261.88 174.288V174.352H260.102L260.07 174.288L259.721 173.335L259.022 171.51H254.085L253.386 173.335L253.021 174.288L252.989 174.352H251.274ZM254.64 170.065H258.467L256.561 165.095L254.64 170.065ZM263.68 174.352V164.349H260.076V162.904H268.92V164.349H265.332V174.352H263.68ZM274.036 174.51C273.168 174.51 272.4 174.346 271.734 174.018C271.077 173.69 270.564 173.219 270.194 172.605C269.823 171.981 269.638 171.234 269.638 170.366V162.904H271.289V170.446C271.289 171.271 271.543 171.917 272.051 172.383C272.559 172.838 273.221 173.066 274.036 173.066C274.851 173.066 275.512 172.838 276.02 172.383C276.539 171.917 276.798 171.271 276.798 170.446V162.904H278.45V170.366C278.45 171.234 278.264 171.981 277.894 172.605C277.523 173.219 277.005 173.69 276.338 174.018C275.682 174.346 274.914 174.51 274.036 174.51ZM283.768 174.51C282.995 174.51 282.28 174.357 281.624 174.05C280.979 173.743 280.455 173.325 280.052 172.796C279.65 172.266 279.417 171.668 279.354 171.001L280.894 170.652H280.957C281 171.118 281.153 171.536 281.418 171.906C281.682 172.266 282.016 172.552 282.418 172.764C282.831 172.965 283.281 173.066 283.768 173.066C284.519 173.066 285.112 172.901 285.546 172.573C285.99 172.235 286.213 171.801 286.213 171.271C286.213 170.795 286.064 170.414 285.768 170.128C285.472 169.842 285.091 169.631 284.625 169.493L282.577 168.89C282.079 168.742 281.619 168.551 281.195 168.318C280.772 168.075 280.433 167.757 280.179 167.366C279.925 166.963 279.798 166.455 279.798 165.841C279.798 165.217 279.962 164.677 280.291 164.222C280.629 163.756 281.09 163.396 281.672 163.142C282.265 162.878 282.937 162.745 283.688 162.745C284.408 162.745 285.059 162.872 285.641 163.126C286.234 163.37 286.715 163.714 287.086 164.158C287.456 164.592 287.673 165.095 287.737 165.667L286.229 166.032H286.165C286.059 165.482 285.789 165.037 285.355 164.698C284.921 164.36 284.366 164.19 283.688 164.19C283 164.19 282.46 164.333 282.069 164.619C281.688 164.894 281.497 165.275 281.497 165.762C281.497 166.185 281.635 166.519 281.91 166.762C282.196 167.006 282.561 167.191 283.005 167.318L285.101 167.921C285.62 168.07 286.091 168.271 286.514 168.525C286.938 168.779 287.276 169.123 287.53 169.557C287.785 169.98 287.912 170.525 287.912 171.192C287.912 171.859 287.737 172.441 287.388 172.938C287.049 173.436 286.567 173.822 285.943 174.098C285.318 174.373 284.593 174.51 283.768 174.51ZM294.327 162.285V175.749H291.247V174.431H292.914V163.603H291.247V162.285H294.327Z" fill="#FDFDF8"/>
<path opacity="0.3" d="M143.231 212.432C142.459 212.432 141.744 212.279 141.088 211.972C140.442 211.665 139.918 211.247 139.516 210.717C139.114 210.188 138.881 209.59 138.818 208.923L140.358 208.574H140.421C140.463 209.04 140.617 209.458 140.882 209.828C141.146 210.188 141.48 210.474 141.882 210.686C142.295 210.887 142.744 210.987 143.231 210.987C143.983 210.987 144.576 210.823 145.01 210.495C145.454 210.156 145.676 209.723 145.676 209.193C145.676 208.717 145.528 208.336 145.232 208.05C144.936 207.764 144.554 207.553 144.089 207.415L142.041 206.812C141.543 206.664 141.083 206.473 140.659 206.24C140.236 205.997 139.897 205.679 139.643 205.287C139.389 204.885 139.262 204.377 139.262 203.763C139.262 203.139 139.426 202.599 139.754 202.144C140.093 201.678 140.553 201.318 141.136 201.064C141.728 200.8 142.4 200.667 143.152 200.667C143.872 200.667 144.523 200.794 145.105 201.048C145.698 201.292 146.179 201.636 146.55 202.08C146.92 202.514 147.137 203.017 147.201 203.589L145.692 203.954H145.629C145.523 203.403 145.253 202.959 144.819 202.62C144.385 202.281 143.829 202.112 143.152 202.112C142.464 202.112 141.924 202.255 141.533 202.541C141.151 202.816 140.961 203.197 140.961 203.684C140.961 204.107 141.099 204.441 141.374 204.684C141.66 204.928 142.025 205.113 142.469 205.24L144.565 205.843C145.084 205.991 145.555 206.192 145.978 206.447C146.402 206.701 146.74 207.045 146.994 207.479C147.248 207.902 147.375 208.447 147.375 209.114C147.375 209.781 147.201 210.363 146.851 210.86C146.513 211.358 146.031 211.744 145.407 212.019C144.782 212.295 144.057 212.432 143.231 212.432ZM152.835 212.432C151.967 212.432 151.2 212.268 150.533 211.94C149.877 211.612 149.363 211.141 148.993 210.527C148.622 209.902 148.437 209.156 148.437 208.288V200.826H150.088V208.368C150.088 209.193 150.342 209.839 150.85 210.305C151.358 210.76 152.02 210.987 152.835 210.987C153.65 210.987 154.312 210.76 154.82 210.305C155.338 209.839 155.598 209.193 155.598 208.368V200.826H157.249V208.288C157.249 209.156 157.064 209.902 156.693 210.527C156.323 211.141 155.804 211.612 155.137 211.94C154.481 212.268 153.713 212.432 152.835 212.432ZM163.932 212.432C163.202 212.432 162.503 212.31 161.836 212.067C161.17 211.824 160.572 211.458 160.042 210.972C159.524 210.485 159.111 209.876 158.804 209.146C158.508 208.405 158.359 207.537 158.359 206.542C158.359 205.557 158.513 204.7 158.82 203.97C159.127 203.229 159.54 202.615 160.058 202.128C160.587 201.641 161.185 201.276 161.852 201.032C162.519 200.789 163.212 200.667 163.932 200.667C164.79 200.667 165.568 200.815 166.266 201.112C166.965 201.408 167.542 201.826 167.997 202.366C168.462 202.895 168.754 203.52 168.87 204.24L167.235 204.621H167.171C167.097 204.123 166.907 203.689 166.6 203.319C166.303 202.938 165.922 202.641 165.456 202.43C165.001 202.218 164.493 202.112 163.932 202.112C163.191 202.112 162.524 202.287 161.932 202.636C161.35 202.975 160.889 203.472 160.55 204.128C160.222 204.785 160.058 205.589 160.058 206.542C160.058 207.494 160.222 208.304 160.55 208.971C160.889 209.627 161.35 210.13 161.932 210.479C162.524 210.818 163.191 210.987 163.932 210.987C164.779 210.987 165.493 210.76 166.076 210.305C166.668 209.839 167.034 209.193 167.171 208.368L168.87 208.622C168.732 209.437 168.431 210.13 167.965 210.702C167.499 211.263 166.917 211.691 166.219 211.988C165.53 212.284 164.768 212.432 163.932 212.432ZM174.98 212.432C174.249 212.432 173.551 212.31 172.884 212.067C172.217 211.824 171.619 211.458 171.09 210.972C170.571 210.485 170.158 209.876 169.852 209.146C169.555 208.405 169.407 207.537 169.407 206.542C169.407 205.557 169.56 204.7 169.867 203.97C170.174 203.229 170.587 202.615 171.106 202.128C171.635 201.641 172.233 201.276 172.9 201.032C173.567 200.789 174.26 200.667 174.98 200.667C175.837 200.667 176.615 200.815 177.314 201.112C178.012 201.408 178.589 201.826 179.044 202.366C179.51 202.895 179.801 203.52 179.918 204.24L178.282 204.621H178.219C178.145 204.123 177.954 203.689 177.647 203.319C177.351 202.938 176.97 202.641 176.504 202.43C176.049 202.218 175.541 202.112 174.98 202.112C174.239 202.112 173.572 202.287 172.979 202.636C172.397 202.975 171.937 203.472 171.598 204.128C171.27 204.785 171.106 205.589 171.106 206.542C171.106 207.494 171.27 208.304 171.598 208.971C171.937 209.627 172.397 210.13 172.979 210.479C173.572 210.818 174.239 210.987 174.98 210.987C175.827 210.987 176.541 210.76 177.123 210.305C177.716 209.839 178.081 209.193 178.219 208.368L179.918 208.622C179.78 209.437 179.478 210.13 179.013 210.702C178.547 211.263 177.965 211.691 177.266 211.988C176.578 212.284 175.816 212.432 174.98 212.432ZM180.962 212.273V200.826H188.472V202.271H182.613V205.494H187.313V206.955H182.613V210.829H188.472V212.273H180.962ZM193.244 212.432C192.472 212.432 191.757 212.279 191.101 211.972C190.455 211.665 189.931 211.247 189.529 210.717C189.127 210.188 188.894 209.59 188.831 208.923L190.371 208.574H190.434C190.476 209.04 190.63 209.458 190.895 209.828C191.159 210.188 191.493 210.474 191.895 210.686C192.308 210.887 192.757 210.987 193.244 210.987C193.996 210.987 194.589 210.823 195.023 210.495C195.467 210.156 195.689 209.723 195.689 209.193C195.689 208.717 195.541 208.336 195.245 208.05C194.949 207.764 194.567 207.553 194.102 207.415L192.054 206.812C191.556 206.664 191.096 206.473 190.672 206.24C190.249 205.997 189.91 205.679 189.656 205.287C189.402 204.885 189.275 204.377 189.275 203.763C189.275 203.139 189.439 202.599 189.767 202.144C190.106 201.678 190.566 201.318 191.149 201.064C191.741 200.8 192.413 200.667 193.165 200.667C193.885 200.667 194.536 200.794 195.118 201.048C195.711 201.292 196.192 201.636 196.563 202.08C196.933 202.514 197.15 203.017 197.214 203.589L195.705 203.954H195.642C195.536 203.403 195.266 202.959 194.832 202.62C194.398 202.281 193.842 202.112 193.165 202.112C192.477 202.112 191.937 202.255 191.546 202.541C191.164 202.816 190.974 203.197 190.974 203.684C190.974 204.107 191.112 204.441 191.387 204.684C191.673 204.928 192.038 205.113 192.482 205.24L194.578 205.843C195.097 205.991 195.568 206.192 195.991 206.447C196.414 206.701 196.753 207.045 197.007 207.479C197.261 207.902 197.388 208.447 197.388 209.114C197.388 209.781 197.214 210.363 196.864 210.86C196.526 211.358 196.044 211.744 195.42 212.019C194.795 212.295 194.07 212.432 193.244 212.432ZM202.276 212.432C201.504 212.432 200.789 212.279 200.133 211.972C199.487 211.665 198.963 211.247 198.561 210.717C198.159 210.188 197.926 209.59 197.863 208.923L199.403 208.574H199.466C199.508 209.04 199.662 209.458 199.927 209.828C200.191 210.188 200.525 210.474 200.927 210.686C201.34 210.887 201.789 210.987 202.276 210.987C203.028 210.987 203.621 210.823 204.055 210.495C204.499 210.156 204.721 209.723 204.721 209.193C204.721 208.717 204.573 208.336 204.277 208.05C203.98 207.764 203.599 207.553 203.134 207.415L201.086 206.812C200.588 206.664 200.128 206.473 199.704 206.24C199.281 205.997 198.942 205.679 198.688 205.287C198.434 204.885 198.307 204.377 198.307 203.763C198.307 203.139 198.471 202.599 198.799 202.144C199.138 201.678 199.598 201.318 200.181 201.064C200.773 200.8 201.445 200.667 202.197 200.667C202.917 200.667 203.568 200.794 204.15 201.048C204.743 201.292 205.224 201.636 205.595 202.08C205.965 202.514 206.182 203.017 206.246 203.589L204.737 203.954H204.674C204.568 203.403 204.298 202.959 203.864 202.62C203.43 202.281 202.874 202.112 202.197 202.112C201.509 202.112 200.969 202.255 200.577 202.541C200.196 202.816 200.006 203.197 200.006 203.684C200.006 204.107 200.144 204.441 200.419 204.684C200.705 204.928 201.07 205.113 201.514 205.24L203.61 205.843C204.129 205.991 204.6 206.192 205.023 206.447C205.446 206.701 205.785 207.045 206.039 207.479C206.293 207.902 206.42 208.447 206.42 209.114C206.42 209.781 206.246 210.363 205.896 210.86C205.558 211.358 205.076 211.744 204.452 212.019C203.827 212.295 203.102 212.432 202.276 212.432Z" fill="#FDFDF8"/>
<path opacity="0.3" d="M143.517 236.049C142.565 236.049 141.755 235.806 141.088 235.319C140.432 234.822 139.934 234.134 139.596 233.255C139.257 232.366 139.087 231.334 139.087 230.159C139.087 228.984 139.257 227.957 139.596 227.079C139.934 226.19 140.432 225.502 141.088 225.015C141.755 224.528 142.565 224.284 143.517 224.284C144.47 224.284 145.274 224.528 145.93 225.015C146.597 225.502 147.1 226.184 147.439 227.063C147.788 227.941 147.963 228.973 147.963 230.159C147.963 231.344 147.788 232.382 147.439 233.271C147.1 234.149 146.597 234.832 145.93 235.319C145.274 235.806 144.47 236.049 143.517 236.049ZM143.517 234.605C144.427 234.605 145.11 234.202 145.565 233.398C146.031 232.583 146.264 231.503 146.264 230.159C146.264 228.815 146.031 227.74 145.565 226.936C145.11 226.131 144.427 225.729 143.517 225.729C142.617 225.729 141.935 226.131 141.469 226.936C141.014 227.73 140.786 228.804 140.786 230.159C140.786 231.514 141.014 232.593 141.469 233.398C141.935 234.202 142.617 234.605 143.517 234.605ZM150.882 235.891V227.635H148.421V226.38C149.12 226.37 149.66 226.317 150.041 226.221C150.422 226.126 150.697 225.941 150.866 225.666C151.046 225.391 151.173 224.983 151.247 224.443H152.534V235.891H150.882ZM153.927 232.429V231.08H158.801V232.429H153.927ZM163.783 236.049C162.989 236.049 162.28 235.917 161.656 235.652C161.031 235.377 160.539 234.986 160.179 234.478C159.819 233.969 159.639 233.356 159.639 232.636C159.639 231.98 159.83 231.403 160.211 230.905C160.592 230.397 161.095 230.043 161.719 229.841C161.211 229.619 160.798 229.28 160.481 228.825C160.163 228.37 160.004 227.899 160.004 227.412C160.004 226.798 160.163 226.258 160.481 225.793C160.798 225.316 161.237 224.946 161.798 224.681C162.37 224.417 163.032 224.284 163.783 224.284C164.545 224.284 165.207 224.417 165.768 224.681C166.339 224.946 166.784 225.316 167.101 225.793C167.419 226.258 167.578 226.798 167.578 227.412C167.578 227.899 167.419 228.37 167.101 228.825C166.784 229.28 166.371 229.619 165.863 229.841C166.488 230.043 166.99 230.397 167.371 230.905C167.752 231.403 167.943 231.98 167.943 232.636C167.943 233.356 167.763 233.969 167.403 234.478C167.043 234.986 166.551 235.377 165.927 235.652C165.302 235.917 164.588 236.049 163.783 236.049ZM163.783 234.684C164.535 234.684 165.138 234.504 165.593 234.144C166.048 233.774 166.276 233.281 166.276 232.668C166.276 232.043 166.048 231.546 165.593 231.175C165.138 230.805 164.535 230.619 163.783 230.619C163.042 230.619 162.444 230.805 161.989 231.175C161.534 231.546 161.306 232.043 161.306 232.668C161.306 233.281 161.534 233.774 161.989 234.144C162.444 234.504 163.042 234.684 163.783 234.684ZM163.783 229.238C164.429 229.238 164.947 229.079 165.339 228.762C165.741 228.434 165.942 228.016 165.942 227.507C165.942 226.957 165.747 226.513 165.355 226.174C164.963 225.825 164.439 225.65 163.783 225.65C163.137 225.65 162.619 225.825 162.227 226.174C161.836 226.513 161.64 226.957 161.64 227.507C161.64 228.016 161.836 228.434 162.227 228.762C162.629 229.079 163.148 229.238 163.783 229.238ZM170.861 235.891V227.635H168.4V226.38C169.099 226.37 169.639 226.317 170.02 226.221C170.401 226.126 170.676 225.941 170.846 225.666C171.026 225.391 171.153 224.983 171.227 224.443H172.513V235.891H170.861ZM177.971 236.049C177.177 236.049 176.468 235.917 175.843 235.652C175.219 235.377 174.727 234.986 174.367 234.478C174.007 233.969 173.827 233.356 173.827 232.636C173.827 231.98 174.017 231.403 174.398 230.905C174.78 230.397 175.282 230.043 175.907 229.841C175.399 229.619 174.986 229.28 174.668 228.825C174.351 228.37 174.192 227.899 174.192 227.412C174.192 226.798 174.351 226.258 174.668 225.793C174.986 225.316 175.425 224.946 175.986 224.681C176.558 224.417 177.219 224.284 177.971 224.284C178.733 224.284 179.394 224.417 179.955 224.681C180.527 224.946 180.972 225.316 181.289 225.793C181.607 226.258 181.765 226.798 181.765 227.412C181.765 227.899 181.607 228.37 181.289 228.825C180.972 229.28 180.559 229.619 180.051 229.841C180.675 230.043 181.178 230.397 181.559 230.905C181.94 231.403 182.131 231.98 182.131 232.636C182.131 233.356 181.951 233.969 181.591 234.478C181.231 234.986 180.739 235.377 180.114 235.652C179.49 235.917 178.775 236.049 177.971 236.049ZM177.971 234.684C178.722 234.684 179.326 234.504 179.781 234.144C180.236 233.774 180.464 233.281 180.464 232.668C180.464 232.043 180.236 231.546 179.781 231.175C179.326 230.805 178.722 230.619 177.971 230.619C177.23 230.619 176.632 230.805 176.177 231.175C175.722 231.546 175.494 232.043 175.494 232.668C175.494 233.281 175.722 233.774 176.177 234.144C176.632 234.504 177.23 234.684 177.971 234.684ZM177.971 229.238C178.616 229.238 179.135 229.079 179.527 228.762C179.929 228.434 180.13 228.016 180.13 227.507C180.13 226.957 179.934 226.513 179.543 226.174C179.151 225.825 178.627 225.65 177.971 225.65C177.325 225.65 176.806 225.825 176.415 226.174C176.023 226.513 175.827 226.957 175.827 227.507C175.827 228.016 176.023 228.434 176.415 228.762C176.817 229.079 177.336 229.238 177.971 229.238ZM185.049 235.891V227.635H182.588V226.38C183.287 226.37 183.827 226.317 184.208 226.221C184.589 226.126 184.864 225.941 185.033 225.666C185.213 225.391 185.34 224.983 185.414 224.443H186.7V235.891H185.049ZM192.159 236.049C191.365 236.049 190.655 235.917 190.031 235.652C189.406 235.377 188.914 234.986 188.554 234.478C188.195 233.969 188.015 233.356 188.015 232.636C188.015 231.98 188.205 231.403 188.586 230.905C188.967 230.397 189.47 230.043 190.094 229.841C189.586 229.619 189.174 229.28 188.856 228.825C188.539 228.37 188.38 227.899 188.38 227.412C188.38 226.798 188.539 226.258 188.856 225.793C189.174 225.316 189.613 224.946 190.174 224.681C190.745 224.417 191.407 224.284 192.159 224.284C192.921 224.284 193.582 224.417 194.143 224.681C194.715 224.946 195.159 225.316 195.477 225.793C195.794 226.258 195.953 226.798 195.953 227.412C195.953 227.899 195.794 228.37 195.477 228.825C195.159 229.28 194.746 229.619 194.238 229.841C194.863 230.043 195.366 230.397 195.747 230.905C196.128 231.403 196.318 231.98 196.318 232.636C196.318 233.356 196.138 233.969 195.778 234.478C195.419 234.986 194.926 235.377 194.302 235.652C193.677 235.917 192.963 236.049 192.159 236.049ZM192.159 234.684C192.91 234.684 193.513 234.504 193.969 234.144C194.424 233.774 194.651 233.281 194.651 232.668C194.651 232.043 194.424 231.546 193.969 231.175C193.513 230.805 192.91 230.619 192.159 230.619C191.418 230.619 190.82 230.805 190.364 231.175C189.909 231.546 189.682 232.043 189.682 232.668C189.682 233.281 189.909 233.774 190.364 234.144C190.82 234.504 191.418 234.684 192.159 234.684ZM192.159 229.238C192.804 229.238 193.323 229.079 193.714 228.762C194.117 228.434 194.318 228.016 194.318 227.507C194.318 226.957 194.122 226.513 193.73 226.174C193.339 225.825 192.815 225.65 192.159 225.65C191.513 225.65 190.994 225.825 190.603 226.174C190.211 226.513 190.015 226.957 190.015 227.507C190.015 228.016 190.211 228.434 190.603 228.762C191.005 229.079 191.523 229.238 192.159 229.238ZM196.935 235.891V234.478L201.19 230.826C201.835 230.275 202.306 229.762 202.603 229.286C202.91 228.799 203.063 228.296 203.063 227.777C203.063 227.153 202.873 226.655 202.492 226.285C202.111 225.914 201.603 225.729 200.967 225.729C200.205 225.729 199.634 225.989 199.253 226.507C198.872 227.015 198.713 227.693 198.776 228.54H198.713L197.125 228.317C197.083 227.534 197.215 226.841 197.522 226.237C197.84 225.623 198.295 225.147 198.888 224.808C199.48 224.459 200.174 224.284 200.967 224.284C201.73 224.284 202.396 224.433 202.968 224.729C203.54 225.015 203.979 225.417 204.286 225.936C204.603 226.454 204.762 227.068 204.762 227.777C204.762 228.487 204.556 229.175 204.143 229.841C203.741 230.508 203.09 231.212 202.19 231.953L199.269 234.446H204.762V235.891H196.935ZM205.424 235.891V234.478L209.679 230.826C210.325 230.275 210.796 229.762 211.092 229.286C211.399 228.799 211.553 228.296 211.553 227.777C211.553 227.153 211.362 226.655 210.981 226.285C210.6 225.914 210.092 225.729 209.457 225.729C208.695 225.729 208.123 225.989 207.742 226.507C207.361 227.015 207.202 227.693 207.266 228.54H207.202L205.615 228.317C205.572 227.534 205.704 226.841 206.011 226.237C206.329 225.623 206.784 225.147 207.377 224.808C207.97 224.459 208.663 224.284 209.457 224.284C210.219 224.284 210.886 224.433 211.457 224.729C212.029 225.015 212.468 225.417 212.775 225.936C213.093 226.454 213.251 227.068 213.251 227.777C213.251 228.487 213.045 229.175 212.632 229.841C212.23 230.508 211.579 231.212 210.679 231.953L207.758 234.446H213.251V235.891H205.424ZM213.825 232.429V231.08H218.7V232.429H213.825ZM224.015 236.049C223.062 236.049 222.253 235.806 221.586 235.319C220.929 234.822 220.432 234.134 220.093 233.255C219.755 232.366 219.585 231.334 219.585 230.159C219.585 228.984 219.755 227.957 220.093 227.079C220.432 226.19 220.929 225.502 221.586 225.015C222.253 224.528 223.062 224.284 224.015 224.284C224.967 224.284 225.772 224.528 226.428 225.015C227.095 225.502 227.598 226.184 227.937 227.063C228.286 227.941 228.46 228.973 228.46 230.159C228.46 231.344 228.286 232.382 227.937 233.271C227.598 234.149 227.095 234.832 226.428 235.319C225.772 235.806 224.967 236.049 224.015 236.049ZM224.015 234.605C224.925 234.605 225.608 234.202 226.063 233.398C226.529 232.583 226.762 231.503 226.762 230.159C226.762 228.815 226.529 227.74 226.063 226.936C225.608 226.131 224.925 225.729 224.015 225.729C223.115 225.729 222.432 226.131 221.967 226.936C221.512 227.73 221.284 228.804 221.284 230.159C221.284 231.514 221.512 232.593 221.967 233.398C222.432 234.202 223.115 234.605 224.015 234.605ZM233.745 236.049C232.792 236.049 231.982 235.806 231.315 235.319C230.659 234.822 230.162 234.134 229.823 233.255C229.484 232.366 229.315 231.334 229.315 230.159C229.315 228.984 229.484 227.957 229.823 227.079C230.162 226.19 230.659 225.502 231.315 225.015C231.982 224.528 232.792 224.284 233.745 224.284C234.697 224.284 235.502 224.528 236.158 225.015C236.825 225.502 237.328 226.184 237.666 227.063C238.016 227.941 238.19 228.973 238.19 230.159C238.19 231.344 238.016 232.382 237.666 233.271C237.328 234.149 236.825 234.832 236.158 235.319C235.502 235.806 234.697 236.049 233.745 236.049ZM233.745 234.605C234.655 234.605 235.338 234.202 235.793 233.398C236.258 232.583 236.491 231.503 236.491 230.159C236.491 228.815 236.258 227.74 235.793 226.936C235.338 226.131 234.655 225.729 233.745 225.729C232.845 225.729 232.162 226.131 231.696 226.936C231.241 227.73 231.014 228.804 231.014 230.159C231.014 231.514 231.241 232.593 231.696 233.398C232.162 234.202 232.845 234.605 233.745 234.605ZM241.11 235.891V227.635H238.649V226.38C239.347 226.37 239.887 226.317 240.268 226.221C240.649 226.126 240.924 225.941 241.094 225.666C241.274 225.391 241.401 224.983 241.475 224.443H242.761V235.891H241.11ZM248.298 224.284C249.24 224.284 250.034 224.528 250.68 225.015C251.326 225.491 251.813 226.147 252.141 226.984C252.479 227.809 252.649 228.751 252.649 229.81C252.649 231.08 252.458 232.186 252.077 233.128C251.696 234.059 251.156 234.779 250.458 235.287C249.759 235.795 248.939 236.049 247.997 236.049C247.372 236.049 246.79 235.944 246.25 235.732C245.71 235.51 245.261 235.181 244.901 234.747C244.541 234.313 244.297 233.768 244.17 233.112L245.758 232.842H245.822C245.885 233.393 246.118 233.827 246.52 234.144C246.922 234.451 247.409 234.605 247.981 234.605C248.605 234.605 249.14 234.43 249.584 234.081C250.04 233.721 250.394 233.234 250.648 232.62C250.902 231.995 251.035 231.292 251.045 230.508C251.045 230.466 251.045 230.424 251.045 230.381C251.056 230.339 251.061 230.281 251.061 230.207C250.807 230.725 250.41 231.159 249.87 231.509C249.341 231.847 248.701 232.017 247.949 232.017C247.24 232.017 246.594 231.858 246.012 231.54C245.441 231.223 244.98 230.783 244.631 230.222C244.292 229.661 244.123 229.011 244.123 228.27C244.123 227.486 244.303 226.798 244.663 226.206C245.022 225.602 245.515 225.131 246.139 224.793C246.774 224.454 247.494 224.284 248.298 224.284ZM248.267 225.729C247.79 225.729 247.367 225.84 246.997 226.063C246.637 226.285 246.351 226.587 246.139 226.968C245.927 227.349 245.822 227.783 245.822 228.27C245.822 228.979 246.049 229.566 246.504 230.032C246.97 230.487 247.558 230.715 248.267 230.715C248.944 230.715 249.505 230.503 249.95 230.08C250.394 229.656 250.701 229.122 250.871 228.476C250.828 227.629 250.558 226.962 250.061 226.475C249.574 225.978 248.976 225.729 248.267 225.729ZM255.623 235.891V227.635H253.162V226.38C253.861 226.37 254.4 226.317 254.782 226.221C255.163 226.126 255.438 225.941 255.607 225.666C255.787 225.391 255.914 224.983 255.988 224.443H257.274V235.891H255.623ZM258.668 232.429V231.08H263.542V232.429H258.668ZM262.968 235.891V235.827L263.571 234.874L266.763 229.857L264.016 225.459L263.413 224.507V224.443H265.238L265.27 224.507L265.874 225.459L267.699 228.365L269.494 225.459L270.081 224.507L270.129 224.443H271.907V224.507L271.304 225.459L268.557 229.762L271.764 234.874L272.367 235.827V235.891H270.541L270.494 235.827L269.906 234.874L267.636 231.239L265.381 234.874L264.778 235.827L264.73 235.891H262.968ZM277.312 236.049C276.486 236.049 275.729 235.907 275.041 235.621C274.353 235.324 273.755 234.912 273.247 234.382C272.739 233.853 272.342 233.234 272.056 232.525C271.781 231.805 271.644 231.016 271.644 230.159C271.644 229.312 271.781 228.534 272.056 227.825C272.342 227.105 272.739 226.481 273.247 225.952C273.755 225.422 274.353 225.015 275.041 224.729C275.729 224.433 276.486 224.284 277.312 224.284C278.127 224.284 278.878 224.433 279.566 224.729C280.265 225.015 280.868 225.422 281.376 225.952C281.884 226.47 282.276 227.089 282.551 227.809C282.837 228.518 282.98 229.302 282.98 230.159C282.98 231.016 282.837 231.805 282.551 232.525C282.276 233.244 281.884 233.869 281.376 234.398C280.868 234.917 280.265 235.324 279.566 235.621C278.878 235.907 278.127 236.049 277.312 236.049ZM277.312 234.605C278.084 234.605 278.767 234.414 279.36 234.033C279.963 233.641 280.434 233.112 280.773 232.445C281.112 231.778 281.281 231.016 281.281 230.159C281.281 229.302 281.112 228.54 280.773 227.873C280.434 227.206 279.963 226.682 279.36 226.301C278.767 225.92 278.084 225.729 277.312 225.729C276.539 225.729 275.851 225.92 275.248 226.301C274.655 226.682 274.189 227.206 273.85 227.873C273.512 228.54 273.342 229.302 273.342 230.159C273.342 231.016 273.512 231.778 273.85 232.445C274.189 233.112 274.655 233.641 275.248 234.033C275.851 234.414 276.539 234.605 277.312 234.605Z" fill="#FDFDF8"/>
<rect width="15.3731" height="46.6255" rx="3.08019" transform="matrix(1 0 0 -1 163.01 363.938)" fill="#14E700"/>
<rect width="15.3731" height="65.4267" rx="3.08019" transform="matrix(1 0 0 -1 237.559 363.938)" fill="#14E700"/>
<rect x="138.768" y="305.671" width="14.141" height="57.6317" rx="2.46415" stroke="#33B4FF" stroke-width="1.23208"/>
<path d="M215.789 317.905L225.002 317.905C226.363 317.905 227.466 319.008 227.466 320.369L227.466 360.834C227.466 362.195 226.363 363.299 225.002 363.299L215.789 363.299C214.428 363.299 213.325 362.195 213.325 360.834L213.325 320.369C213.325 319.008 214.428 317.905 215.789 317.905Z" stroke="#33B4FF" stroke-width="1.23208"/>
<rect width="15.3731" height="30.0487" rx="3.08019" transform="matrix(1 0 0 -1 187.859 363.945)" fill="#14E700" fill-opacity="0.48"/>
<rect width="15.3731" height="46.6255" rx="3.08019" transform="matrix(1 0 0 -1 262.408 363.945)" fill="#14E700" fill-opacity="0.48"/>
</svg>
