<svg fill="none" height="476" viewBox="0 0 591 476" width="591" xmlns="http://www.w3.org/2000/svg"><path d="m1.30078 1.29688h587.97v472.934h-587.97z" stroke="#313131" stroke-width="2.6011"/><rect height="295.456" rx="3.96928" stroke="#4d4d4d" stroke-width="1.98464" width="357.91" x="116.34" y="90.0234"/><path d="m118.119 138.312h355.646" stroke="#4d4d4d" stroke-width="1.98464"/><g fill="#fdfdf8"><path d="m444.871 118.25v-.056l.528-.833 2.792-4.39-2.403-3.848-.528-.834v-.055h1.597l.028.055.528.834 1.598 2.542 1.57-2.542.514-.834.041-.055h1.556v.055l-.528.834-2.403 3.764 2.806 4.474.528.833v.056h-1.597l-.042-.056-.514-.833-1.987-3.182-1.973 3.182-.527.833-.042.056z"/><path d="m428.855 114.304h-11.461v-1.305h11.461z"/><path d="m139.119 170.89v-1.349h4.874v1.349zm5.792 0v-1.349h4.874v1.349zm8.827 1.779v-1.556l5.779-2.382-5.779-2.35v-1.572l7.716 3.255v1.35zm14.696 1.683v-11.448h3.605c.815 0 1.566.143 2.254.429.699.275 1.302.672 1.81 1.191.508.508.9 1.111 1.175 1.81.286.698.429 1.46.429 2.286s-.143 1.588-.429 2.286c-.275.699-.667 1.307-1.175 1.826-.508.508-1.111.905-1.81 1.191-.688.286-1.439.429-2.254.429zm1.652-1.445h1.953c.772 0 1.455-.185 2.048-.556.603-.37 1.074-.878 1.413-1.524s.508-1.381.508-2.207-.169-1.561-.508-2.207-.81-1.148-1.413-1.508c-.593-.371-1.276-.556-2.048-.556h-1.953zm8.807 1.445v-11.448h7.51v1.445h-5.859v3.223h4.7v1.461h-4.7v3.874h5.859v1.445zm8.644 0v-11.448h4.7c1.132 0 2.022.307 2.667.921.646.603.969 1.418.969 2.445 0 .667-.148 1.26-.445 1.778-.286.508-.704.905-1.254 1.191-.54.286-1.186.429-1.937.429h-3.049v4.684zm1.651-6.129h2.858c.678 0 1.202-.175 1.572-.524.371-.36.556-.836.556-1.429s-.185-1.058-.556-1.397c-.37-.349-.894-.524-1.572-.524h-2.858zm7.645 6.129v-11.448h1.651v10.003h5.557v1.445zm12.223.158c-.825 0-1.582-.143-2.27-.428-.688-.297-1.286-.71-1.794-1.239s-.905-1.148-1.191-1.857c-.275-.72-.413-1.509-.413-2.366 0-.847.138-1.625.413-2.334.286-.72.683-1.344 1.191-1.874.508-.529 1.106-.936 1.794-1.222.688-.296 1.445-.445 2.27-.445.815 0 1.567.149 2.255.445.698.286 1.302.693 1.81 1.222.508.519.899 1.138 1.175 1.858.285.709.428 1.493.428 2.35s-.143 1.646-.428 2.366c-.276.719-.667 1.344-1.175 1.873-.508.519-1.112.926-1.81 1.223-.688.285-1.44.428-2.255.428zm0-1.444c.773 0 1.456-.191 2.048-.572.604-.392 1.075-.921 1.413-1.588.339-.667.508-1.429.508-2.286s-.169-1.62-.508-2.286c-.338-.667-.809-1.191-1.413-1.572-.592-.381-1.275-.572-2.048-.572s-1.461.191-2.064.572c-.593.381-1.058.905-1.397 1.572-.339.666-.508 1.429-.508 2.286s.169 1.619.508 2.286.804 1.196 1.397 1.588c.603.381 1.291.572 2.064.572zm8.829 1.286v-4.779l-3.398-5.653-.572-.952v-.064h1.795l.031.064.556.952 2.413 4.081 2.445-4.081.556-.952.048-.064h1.746v.064l-.571.952-3.398 5.653v4.779zm11.657 1.397v-13.464h3.08v1.318h-1.651v10.828h1.651v1.318zm10.678-1.239c-.772 0-1.487-.153-2.143-.46-.646-.307-1.17-.725-1.572-1.254-.402-.53-.635-1.128-.699-1.795l1.54-.349h.064c.042.466.196.884.46 1.254.265.36.598.646 1.001.858.412.201.862.302 1.349.302.752 0 1.344-.165 1.778-.493.445-.338.667-.772.667-1.302 0-.476-.148-.857-.444-1.143-.297-.286-.678-.497-1.143-.635l-2.049-.603c-.497-.148-.957-.339-1.381-.572-.423-.243-.762-.561-1.016-.952-.254-.403-.381-.911-.381-1.525 0-.624.164-1.164.492-1.619.339-.466.799-.826 1.381-1.08.593-.264 1.265-.397 2.017-.397.72 0 1.371.127 1.953.381.592.244 1.074.588 1.445 1.032.37.434.587.937.651 1.509l-1.509.365h-.063c-.106-.55-.376-.995-.81-1.334-.434-.338-.99-.508-1.667-.508-.688 0-1.228.143-1.62.429-.381.275-.571.656-.571 1.143 0 .423.137.757.413 1 .285.244.651.429 1.095.556l2.096.603c.519.149.99.35 1.413.604s.762.598 1.016 1.032c.254.423.381.968.381 1.635s-.174 1.249-.524 1.746c-.339.498-.82.884-1.445 1.16-.624.275-1.349.412-2.175.412zm7.614-.158v-10.003h-3.604v-1.445h8.843v1.445h-3.588v10.003zm3.44 0v-.064l.381-.953 4.113-10.431h1.603l4.112 10.431.397.953v.064h-1.778l-.032-.064-.349-.953-.699-1.825h-4.937l-.699 1.825-.365.953-.032.064zm3.366-4.287h3.827l-1.906-4.97zm9.04 4.287v-10.003h-3.604v-1.445h8.844v1.445h-3.588v10.003zm10.356.158c-.868 0-1.636-.164-2.302-.492-.657-.328-1.17-.799-1.54-1.413-.371-.624-.556-1.371-.556-2.239v-7.462h1.651v7.542c0 .825.254 1.471.762 1.937.508.455 1.17.683 1.985.683s1.476-.228 1.984-.683c.519-.466.778-1.112.778-1.937v-7.542h1.652v7.462c0 .868-.186 1.615-.556 2.239-.371.614-.889 1.085-1.556 1.413-.656.328-1.424.492-2.302.492zm9.732 0c-.773 0-1.488-.153-2.144-.46-.645-.307-1.169-.725-1.572-1.254-.402-.53-.635-1.128-.698-1.795l1.54-.349h.063c.043.466.196.884.461 1.254.264.36.598.646 1 .858.413.201.863.302 1.35.302.751 0 1.344-.165 1.778-.493.444-.338.667-.772.667-1.302 0-.476-.149-.857-.445-1.143s-.677-.497-1.143-.635l-2.048-.603c-.498-.148-.958-.339-1.382-.572-.423-.243-.762-.561-1.016-.952-.254-.403-.381-.911-.381-1.525 0-.624.164-1.164.493-1.619.338-.466.799-.826 1.381-1.08.593-.264 1.265-.397 2.016-.397.72 0 1.371.127 1.953.381.593.244 1.074.588 1.445 1.032.37.434.587.937.651 1.509l-1.508.365h-.064c-.106-.55-.376-.995-.81-1.334-.434-.338-.989-.508-1.667-.508-.688 0-1.228.143-1.619.429-.381.275-.572.656-.572 1.143 0 .423.138.757.413 1 .286.244.651.429 1.095.556l2.096.603c.519.149.99.35 1.413.604.424.254.762.598 1.016 1.032.255.423.382.968.382 1.635s-.175 1.249-.524 1.746c-.339.498-.821.884-1.445 1.16-.625.275-1.35.412-2.175.412zm10.559-12.225v13.464h-3.08v-1.318h1.667v-10.828h-1.667v-1.318z"/><path d="m143.231 212.432c-.772 0-1.487-.153-2.143-.46-.646-.307-1.17-.725-1.572-1.255-.402-.529-.635-1.127-.698-1.794l1.54-.349h.063c.042.466.196.884.461 1.254.264.36.598.646 1 .858.413.201.862.301 1.349.301.752 0 1.345-.164 1.779-.492.444-.339.666-.772.666-1.302 0-.476-.148-.857-.444-1.143s-.678-.497-1.143-.635l-2.048-.603c-.498-.148-.958-.339-1.382-.572-.423-.243-.762-.561-1.016-.953-.254-.402-.381-.91-.381-1.524 0-.624.164-1.164.492-1.619.339-.466.799-.826 1.382-1.08.592-.264 1.264-.397 2.016-.397.72 0 1.371.127 1.953.381.593.244 1.074.588 1.445 1.032.37.434.587.937.651 1.509l-1.509.365h-.063c-.106-.551-.376-.995-.81-1.334s-.99-.508-1.667-.508c-.688 0-1.228.143-1.619.429-.382.275-.572.656-.572 1.143 0 .423.138.757.413 1 .286.244.651.429 1.095.556l2.096.603c.519.148.99.349 1.413.604.424.254.762.598 1.016 1.032.254.423.381.968.381 1.635s-.174 1.249-.524 1.746c-.338.498-.82.884-1.444 1.159-.625.276-1.35.413-2.176.413zm9.604 0c-.868 0-1.635-.164-2.302-.492-.656-.328-1.17-.799-1.54-1.413-.371-.625-.556-1.371-.556-2.239v-7.462h1.651v7.542c0 .825.254 1.471.762 1.937.508.455 1.17.682 1.985.682s1.477-.227 1.985-.682c.518-.466.778-1.112.778-1.937v-7.542h1.651v7.462c0 .868-.185 1.614-.556 2.239-.37.614-.889 1.085-1.556 1.413-.656.328-1.424.492-2.302.492zm11.097 0c-.73 0-1.429-.122-2.096-.365-.666-.243-1.264-.609-1.794-1.095-.518-.487-.931-1.096-1.238-1.826-.296-.741-.445-1.609-.445-2.604 0-.985.154-1.842.461-2.572.307-.741.72-1.355 1.238-1.842.529-.487 1.127-.852 1.794-1.096.667-.243 1.36-.365 2.08-.365.858 0 1.636.148 2.334.445.699.296 1.276.714 1.731 1.254.465.529.757 1.154.873 1.874l-1.635.381h-.064c-.074-.498-.264-.932-.571-1.302-.297-.381-.678-.678-1.144-.889-.455-.212-.963-.318-1.524-.318-.741 0-1.408.175-2 .524-.582.339-1.043.836-1.382 1.492-.328.657-.492 1.461-.492 2.414 0 .952.164 1.762.492 2.429.339.656.8 1.159 1.382 1.508.592.339 1.259.508 2 .508.847 0 1.561-.227 2.144-.682.592-.466.958-1.112 1.095-1.937l1.699.254c-.138.815-.439 1.508-.905 2.08-.466.561-1.048.989-1.746 1.286-.689.296-1.451.444-2.287.444zm11.048 0c-.731 0-1.429-.122-2.096-.365s-1.265-.609-1.794-1.095c-.519-.487-.932-1.096-1.238-1.826-.297-.741-.445-1.609-.445-2.604 0-.985.153-1.842.46-2.572.307-.741.72-1.355 1.239-1.842.529-.487 1.127-.852 1.794-1.096.667-.243 1.36-.365 2.08-.365.857 0 1.635.148 2.334.445.698.296 1.275.714 1.73 1.254.466.529.757 1.154.874 1.874l-1.636.381h-.063c-.074-.498-.265-.932-.572-1.302-.296-.381-.677-.678-1.143-.889-.455-.212-.963-.318-1.524-.318-.741 0-1.408.175-2.001.524-.582.339-1.042.836-1.381 1.492-.328.657-.492 1.461-.492 2.414 0 .952.164 1.762.492 2.429.339.656.799 1.159 1.381 1.508.593.339 1.26.508 2.001.508.847 0 1.561-.227 2.143-.682.593-.466.958-1.112 1.096-1.937l1.699.254c-.138.815-.44 1.508-.905 2.08-.466.561-1.048.989-1.747 1.286-.688.296-1.45.444-2.286.444zm5.982-.159v-11.447h7.51v1.445h-5.859v3.223h4.7v1.461h-4.7v3.874h5.859v1.444zm12.282.159c-.772 0-1.487-.153-2.143-.46-.646-.307-1.17-.725-1.572-1.255-.402-.529-.635-1.127-.698-1.794l1.54-.349h.063c.042.466.196.884.461 1.254.264.36.598.646 1 .858.413.201.862.301 1.349.301.752 0 1.345-.164 1.779-.492.444-.339.666-.772.666-1.302 0-.476-.148-.857-.444-1.143s-.678-.497-1.143-.635l-2.048-.603c-.498-.148-.958-.339-1.382-.572-.423-.243-.762-.561-1.016-.953-.254-.402-.381-.91-.381-1.524 0-.624.164-1.164.492-1.619.339-.466.799-.826 1.382-1.08.592-.264 1.264-.397 2.016-.397.72 0 1.371.127 1.953.381.593.244 1.074.588 1.445 1.032.37.434.587.937.651 1.509l-1.509.365h-.063c-.106-.551-.376-.995-.81-1.334s-.99-.508-1.667-.508c-.688 0-1.228.143-1.619.429-.382.275-.572.656-.572 1.143 0 .423.138.757.413 1 .286.244.651.429 1.095.556l2.096.603c.519.148.99.349 1.413.604.423.254.762.598 1.016 1.032.254.423.381.968.381 1.635s-.174 1.249-.524 1.746c-.338.498-.82.884-1.444 1.159-.625.276-1.35.413-2.176.413zm9.032 0c-.772 0-1.487-.153-2.143-.46-.646-.307-1.17-.725-1.572-1.255-.402-.529-.635-1.127-.698-1.794l1.54-.349h.063c.042.466.196.884.461 1.254.264.36.598.646 1 .858.413.201.862.301 1.349.301.752 0 1.345-.164 1.779-.492.444-.339.666-.772.666-1.302 0-.476-.148-.857-.444-1.143-.297-.286-.678-.497-1.143-.635l-2.048-.603c-.498-.148-.958-.339-1.382-.572-.423-.243-.762-.561-1.016-.953-.254-.402-.381-.91-.381-1.524 0-.624.164-1.164.492-1.619.339-.466.799-.826 1.382-1.08.592-.264 1.264-.397 2.016-.397.72 0 1.371.127 1.953.381.593.244 1.074.588 1.445 1.032.37.434.587.937.651 1.509l-1.509.365h-.063c-.106-.551-.376-.995-.81-1.334s-.99-.508-1.667-.508c-.688 0-1.228.143-1.62.429-.381.275-.571.656-.571 1.143 0 .423.138.757.413 1 .286.244.651.429 1.095.556l2.096.603c.519.148.99.349 1.413.604.423.254.762.598 1.016 1.032.254.423.381.968.381 1.635s-.174 1.249-.524 1.746c-.338.498-.82.884-1.444 1.159-.625.276-1.35.413-2.176.413z" opacity=".3"/><path d="m143.517 236.049c-.952 0-1.762-.243-2.429-.73-.656-.497-1.154-1.185-1.492-2.064-.339-.889-.509-1.921-.509-3.096s.17-2.202.509-3.08c.338-.889.836-1.577 1.492-2.064.667-.487 1.477-.731 2.429-.731.953 0 1.757.244 2.413.731.667.487 1.17 1.169 1.509 2.048.349.878.524 1.91.524 3.096 0 1.185-.175 2.223-.524 3.112-.339.878-.842 1.561-1.509 2.048-.656.487-1.46.73-2.413.73zm0-1.444c.91 0 1.593-.403 2.048-1.207.466-.815.699-1.895.699-3.239s-.233-2.419-.699-3.223c-.455-.805-1.138-1.207-2.048-1.207-.9 0-1.582.402-2.048 1.207-.455.794-.683 1.868-.683 3.223s.228 2.434.683 3.239c.466.804 1.148 1.207 2.048 1.207zm7.365 1.286v-8.256h-2.461v-1.255c.699-.01 1.239-.063 1.62-.159.381-.095.656-.28.825-.555.18-.275.307-.683.381-1.223h1.287v11.448zm3.045-3.462v-1.349h4.874v1.349zm9.856 3.62c-.794 0-1.503-.132-2.127-.397-.625-.275-1.117-.666-1.477-1.174-.36-.509-.54-1.122-.54-1.842 0-.656.191-1.233.572-1.731.381-.508.884-.862 1.508-1.064-.508-.222-.921-.561-1.238-1.016-.318-.455-.477-.926-.477-1.413 0-.614.159-1.154.477-1.619.317-.477.756-.847 1.317-1.112.572-.264 1.234-.397 1.985-.397.762 0 1.424.133 1.985.397.571.265 1.016.635 1.333 1.112.318.465.477 1.005.477 1.619 0 .487-.159.958-.477 1.413-.317.455-.73.794-1.238 1.016.625.202 1.127.556 1.508 1.064.381.498.572 1.075.572 1.731 0 .72-.18 1.333-.54 1.842-.36.508-.852.899-1.476 1.174-.625.265-1.339.397-2.144.397zm0-1.365c.752 0 1.355-.18 1.81-.54.455-.37.683-.863.683-1.476 0-.625-.228-1.122-.683-1.493-.455-.37-1.058-.556-1.81-.556-.741 0-1.339.186-1.794.556-.455.371-.683.868-.683 1.493 0 .613.228 1.106.683 1.476.455.36 1.053.54 1.794.54zm0-5.446c.646 0 1.164-.159 1.556-.476.402-.328.603-.746.603-1.255 0-.55-.195-.994-.587-1.333-.392-.349-.916-.524-1.572-.524-.646 0-1.164.175-1.556.524-.391.339-.587.783-.587 1.333 0 .509.196.927.587 1.255.402.317.921.476 1.556.476zm7.078 6.653v-8.256h-2.461v-1.255c.699-.01 1.239-.063 1.62-.159.381-.095.656-.28.826-.555.18-.275.307-.683.381-1.223h1.286v11.448zm7.11.158c-.794 0-1.503-.132-2.128-.397-.624-.275-1.116-.666-1.476-1.174-.36-.509-.54-1.122-.54-1.842 0-.656.19-1.233.571-1.731.382-.508.884-.862 1.509-1.064-.508-.222-.921-.561-1.239-1.016-.317-.455-.476-.926-.476-1.413 0-.614.159-1.154.476-1.619.318-.477.757-.847 1.318-1.112.572-.264 1.233-.397 1.985-.397.762 0 1.423.133 1.984.397.572.265 1.017.635 1.334 1.112.318.465.476 1.005.476 1.619 0 .487-.158.958-.476 1.413-.317.455-.73.794-1.238 1.016.624.202 1.127.556 1.508 1.064.381.498.572 1.075.572 1.731 0 .72-.18 1.333-.54 1.842-.36.508-.852.899-1.477 1.174-.624.265-1.339.397-2.143.397zm0-1.365c.751 0 1.355-.18 1.81-.54.455-.37.683-.863.683-1.476 0-.625-.228-1.122-.683-1.493-.455-.37-1.059-.556-1.81-.556-.741 0-1.339.186-1.794.556-.455.371-.683.868-.683 1.493 0 .613.228 1.106.683 1.476.455.36 1.053.54 1.794.54zm0-5.446c.645 0 1.164-.159 1.556-.476.402-.328.603-.746.603-1.255 0-.55-.196-.994-.587-1.333-.392-.349-.916-.524-1.572-.524-.646 0-1.165.175-1.556.524-.392.339-.588.783-.588 1.333 0 .509.196.927.588 1.255.402.317.921.476 1.556.476zm7.078 6.653v-8.256h-2.461v-1.255c.699-.01 1.239-.063 1.62-.159.381-.095.656-.28.825-.555.18-.275.307-.683.381-1.223h1.286v11.448zm7.11.158c-.794 0-1.504-.132-2.128-.397-.625-.275-1.117-.666-1.477-1.174-.359-.509-.539-1.122-.539-1.842 0-.656.19-1.233.571-1.731.381-.508.884-.862 1.508-1.064-.508-.222-.92-.561-1.238-1.016-.317-.455-.476-.926-.476-1.413 0-.614.159-1.154.476-1.619.318-.477.757-.847 1.318-1.112.571-.264 1.233-.397 1.985-.397.762 0 1.423.133 1.984.397.572.265 1.016.635 1.334 1.112.317.465.476 1.005.476 1.619 0 .487-.159.958-.476 1.413-.318.455-.731.794-1.239 1.016.625.202 1.128.556 1.509 1.064.381.498.571 1.075.571 1.731 0 .72-.18 1.333-.54 1.842-.359.508-.852.899-1.476 1.174-.625.265-1.339.397-2.143.397zm0-1.365c.751 0 1.354-.18 1.81-.54.455-.37.682-.863.682-1.476 0-.625-.227-1.122-.682-1.493-.456-.37-1.059-.556-1.81-.556-.741 0-1.339.186-1.795.556-.455.371-.682.868-.682 1.493 0 .613.227 1.106.682 1.476.456.36 1.054.54 1.795.54zm0-5.446c.645 0 1.164-.159 1.555-.476.403-.328.604-.746.604-1.255 0-.55-.196-.994-.588-1.333-.391-.349-.915-.524-1.571-.524-.646 0-1.165.175-1.556.524-.392.339-.588.783-.588 1.333 0 .509.196.927.588 1.255.402.317.92.476 1.556.476zm4.776 6.653v-1.413l4.255-3.652c.645-.551 1.116-1.064 1.413-1.54.307-.487.46-.99.46-1.509 0-.624-.19-1.122-.571-1.492-.381-.371-.889-.556-1.525-.556-.762 0-1.333.26-1.714.778-.381.508-.54 1.186-.477 2.033h-.063l-1.588-.223c-.042-.783.09-1.476.397-2.08.318-.614.773-1.09 1.366-1.429.592-.349 1.286-.524 2.079-.524.763 0 1.429.149 2.001.445.572.286 1.011.688 1.318 1.207.317.518.476 1.132.476 1.841 0 .71-.206 1.398-.619 2.064-.402.667-1.053 1.371-1.953 2.112l-2.921 2.493h5.493v1.445zm8.489 0v-1.413l4.255-3.652c.646-.551 1.117-1.064 1.413-1.54.307-.487.461-.99.461-1.509 0-.624-.191-1.122-.572-1.492-.381-.371-.889-.556-1.524-.556-.762 0-1.334.26-1.715.778-.381.508-.54 1.186-.476 2.033h-.064l-1.587-.223c-.043-.783.089-1.476.396-2.08.318-.614.773-1.09 1.366-1.429.593-.349 1.286-.524 2.08-.524.762 0 1.429.149 2 .445.572.286 1.011.688 1.318 1.207.318.518.476 1.132.476 1.841 0 .71-.206 1.398-.619 2.064-.402.667-1.053 1.371-1.953 2.112l-2.921 2.493h5.493v1.445zm8.401-3.462v-1.349h4.875v1.349zm10.19 3.62c-.953 0-1.762-.243-2.429-.73-.657-.497-1.154-1.185-1.493-2.064-.338-.889-.508-1.921-.508-3.096s.17-2.202.508-3.08c.339-.889.836-1.577 1.493-2.064.667-.487 1.476-.731 2.429-.731.952 0 1.757.244 2.413.731.667.487 1.17 1.169 1.509 2.048.349.878.523 1.91.523 3.096 0 1.185-.174 2.223-.523 3.112-.339.878-.842 1.561-1.509 2.048-.656.487-1.461.73-2.413.73zm0-1.444c.91 0 1.593-.403 2.048-1.207.466-.815.699-1.895.699-3.239s-.233-2.419-.699-3.223c-.455-.805-1.138-1.207-2.048-1.207-.9 0-1.583.402-2.048 1.207-.455.794-.683 1.868-.683 3.223s.228 2.434.683 3.239c.465.804 1.148 1.207 2.048 1.207zm9.73 1.444c-.953 0-1.763-.243-2.43-.73-.656-.497-1.153-1.185-1.492-2.064-.339-.889-.508-1.921-.508-3.096s.169-2.202.508-3.08c.339-.889.836-1.577 1.492-2.064.667-.487 1.477-.731 2.43-.731.952 0 1.757.244 2.413.731.667.487 1.17 1.169 1.508 2.048.35.878.524 1.91.524 3.096 0 1.185-.174 2.223-.524 3.112-.338.878-.841 1.561-1.508 2.048-.656.487-1.461.73-2.413.73zm0-1.444c.91 0 1.593-.403 2.048-1.207.465-.815.698-1.895.698-3.239s-.233-2.419-.698-3.223c-.455-.805-1.138-1.207-2.048-1.207-.9 0-1.583.402-2.049 1.207-.455.794-.682 1.868-.682 3.223s.227 2.434.682 3.239c.466.804 1.149 1.207 2.049 1.207zm7.365 1.286v-8.256h-2.461v-1.255c.698-.01 1.238-.063 1.619-.159.381-.095.656-.28.826-.555.18-.275.307-.683.381-1.223h1.286v11.448zm7.188-11.607c.942 0 1.736.244 2.382.731.646.476 1.133 1.132 1.461 1.969.338.825.508 1.767.508 2.826 0 1.27-.191 2.376-.572 3.318-.381.931-.921 1.651-1.619 2.159-.699.508-1.519.762-2.461.762-.625 0-1.207-.105-1.747-.317-.54-.222-.989-.551-1.349-.985s-.604-.979-.731-1.635l1.588-.27h.064c.063.551.296.985.698 1.302.402.307.889.461 1.461.461.624 0 1.159-.175 1.603-.524.456-.36.81-.847 1.064-1.461.254-.625.387-1.328.397-2.112 0-.042 0-.084 0-.127.011-.042.016-.1.016-.174-.254.518-.651.952-1.191 1.302-.529.338-1.169.508-1.921.508-.709 0-1.355-.159-1.937-.477-.571-.317-1.032-.757-1.381-1.318-.339-.561-.508-1.211-.508-1.952 0-.784.18-1.472.54-2.064.359-.604.852-1.075 1.476-1.413.635-.339 1.355-.509 2.159-.509zm-.031 1.445c-.477 0-.9.111-1.27.334-.36.222-.646.524-.858.905s-.317.815-.317 1.302c0 .709.227 1.296.682 1.762.466.455 1.054.683 1.763.683.677 0 1.238-.212 1.683-.635.444-.424.751-.958.921-1.604-.043-.847-.313-1.514-.81-2.001-.487-.497-1.085-.746-1.794-.746zm7.356 10.162v-8.256h-2.461v-1.255c.699-.01 1.238-.063 1.62-.159.381-.095.656-.28.825-.555.18-.275.307-.683.381-1.223h1.286v11.448zm3.045-3.462v-1.349h4.874v1.349zm4.3 3.462v-.064l.603-.953 3.192-5.017-2.747-4.398-.603-.952v-.064h1.825l.032.064.604.952 1.825 2.906 1.795-2.906.587-.952.048-.064h1.778v.064l-.603.952-2.747 4.303 3.207 5.112.603.953v.064h-1.826l-.047-.064-.588-.953-2.27-3.635-2.255 3.635-.603.953-.048.064zm14.344.158c-.826 0-1.583-.142-2.271-.428-.688-.297-1.286-.709-1.794-1.239-.508-.529-.905-1.148-1.191-1.857-.275-.72-.412-1.509-.412-2.366 0-.847.137-1.625.412-2.334.286-.72.683-1.344 1.191-1.873.508-.53 1.106-.937 1.794-1.223.688-.296 1.445-.445 2.271-.445.815 0 1.566.149 2.254.445.699.286 1.302.693 1.81 1.223.508.518.9 1.137 1.175 1.857.286.709.429 1.493.429 2.35s-.143 1.646-.429 2.366c-.275.719-.667 1.344-1.175 1.873-.508.519-1.111.926-1.81 1.223-.688.286-1.439.428-2.254.428zm0-1.444c.772 0 1.455-.191 2.048-.572.603-.392 1.074-.921 1.413-1.588s.508-1.429.508-2.286-.169-1.619-.508-2.286-.81-1.191-1.413-1.572c-.593-.381-1.276-.572-2.048-.572-.773 0-1.461.191-2.064.572-.593.381-1.059.905-1.398 1.572-.338.667-.508 1.429-.508 2.286s.17 1.619.508 2.286c.339.667.805 1.196 1.398 1.588.603.381 1.291.572 2.064.572z" opacity=".3"/></g><rect fill="#14e700" height="46.6255" rx="3.08019" transform="matrix(1 0 0 -1 163.01 363.938)" width="15.3731"/><rect fill="#14e700" height="65.4267" rx="3.08019" transform="matrix(1 0 0 -1 237.559 363.938)" width="15.3731"/><rect height="57.6317" rx="2.46415" stroke="#33b4ff" stroke-width="1.23208" width="14.141" x="138.768" y="305.671"/><path d="m215.789 317.905h9.213c1.361 0 2.464 1.103 2.464 2.464v40.465c0 1.361-1.103 2.465-2.464 2.465h-9.213c-1.361 0-2.464-1.104-2.464-2.465v-40.465c0-1.361 1.103-2.464 2.464-2.464z" stroke="#33b4ff" stroke-width="1.23208"/><g fill="#14e700" fill-opacity=".48"><rect height="30.0487" rx="3.08019" transform="matrix(1 0 0 -1 187.859 363.945)" width="15.3731"/><rect height="46.6255" rx="3.08019" transform="matrix(1 0 0 -1 262.408 363.945)" width="15.3731"/></g></svg>