<svg fill="none" height="366" viewBox="0 0 1440 366" width="1440" xmlns="http://www.w3.org/2000/svg"><path d="m790.892-76.5986c-17.267.4372-31.129 14.5717-31.129 31.9433v103.9365l.009.8243c.431 16.9925 14.127 30.6887 31.12 31.1191l.824.0098h159.192c6.773 0 11.365 7.5394 11.251 14.3106-.003.182-.005.365-.005.548v35.896c0 17.648 14.307 31.954 31.954 31.954h118.092c4.97 0 9 4.03 9 9v149.984l.01.824c.44 17.267 14.57 31.129 31.94 31.129h371.53c17.37 0 31.5-13.863 31.94-31.129l.01-.824v-149.984c0-4.97 4.03-9 9-9h10.6c17.64 0 31.95-14.306 31.95-31.954v-35.896c0-17.6477-14.31-31.9534-31.95-31.9534h-144.05c-4.97 0-9-4.0294-9-9v-109.7958c0-17.3714-13.86-31.505-31.13-31.9424l-.82-.0108h-599.514zm732.778 250.5416c4.97 0 9 4.03 9 9v149.984c0 4.411-3.58 7.988-7.99 7.988h-371.53c-4.41 0-7.98-3.576-7.98-7.988v-149.984c0-4.97 4.03-9 9-9zm-132.44-226.5875c4.41 0 7.99 3.5768 7.99 7.9883v102.9257c0 4.9706-4.03 9-9 9h-598.504c-4.412-.0001-7.988-3.5765-7.988-7.9883v-103.9365c0-4.4117 3.576-7.9891 7.988-7.9892z" fill="#f3f3f3"/><path d="m790.892-76.5986-.019-.7498.009-.0002zm-31.129 31.9433h-.75zm0 103.9365-.75.0089v-.0089zm.009.8243-.749.019v-.0102zm31.12 31.1191-.009.75-.01-.0002zm.824.0098v.75l-.009-.0001zm170.438 14.8586h-.75zm159.046 226.834-.75.01v-.01zm.01.824-.75.019v-.009zm403.47 31.129v.75zm31.94-31.129.75.01v.009zm.01-.824h.75v.01zm19.6-158.984v.75zm31.95-67.85h.75zm-185-150.7492.75-.0001v.0001zm-31.13-31.9424.01-.75.01.0002zm-.82-.0108v-.75l.01.0001zm-599.514 0-.01-.75h.01zm740.954 409.5364h.75zm-7.99 7.988v.75zm-379.51-7.988h-.75zm254.05-377.5832.75-.0001v.0001zm-607.504 111.9257v.75zm-7.988-7.9883h-.75zm0-103.9365h-.75zm7.988-7.9892v-.75zm170.443 158.1895-.75-.012zm-171.267-182.1436.019.7497c-16.861.427-30.398 14.2298-30.398 31.1936h-.75-.75c0-17.7795 14.188-32.2455 31.86-32.6931zm-31.129 31.9433h.75v103.9365h-.75-.75v-103.9365zm0 103.9365.75-.0088.009.8242-.75.0089-.749.0088-.01-.8242zm.009.8243.75-.019c.42 16.5932 13.795 29.9681 30.389 30.3884l-.019.7497-.019.7498c-17.392-.4405-31.41-14.458-31.85-31.8499zm31.12 31.1191.009-.7499.824.0097-.009.75-.009.7499-.824-.0097zm.824.0098v-.75h159.192v.75.75h-159.192zm170.443 14.3106.75.013c-.003.178-.005.356-.005.535h-.75-.75c0-.187.002-.374.005-.56zm-.005.548h.75v35.896h-.75-.75v-35.896zm0 35.896h.75c0 17.234 13.971 31.204 31.204 31.204v.75.75c-18.061 0-32.704-14.642-32.704-32.704zm31.954 31.954v-.75h118.092v.75.75h-118.092zm127.092 9h.75v149.984h-.75-.75v-149.984zm0 149.984.75-.01.01.824-.75.01-.75.01-.01-.824zm.01.824.75-.019c.43 16.861 14.23 30.398 31.19 30.398v.75.75c-17.78 0-32.24-14.188-32.69-31.86zm31.94 31.129v-.75h371.53v.75.75h-371.53zm371.53 0v-.75c16.96 0 30.77-13.537 31.19-30.398l.75.019.75.019c-.45 17.672-14.91 31.86-32.69 31.86zm31.94-31.129-.75-.01.01-.824.75.01.75.01-.01.824zm.01-.824h-.75v-149.984h.75.75v149.984zm9-158.984v-.75h10.6v.75.75h-10.6zm10.6 0v-.75c17.23 0 31.2-13.971 31.2-31.204h.75.75c0 18.062-14.64 32.704-32.7 32.704zm31.95-31.954h-.75v-35.896h.75.75v35.896zm0-35.896h-.75c0-17.2334-13.97-31.2034-31.2-31.2034v-.75-.75c18.06 0 32.7 14.6415 32.7 32.7034zm-31.95-31.9534v.75h-144.05v-.75-.75h144.05zm-153.05-9h-.75v-109.7958h.75.75v109.7958zm0-109.7958h-.75c0-16.9636-13.54-30.7655-30.4-31.1927l.02-.7497.02-.7498c17.67.4477 31.86 14.9129 31.86 32.6921zm-31.13-31.9424-.01.7499-.82-.0107.01-.75.01-.7499.82.0107zm-.82-.0108v.75h-599.514v-.75-.75h599.514zm-599.514 0 .01.75-.825.0107-.009-.7499-.01-.75.824-.0107zm740.954 259.5524h.75v149.984h-.75-.75v-149.984zm0 149.984h.75c0 4.826-3.91 8.738-8.74 8.738v-.75-.75c4 0 7.24-3.241 7.24-7.238zm-7.99 7.988v.75h-371.53v-.75-.75h371.53zm-371.53 0v.75c-4.82 0-8.73-3.912-8.73-8.738h.75.75c0 3.997 3.24 7.238 7.23 7.238zm-7.98-7.988h-.75v-149.984h.75.75v149.984zm9-158.984v-.75h369.5v.75.75h-369.5zm237.06-226.5875v-.75c4.82 0 8.74 3.9125 8.74 8.7382l-.75.0001h-.75c0-3.9972-3.25-7.2383-7.24-7.2383zm7.99 7.9883h.75v102.9257h-.75-.75v-102.9257zm-9 111.9257v.75h-598.504v-.75-.75h598.504zm-598.504 0v.75c-4.826-.0001-8.738-3.9123-8.738-8.7383h.75.75c0 3.9976 3.24 7.2382 7.238 7.2383zm-7.988-7.9883h-.75v-103.9365h.75.75v103.9365zm0-103.9365h-.75c0-4.8257 3.912-8.7391 8.738-8.7392v.75.75c-3.997.0001-7.238 3.2416-7.238 7.2393zm7.988-7.9892v-.75h599.514v.75.75h-599.514zm607.504 110.914h.75c0 5.3848-4.37 9.75-9.75 9.75v-.75-.75c4.55 0 8.25-3.6936 8.25-8.25zm133.45 124.6735h-.75c0-4.556-3.7-8.25-8.25-8.25v-.75-.75c5.38 0 9.75 4.366 9.75 9.75zm-100.49-108.8034v.75c-5.38 0-9.75-4.3652-9.75-9.75h.75.75c0 4.5564 3.7 8.25 8.25 8.25zm-481.272 17.0948v-.75c3.69 0 6.736 2.0578 8.815 4.9259 2.077 2.8639 3.246 6.6007 3.186 10.1477l-.75-.013-.75-.012c.054-3.225-1.016-6.6436-2.9-9.2422-1.881-2.5946-4.518-4.3064-7.601-4.3064zm605.722 91.7086h-.75c0-5.384 4.37-9.75 9.75-9.75v.75.75c-4.55 0-8.25 3.694-8.25 8.25zm-411.46 0h-.75c0-5.384 4.36-9.75 9.75-9.75v.75.75c-4.56 0-8.25 3.694-8.25 8.25zm-32.97-9v-.75c5.38 0 9.75 4.366 9.75 9.75h-.75-.75c0-4.556-3.69-8.25-8.25-8.25z" fill="#e9e9e9"/><path d="m0 0h1440v36h-1440z" fill="#f3f3f3"/><g stroke="#e9e9e9" stroke-width="1.5"><path d="m-1 1h1441"/><path d="m-214.277 17.3828h1654.277"/><path d="m-214.277 36.2187 1654.277.0001"/></g></svg>