<svg fill="none" height="1200" viewBox="0 0 2130 1200" width="2130" xmlns="http://www.w3.org/2000/svg" xmlns:xlink="http://www.w3.org/1999/xlink"><clipPath id="a"><path d="m0 0h2130v1200h-2130z"/></clipPath><g clip-path="url(#a)"><path d="m2130 0h-2130v1200h2130z" fill="#fff"/><g fill="#000"><path d="m628 712.826h58.359c0 16.044 5.836 28.837 17.509 38.379 11.671 9.106 27.45 13.659 47.335 13.659 21.615 0 38.258-4.119 49.929-12.36 11.672-8.672 17.509-20.164 17.509-34.475 0-10.407-3.243-19.081-9.727-26.019-6.052-6.938-17.292-12.577-33.719-16.913l-55.765-13.009c-28.099-6.938-49.065-17.564-62.899-31.875-13.401-14.31-20.101-33.174-20.101-56.591 0-19.515 4.971-36.427 14.913-50.738 10.376-14.31 24.425-25.369 42.149-33.174 18.156-7.807 38.907-11.71 62.25-11.71 23.344 0 43.445 4.12 60.305 12.36 17.291 8.239 30.692 19.732 40.202 34.475 9.944 14.745 15.13 32.307 15.563 52.689h-58.359c-.433-16.478-5.836-29.271-16.212-38.379-10.374-9.106-24.856-13.659-43.444-13.659-19.021 0-33.719 4.119-44.093 12.358-10.377 8.241-15.563 19.515-15.563 33.826 0 21.249 15.563 35.776 46.688 43.583l55.764 13.659c26.803 6.071 46.904 16.046 60.306 29.924 13.399 13.442 20.101 31.873 20.101 55.29 0 19.949-5.405 37.511-16.212 52.689-10.807 14.745-25.72 26.237-44.741 34.477-18.589 7.805-40.635 11.708-66.141 11.708-37.177 0-66.789-9.106-88.836-27.32-22.046-18.214-33.07-42.499-33.07-72.854z"/><path d="m918.324 805v-316.743c24.18 8.812 34.844 8.812 60.644 0v316.743zm29.677-337.68c-10.753 0-20.215-3.887-28.387-11.659-7.743-8.206-11.614-17.706-11.614-28.502 0-11.226 3.871-20.727 11.614-28.5 8.172-7.772 17.634-11.659 28.387-11.659 11.182 0 20.644 3.887 28.387 11.659 7.741 7.773 11.612 17.274 11.612 28.5 0 10.796-3.871 20.296-11.612 28.502-7.743 7.772-17.205 11.659-28.387 11.659z"/><path d="m1087 805h-61v-317.898h54.51v53.638c6.49-17.769 19.03-32.836 36.34-44.537 17.73-12.135 39.15-18.203 64.24-18.203 28.12 0 51.48 7.585 70.08 22.753 18.6 15.17 30.72 35.323 36.34 60.46h-11.03c4.32-25.137 16.22-45.29 35.69-60.46 19.47-15.168 43.48-22.753 72.03-22.753 36.34 0 64.89 10.618 85.65 31.856 20.77 21.236 31.15 50.274 31.15 87.112v208.032h-59.7v-193.079c0-25.137-6.49-44.423-19.47-57.859-12.54-13.87-29.63-20.804-51.26-20.804-15.14 0-28.55 3.467-40.23 10.403-11.25 6.5-20.12 16.035-26.61 28.604-6.49 12.568-9.73 27.304-9.73 44.206v188.529h-60.35v-193.73c0-25.137-6.27-44.206-18.82-57.208-12.54-13.436-29.63-20.153-51.26-20.153-15.14 0-28.55 3.467-40.23 10.401-11.25 6.502-20.12 16.037-26.61 28.604-6.49 12.136-9.73 26.655-9.73 43.557z"/></g></g></svg>