<svg fill="none" height="400" viewBox="0 0 400 400" width="400" xmlns="http://www.w3.org/2000/svg" xmlns:xlink="http://www.w3.org/1999/xlink"><linearGradient id="a" gradientUnits="userSpaceOnUse" x1="218.434" x2="274.629" y1="218.27" y2="274.334"><stop offset="0"/><stop offset="1" stop-opacity="0"/></linearGradient><path d="m0 0h400v400h-400z" fill="#0b0b0b"/><path clip-rule="evenodd" d="m196.822 182.761c0 3.587-1.419 7.031-3.938 9.567l-.361.364c-2.517 2.544-5.937 3.966-9.499 3.966h-80.579c-7.4204 0-13.445 6.06-13.445 13.533v87.141c0 7.474 6.0246 13.534 13.445 13.534h86.517c7.421 0 13.438-6.06 13.438-13.534v-81.587c0-3.326 1.31-6.517 3.647-8.871 2.33-2.347 5.499-3.667 8.802-3.667h81.928c7.421 0 13.437-6.059 13.437-13.533v-87.141c0-7.4734-6.016-13.533-13.437-13.533h-86.517c-7.421 0-13.438 6.0596-13.438 13.533zm26.256-75.211h60.874c4.337 0 7.844 3.539 7.844 7.9v61.307c0 4.361-3.507 7.901-7.844 7.901h-60.874c-4.33 0-7.845-3.54-7.845-7.901v-61.307c0-4.361 3.515-7.9 7.845-7.9z" fill="#33c482" fill-rule="evenodd"/><path d="m296.878 218.57h-64.324c-7.798 0-14.12 6.367-14.12 14.221v63.993c0 7.854 6.322 14.221 14.12 14.221h64.324c7.799 0 14.121-6.367 14.121-14.221v-63.993c0-7.854-6.322-14.221-14.121-14.221z" fill="#33c482"/><path d="m296.878 218.27h-64.324c-7.798 0-14.12 6.366-14.12 14.221v63.992c0 7.854 6.322 14.22 14.12 14.22h64.324c7.799 0 14.121-6.366 14.121-14.22v-63.992c0-7.855-6.322-14.221-14.121-14.221z" fill="url(#a)" fill-opacity=".2"/></svg>