<svg fill="none" height="222" viewBox="0 0 222 222" width="222" xmlns="http://www.w3.org/2000/svg" xmlns:xlink="http://www.w3.org/1999/xlink"><linearGradient id="a" gradientUnits="userSpaceOnUse" x1="129.438" x2="185.633" y1="129.27" y2="185.334"><stop offset="0"/><stop offset="1" stop-opacity="0"/></linearGradient><path clip-rule="evenodd" d="m107.822 93.7612c0 3.5869-1.419 7.0308-3.938 9.5668l-.361.364c-2.517 2.544-5.9375 3.966-9.4994 3.966h-80.5781c-7.42094 0-13.4455 6.06-13.4455 13.533v87.141c0 7.474 6.02456 13.534 13.4455 13.534h86.5167c7.4208 0 13.4378-6.06 13.4378-13.534v-81.587c0-3.326 1.31-6.517 3.647-8.871 2.33-2.347 5.499-3.667 8.802-3.667h81.928c7.421 0 13.437-6.059 13.437-13.533v-87.1407c0-7.47374-6.016-13.5333-13.437-13.5333h-86.517c-7.421 0-13.438 6.05956-13.438 13.5333zm26.256-75.2112h60.874c4.337 0 7.844 3.5393 7.844 7.9003v61.3071c0 4.3604-3.507 7.9003-7.844 7.9003h-60.874c-4.33 0-7.845-3.5399-7.845-7.9003v-61.3071c0-4.361 3.515-7.9003 7.845-7.9003z" fill="#fff" fill-rule="evenodd"/><path d="m207.882 129.57h-64.324c-7.798 0-14.12 6.367-14.12 14.221v63.993c0 7.854 6.322 14.221 14.12 14.221h64.324c7.799 0 14.121-6.367 14.121-14.221v-63.993c0-7.854-6.322-14.221-14.121-14.221z" fill="#fff"/><path d="m207.882 129.27h-64.325c-7.798 0-14.119 6.366-14.119 14.221v63.992c0 7.854 6.321 14.22 14.119 14.22h64.325c7.799 0 14.121-6.366 14.121-14.22v-63.992c0-7.855-6.322-14.221-14.121-14.221z" fill="url(#a)" fill-opacity=".2"/></svg>