<svg fill="none" height="22" viewBox="0 0 71 22" width="71" xmlns="http://www.w3.org/2000/svg">
  <g transform="scale(.07483)">
    <path
      clip-rule="evenodd"
      d="m142.793 124.175c0 4.75-1.88 9.312-5.216 12.671l-.478.481c-3.334 3.369-7.863 5.252-12.58 5.252h-106.7127c-9.82776 0-17.8063 8.026-17.8063 17.924v115.407c0 9.898 7.97854 17.924 17.8063 17.924h114.5767c9.828 0 17.796-8.026 17.796-17.924v-108.052c0-4.405 1.735-8.632 4.83-11.749 3.086-3.108 7.283-4.856 11.657-4.856h108.5c9.828 0 17.796-8.024 17.796-17.923v-115.4069c0-9.89798-7.968-17.9231-17.796-17.9231h-114.578c-9.827 0-17.795 8.02512-17.795 17.9231zm34.771-99.6079h80.617c5.744 0 10.389 4.6874 10.389 10.463v81.1939c0 5.774-4.645 10.463-10.389 10.463h-80.617c-5.734 0-10.389-4.689-10.389-10.463v-81.1939c0-5.7756 4.655-10.463 10.389-10.463z"
      fill="#33c482"
      fill-rule="evenodd"
    />
    <path
      d="m275.293 171.578h-85.187c-10.327 0-18.7 8.432-18.7 18.834v84.75c0 10.402 8.373 18.834 18.7 18.834h85.187c10.328 0 18.701-8.432 18.701-18.834v-84.75c0-10.402-8.373-18.834-18.701-18.834z"
      fill="#33c482"
    />
    <path
      d="m275.293 171.18h-85.187c-10.327 0-18.7 8.432-18.7 18.834v84.749c0 10.402 8.373 18.833 18.7 18.833h85.187c10.328 0 18.701-8.431 18.701-18.833v-84.749c0-10.402-8.373-18.834-18.701-18.834z"
      fill="url(#sim-wordmark-gradient)"
      fill-opacity=".2"
    />
    <defs>
      <linearGradient
        id="sim-wordmark-gradient"
        gradientUnits="userSpaceOnUse"
        x1="171.406"
        x2="245.831"
        y1="171.18"
        y2="245.428"
      >
        <stop offset="0" />
        <stop offset="1" stop-opacity="0" />
      </linearGradient>
    </defs>
  </g>
  <g fill="#111827">
    <path d="m31.5718 15.845h2.5865c0 .7141.2586 1.2835.7759 1.7081.5173.4053 1.2166.608 2.0979.608.958 0 1.6956-.1834 2.2129-.5501.5173-.386.776-.8975.776-1.5344 0-.4632-.1437-.8492-.4311-1.158-.2682-.3088-.7664-.5597-1.4944-.7527l-2.4716-.579c-1.2453-.3088-2.1745-.7817-2.7876-1.4186-.594-.6369-.8909-1.4765-.8909-2.51873 0-.86852.2203-1.62124.661-2.25815.4598-.63692 1.0825-1.12908 1.868-1.47648.8047-.34741 1.7243-.52112 2.7589-.52112s1.9255.18336 2.6727.55007c.7664.3667 1.3603.87817 1.7818 1.53438.4407.65622.6706 1.43788.6898 2.345h-2.5865c-.0192-.73341-.2587-1.30278-.7185-1.70809-.4598-.4053-1.1017-.60796-1.9255-.60796-.843 0-1.4944.18336-1.9542.55006-.4599.36671-.6898.86852-.6898 1.50544 0 .94568.6898 1.59228 2.0692 1.93968l2.4716.608c1.1878.2702 2.0787.7141 2.6727 1.3317.5939.5983.8909 1.4186.8909 2.4608 0 .8878-.2395 1.6695-.7185 2.345-.479.6562-1.14 1.1677-1.983 1.5344-.8238.3474-1.8009.5211-2.9313.5211-1.6477 0-2.9601-.4053-3.9372-1.2159-.9772-.8106-1.4657-1.8915-1.4657-3.2425z" />
    <path d="m44.5096 19.956v-14.15687c1.0772.39383 1.5521.39383 2.7014 0v14.15687zm1.322-15.09268c-.479 0-.9005-.1737-1.2645-.52111-.3449-.36671-.5173-.79132-.5173-1.27383 0-.50181.1724-.92642.5173-1.27383.364-.34741.7855-.52111 1.2645-.52111.4981 0 .9196.1737 1.2645.52111s.5173.77202.5173 1.27383c0 .48251-.1724.90712-.5173 1.27383-.3449.34741-.7664.52111-1.2645.52111z" />
    <path d="m51.976 19.956h-2.7014v-14.15687h2.4141v2.38865c.2873-.79131.843-1.46223 1.6093-1.98334.7855-.54041 1.7339-.81062 2.8452-.81062 1.2453 0 2.2799.33776 3.1038 1.01328.8238.67551 1.3603 1.57298 1.6093 2.69241h-.4885c.1916-1.11943.7184-2.0169 1.5806-2.69241.8622-.67552 1.9255-1.01328 3.19-1.01328 1.6094 0 2.8739.47286 3.7935 1.41858.9197.94573 1.3795 2.23886 1.3795 3.8794v9.2642h-2.644v-8.5983c0-1.1195-.2874-1.97834-.8621-2.57665-.5557-.61761-1.3125-.92642-2.2704-.92642-.6706 0-1.2645.1544-1.7818.46321-.4982.28951-.8909.71412-1.1783 1.27383-.2874.55973-.4311 1.21593-.4311 1.96863v8.3957h-2.6727v-8.6273c0-1.1194-.2778-1.96864-.8334-2.54765-.5556-.59831-1.3124-.89747-2.2704-.89747-.6706 0-1.2645.1544-1.7818.46321-.4981.28951-.8909.71412-1.1783 1.27383-.2874.54038-.4311 1.18698-.4311 1.93968z" />
  </g>
</svg>
