<svg fill="none" height="29" viewBox="0 0 58 29" width="58" xmlns="http://www.w3.org/2000/svg"><g fill="#000"><path d="m0 21.9401h3.83372c0 1.0507.38338 1.8884 1.15012 2.5132.76675.5963 1.80327.8945 3.10958.8945 1.4199 0 2.51318-.2698 3.27998-.8093.7667-.568 1.1501-1.3205 1.1501-2.2577 0-.6815-.213-1.2495-.639-1.7038-.3975-.4544-1.1359-.8236-2.21499-1.1075l-3.66334-.852c-1.84587-.4544-3.22317-1.1501-4.13191-2.0872-.880332-.9372-1.3205-2.1725-1.3205-3.706 0-1.2779.326577-2.3854.97973-3.32253.68155-.93713 1.60448-1.66128 2.7688-2.17244 1.19271-.51117 2.55582-.76675 4.08931-.76675s2.854.26978 3.9615.80934c1.1359.53956 2.0163 1.29211 2.641 2.25764.6532.96554.994 2.11564 1.0223 3.45034h-3.8337c-.0284-1.0791-.3833-1.9169-1.0649-2.5132-.6816-.59637-1.63288-.89454-2.85399-.89454-1.24951 0-2.21505.26978-2.8966.80934-.68155.5396-1.02232 1.2779-1.02232 2.215 0 1.3915 1.02232 2.3429 3.06698 2.854l3.66333.8946c1.7607.3975 3.0812 1.0507 3.9615 1.9594.8804.8804 1.3205 2.0873 1.3205 3.6208 0 1.3063-.355 2.4564-1.0649 3.4503-.71.9655-1.6897 1.7181-2.9392 2.2577-1.2211.5111-2.6694.7667-4.34488.7667-2.44222 0-4.38748-.5964-5.83578-1.7891-1.448292-1.1927-2.17244-2.783-2.17244-4.7708z"/><path d="m19.1766 27.9888v-20.82986c1.5966.57946 2.3006.57946 4.0041 0v20.82986zm1.9594-22.20678c-.7099 0-1.3347-.25558-1.8742-.76674-.5112-.53957-.7668-1.16432-.7668-1.87427 0-.73835.2556-1.3631.7668-1.87426.5395-.511168 1.1643-.76675 1.8742-.76675.7384 0 1.3631.255582 1.8743.76675.5112.51116.7667 1.13591.7667 1.87426 0 .70995-.2555 1.3347-.7667 1.87427-.5112.51116-1.1359.76674-1.8743.76674z"/><path d="m30.2434 27.9888h-4.0041v-20.82986h3.5781v3.51456c.426-1.16431 1.2496-2.15146 2.3855-2.91821 1.1643-.79514 2.57-1.19271 4.2171-1.19271 1.8458 0 3.3793.49696 4.6004 1.49089 1.2212.99393 2.0163 2.31443 2.3855 3.96153h-.7242c.284-1.6471 1.0649-2.9676 2.3429-3.96153 1.2779-.99393 2.8539-1.49089 4.7282-1.49089 2.3854 0 4.2597.69575 5.6228 2.08725 1.3631 1.39147 2.0447 3.29417 2.0447 5.70797v13.631h-3.919v-12.6513c0-1.647-.4259-2.9107-1.2779-3.7911-.8235-.9087-1.9452-1.3631-3.3651-1.3631-.994 0-1.8743.2272-2.641.6816-.7384.4259-1.3205 1.0507-1.7465 1.8742-.426.8236-.639 1.7891-.639 2.8966v12.3531h-3.9615v-12.6938c0-1.6471-.4118-2.8966-1.2353-3.7486-.8235-.8803-1.9453-1.3205-3.3651-1.3205-.994 0-1.8743.2272-2.6411.6816-.7383.4259-1.3205 1.0507-1.7464 1.8742-.426.7952-.639 1.7465-.639 2.854z"/></g></svg>