<svg width="800" height="386" viewBox="0 0 800 386" fill="none" xmlns="http://www.w3.org/2000/svg">
<path d="M0 293.75H53.4128C53.4128 308.498 58.7541 320.256 69.4367 329.025C80.1193 337.395 94.5605 341.58 112.76 341.58C132.543 341.58 147.776 337.794 158.458 330.22C169.141 322.249 174.482 311.686 174.482 298.533C174.482 288.967 171.515 280.995 165.58 274.618C160.041 268.24 149.754 263.059 134.719 259.073L83.6801 247.115C57.9628 240.738 38.7738 230.973 26.1129 217.819C13.8478 204.666 7.71519 187.328 7.71519 165.804C7.71519 147.868 12.2652 132.323 21.3651 119.169C30.8608 106.016 43.7194 95.8521 59.9411 88.6776C76.5584 81.5031 95.5497 77.9157 116.915 77.9157C138.28 77.9157 156.678 81.7023 172.108 89.2755C187.934 96.8486 200.199 107.411 208.904 120.963C218.004 134.515 222.751 150.658 223.147 169.391H169.734C169.339 154.245 164.393 142.487 154.897 134.116C145.402 125.746 132.147 121.561 115.134 121.561C97.7257 121.561 84.2736 125.347 74.778 132.921C65.2824 140.494 60.5346 150.857 60.5346 164.01C60.5346 183.541 74.778 196.894 103.265 204.068L154.304 216.624C178.834 222.204 197.232 231.371 209.497 244.126C221.762 256.482 227.895 273.422 227.895 294.946C227.895 313.281 222.949 329.423 213.058 343.374C203.167 356.926 189.517 367.488 172.108 375.061C155.095 382.236 134.917 385.823 111.574 385.823C77.5475 385.823 50.4455 377.453 30.2673 360.712C10.0891 343.972 0 321.651 0 293.75Z" fill="#1C1C1C"/>
<path d="M267.175 385.826V93.4629C289.419 101.596 299.228 101.596 322.962 93.4629V385.826H267.175ZM294.475 74.1369C284.584 74.1369 275.879 70.5497 268.362 63.3751C261.24 55.802 257.679 47.0331 257.679 37.0684C257.679 26.7052 261.24 17.9364 268.362 10.7618C275.879 3.58727 284.584 0 294.475 0C304.762 0 313.466 3.58727 320.588 10.7618C327.71 17.9364 331.27 26.7052 331.27 37.0684C331.27 47.0331 327.71 55.802 320.588 63.3751C313.466 70.5497 304.762 74.1369 294.475 74.1369Z" fill="#1C1C1C"/>
<path d="M421.362 385.823H365.576V93.4606H415.428V142.79C421.362 126.448 432.836 112.593 448.662 101.831C464.884 90.6705 484.469 85.0903 507.416 85.0903C533.134 85.0903 554.499 92.0655 571.512 106.016C588.525 119.967 599.603 138.501 604.746 161.619H594.657C598.614 138.501 609.494 119.967 627.299 106.016C645.103 92.0655 667.061 85.0903 693.174 85.0903C726.409 85.0903 752.522 94.8556 771.513 114.386C790.504 133.917 800 160.622 800 194.502V385.823H745.4V208.253C745.4 185.135 739.466 167.398 727.596 155.042C716.122 142.287 700.494 135.91 680.711 135.91C666.864 135.91 654.598 139.099 643.916 145.476C633.629 151.455 625.518 160.224 619.583 171.783C613.649 183.342 610.681 196.894 610.681 212.438V385.823H555.488V207.655C555.488 184.537 549.751 167 538.277 155.042C526.803 142.686 511.175 136.508 491.392 136.508C477.545 136.508 465.28 139.697 454.597 146.074C444.31 152.053 436.199 160.822 430.264 172.381C424.33 183.541 421.362 196.894 421.362 212.438V385.823Z" fill="#1C1C1C"/>
</svg>
